<svg width="435" height="333" viewBox="0 0 435 333" fill="none" xmlns="http://www.w3.org/2000/svg">
<g clip-path="url(#clip0_107_2863)">
<rect width="435" height="333" rx="11.25" fill="#F2F1F0"/>
<g clip-path="url(#clip1_107_2863)">
<rect x="32" y="59" width="372" height="566.5" rx="10" fill="white"/>
<rect x="65" y="95.25" width="120" height="8" rx="4" fill="#DEE0E0"/>
<rect x="286.5" y="88.75" width="92" height="8" rx="4" fill="#DEE0E0"/>
<rect x="286.5" y="101.75" width="92" height="8" rx="4" fill="#DEE0E0"/>
<line x1="26.5" y1="120.75" x2="398.5" y2="120.75" stroke="black" stroke-width="0.5"/>
<rect x="59" y="135.75" width="312" height="12" rx="6" fill="#DEE0E0"/>
<rect x="54.25" y="162.25" width="322.5" height="19" rx="4.75" stroke="black" stroke-width="0.5"/>
<mask id="mask0_107_2863" style="mask-type:alpha" maskUnits="userSpaceOnUse" x="75" y="167" width="10" height="10">
<rect x="75.375" y="167.25" width="9" height="9" fill="#D9D9D9"/>
</mask>
<g mask="url(#mask0_107_2863)">
<path d="M79.1947 173.475L81.8184 170.831L81.2974 170.306L79.1947 172.425L78.1341 171.356L77.613 171.881L79.1947 173.475ZM79.7157 175.5C79.2009 175.5 78.7171 175.402 78.2643 175.205C77.8115 175.008 77.4176 174.741 77.0827 174.403C76.7478 174.066 76.4826 173.669 76.2872 173.212C76.0918 172.756 75.9941 172.269 75.9941 171.75C75.9941 171.231 76.0918 170.744 76.2872 170.287C76.4826 169.831 76.7478 169.434 77.0827 169.097C77.4176 168.759 77.8115 168.492 78.2643 168.295C78.7171 168.098 79.2009 168 79.7157 168C80.2306 168 80.7144 168.098 81.1672 168.295C81.6199 168.492 82.0138 168.759 82.3488 169.097C82.6837 169.434 82.9489 169.831 83.1442 170.287C83.3396 170.744 83.4373 171.231 83.4373 171.75C83.4373 172.269 83.3396 172.756 83.1442 173.212C82.9489 173.669 82.6837 174.066 82.3488 174.403C82.0138 174.741 81.6199 175.008 81.1672 175.205C80.7144 175.402 80.2306 175.5 79.7157 175.5Z" fill="#25DE60"/>
</g>
<path d="M90.0142 168.932H91.0795L92.9318 173.455H93L94.8523 168.932H95.9176V174.75H95.0824V170.54H95.0284L93.3125 174.741H92.6193L90.9034 170.537H90.8494V174.75H90.0142V168.932ZM99.0064 174.838C98.5765 174.838 98.2062 174.746 97.8956 174.562C97.5869 174.377 97.3482 174.116 97.1797 173.781C97.013 173.444 96.9297 173.049 96.9297 172.597C96.9297 172.15 97.013 171.756 97.1797 171.415C97.3482 171.074 97.5831 170.808 97.8842 170.616C98.1873 170.425 98.5414 170.33 98.9467 170.33C99.1929 170.33 99.4316 170.37 99.6626 170.452C99.8937 170.533 100.101 170.661 100.285 170.835C100.469 171.009 100.613 171.236 100.719 171.514C100.826 171.791 100.879 172.127 100.879 172.523V172.824H97.4098V172.188H100.046C100.046 171.964 100.001 171.766 99.9098 171.594C99.8189 171.42 99.6911 171.282 99.5263 171.182C99.3634 171.081 99.1721 171.031 98.9524 171.031C98.7138 171.031 98.5054 171.09 98.3274 171.207C98.1513 171.323 98.0149 171.474 97.9183 171.662C97.8236 171.848 97.7763 172.049 97.7763 172.267V172.764C97.7763 173.056 97.8274 173.304 97.9297 173.509C98.0339 173.713 98.1787 173.869 98.3643 173.977C98.55 174.083 98.7668 174.136 99.0149 174.136C99.1759 174.136 99.3227 174.114 99.4553 174.068C99.5878 174.021 99.7024 173.951 99.799 173.858C99.8956 173.765 99.9695 173.651 100.021 173.514L100.825 173.659C100.76 173.896 100.645 174.103 100.478 174.281C100.313 174.457 100.106 174.595 99.8558 174.693C99.6077 174.79 99.3246 174.838 99.0064 174.838ZM103.455 174.835C103.102 174.835 102.788 174.745 102.511 174.565C102.237 174.384 102.021 174.125 101.864 173.79C101.708 173.453 101.631 173.048 101.631 172.577C101.631 172.105 101.709 171.702 101.866 171.366C102.026 171.031 102.243 170.775 102.52 170.597C102.796 170.419 103.11 170.33 103.46 170.33C103.731 170.33 103.949 170.375 104.114 170.466C104.28 170.555 104.409 170.659 104.5 170.778C104.593 170.898 104.665 171.003 104.716 171.094H104.767V168.932H105.616V174.75H104.787V174.071H104.716C104.665 174.164 104.591 174.27 104.494 174.389C104.4 174.509 104.269 174.613 104.102 174.702C103.936 174.791 103.72 174.835 103.455 174.835ZM103.642 174.111C103.886 174.111 104.093 174.046 104.261 173.918C104.432 173.787 104.561 173.606 104.648 173.375C104.737 173.144 104.781 172.875 104.781 172.568C104.781 172.265 104.738 172 104.651 171.773C104.563 171.545 104.436 171.368 104.267 171.241C104.098 171.115 103.89 171.051 103.642 171.051C103.386 171.051 103.173 171.117 103.003 171.25C102.832 171.383 102.704 171.563 102.616 171.793C102.531 172.022 102.489 172.28 102.489 172.568C102.489 172.86 102.532 173.122 102.619 173.355C102.706 173.588 102.835 173.773 103.006 173.909C103.178 174.044 103.39 174.111 103.642 174.111ZM106.829 174.75V170.386H107.678V174.75H106.829ZM107.258 169.713C107.11 169.713 106.983 169.664 106.877 169.565C106.773 169.465 106.721 169.346 106.721 169.207C106.721 169.067 106.773 168.948 106.877 168.849C106.983 168.749 107.11 168.699 107.258 168.699C107.406 168.699 107.531 168.749 107.636 168.849C107.742 168.948 107.795 169.067 107.795 169.207C107.795 169.346 107.742 169.465 107.636 169.565C107.531 169.664 107.406 169.713 107.258 169.713ZM110.091 174.847C109.814 174.847 109.564 174.795 109.341 174.693C109.117 174.589 108.94 174.438 108.81 174.241C108.681 174.045 108.616 173.803 108.616 173.517C108.616 173.271 108.664 173.068 108.759 172.909C108.853 172.75 108.981 172.624 109.142 172.531C109.303 172.438 109.483 172.368 109.682 172.321C109.881 172.274 110.083 172.238 110.29 172.213C110.551 172.183 110.763 172.158 110.926 172.139C111.089 172.118 111.207 172.085 111.281 172.04C111.355 171.994 111.392 171.92 111.392 171.818V171.798C111.392 171.55 111.322 171.358 111.182 171.222C111.044 171.085 110.837 171.017 110.562 171.017C110.277 171.017 110.051 171.08 109.886 171.207C109.723 171.332 109.611 171.472 109.548 171.625L108.75 171.443C108.845 171.178 108.983 170.964 109.165 170.801C109.348 170.636 109.56 170.517 109.798 170.443C110.037 170.367 110.288 170.33 110.551 170.33C110.725 170.33 110.91 170.35 111.105 170.392C111.302 170.432 111.486 170.506 111.656 170.614C111.829 170.722 111.97 170.876 112.08 171.077C112.189 171.276 112.244 171.534 112.244 171.852V174.75H111.415V174.153H111.381C111.326 174.263 111.243 174.371 111.134 174.477C111.024 174.583 110.883 174.671 110.71 174.741C110.538 174.812 110.331 174.847 110.091 174.847ZM110.276 174.165C110.51 174.165 110.711 174.118 110.878 174.026C111.046 173.933 111.174 173.812 111.261 173.662C111.35 173.51 111.395 173.348 111.395 173.176V172.614C111.365 172.644 111.306 172.672 111.219 172.699C111.134 172.723 111.036 172.745 110.926 172.764C110.816 172.781 110.709 172.797 110.605 172.812C110.501 172.826 110.414 172.837 110.344 172.847C110.179 172.867 110.028 172.902 109.892 172.952C109.758 173.001 109.65 173.072 109.568 173.165C109.489 173.256 109.449 173.377 109.449 173.528C109.449 173.739 109.527 173.898 109.682 174.006C109.837 174.112 110.035 174.165 110.276 174.165Z" fill="black"/>
<rect x="135" y="162.25" width="80.25" height="19" fill="#4696FF"/>
<rect x="135" y="162.25" width="80.25" height="19" stroke="#89BCFF" stroke-width="0.5"/>
<circle cx="161.125" cy="171.75" r="3.5" fill="#D9D9D9"/>
<path d="M174.96 168.932V174.75H174.153L171.196 170.483H171.142V174.75H170.264V168.932H171.077L174.037 173.205H174.091V168.932H174.96ZM178.011 174.838C177.602 174.838 177.245 174.744 176.94 174.557C176.635 174.369 176.398 174.107 176.229 173.77C176.061 173.433 175.977 173.039 175.977 172.588C175.977 172.135 176.061 171.74 176.229 171.401C176.398 171.062 176.635 170.798 176.94 170.611C177.245 170.423 177.602 170.33 178.011 170.33C178.42 170.33 178.777 170.423 179.082 170.611C179.387 170.798 179.623 171.062 179.792 171.401C179.96 171.74 180.045 172.135 180.045 172.588C180.045 173.039 179.96 173.433 179.792 173.77C179.623 174.107 179.387 174.369 179.082 174.557C178.777 174.744 178.42 174.838 178.011 174.838ZM178.013 174.125C178.279 174.125 178.498 174.055 178.673 173.915C178.847 173.775 178.976 173.588 179.059 173.355C179.144 173.122 179.187 172.866 179.187 172.585C179.187 172.307 179.144 172.051 179.059 171.818C178.976 171.583 178.847 171.395 178.673 171.253C178.498 171.111 178.279 171.04 178.013 171.04C177.746 171.04 177.525 171.111 177.349 171.253C177.174 171.395 177.045 171.583 176.96 171.818C176.876 172.051 176.835 172.307 176.835 172.585C176.835 172.866 176.876 173.122 176.96 173.355C177.045 173.588 177.174 173.775 177.349 173.915C177.525 174.055 177.746 174.125 178.013 174.125ZM183.03 170.386V171.068H180.646V170.386H183.03ZM181.286 169.341H182.135V173.469C182.135 173.634 182.16 173.758 182.209 173.841C182.258 173.922 182.321 173.978 182.399 174.009C182.479 174.037 182.565 174.051 182.658 174.051C182.726 174.051 182.786 174.046 182.837 174.037C182.888 174.027 182.928 174.02 182.956 174.014L183.109 174.716C183.06 174.735 182.99 174.754 182.899 174.773C182.808 174.794 182.695 174.805 182.558 174.807C182.335 174.811 182.126 174.771 181.933 174.688C181.74 174.604 181.584 174.475 181.464 174.301C181.345 174.127 181.286 173.908 181.286 173.645V169.341ZM185.803 174.838C185.373 174.838 185.003 174.746 184.692 174.562C184.384 174.377 184.145 174.116 183.977 173.781C183.81 173.444 183.727 173.049 183.727 172.597C183.727 172.15 183.81 171.756 183.977 171.415C184.145 171.074 184.38 170.808 184.681 170.616C184.984 170.425 185.338 170.33 185.744 170.33C185.99 170.33 186.228 170.37 186.46 170.452C186.691 170.533 186.898 170.661 187.082 170.835C187.265 171.009 187.41 171.236 187.516 171.514C187.622 171.791 187.675 172.127 187.675 172.523V172.824H184.207V172.188H186.843C186.843 171.964 186.798 171.766 186.707 171.594C186.616 171.42 186.488 171.282 186.323 171.182C186.16 171.081 185.969 171.031 185.749 171.031C185.511 171.031 185.302 171.09 185.124 171.207C184.948 171.323 184.812 171.474 184.715 171.662C184.621 171.848 184.573 172.049 184.573 172.267V172.764C184.573 173.056 184.624 173.304 184.727 173.509C184.831 173.713 184.976 173.869 185.161 173.977C185.347 174.083 185.564 174.136 185.812 174.136C185.973 174.136 186.12 174.114 186.252 174.068C186.385 174.021 186.499 173.951 186.596 173.858C186.692 173.765 186.766 173.651 186.817 173.514L187.621 173.659C187.557 173.896 187.442 174.103 187.275 174.281C187.11 174.457 186.903 174.595 186.653 174.693C186.405 174.79 186.121 174.838 185.803 174.838ZM191.888 171.452L191.118 171.588C191.086 171.49 191.035 171.396 190.964 171.307C190.896 171.218 190.804 171.145 190.686 171.088C190.569 171.031 190.422 171.003 190.246 171.003C190.005 171.003 189.804 171.057 189.643 171.165C189.482 171.271 189.402 171.408 189.402 171.577C189.402 171.723 189.456 171.84 189.564 171.929C189.672 172.018 189.846 172.091 190.087 172.148L190.78 172.307C191.181 172.4 191.481 172.543 191.678 172.736C191.875 172.929 191.973 173.18 191.973 173.489C191.973 173.75 191.897 173.983 191.746 174.188C191.596 174.39 191.387 174.549 191.118 174.665C190.851 174.78 190.541 174.838 190.189 174.838C189.7 174.838 189.302 174.734 188.993 174.526C188.684 174.315 188.495 174.017 188.425 173.631L189.246 173.506C189.297 173.72 189.402 173.882 189.561 173.991C189.72 174.099 189.928 174.153 190.183 174.153C190.462 174.153 190.684 174.096 190.851 173.98C191.018 173.863 191.101 173.72 191.101 173.551C191.101 173.415 191.05 173.3 190.947 173.207C190.847 173.115 190.693 173.045 190.484 172.997L189.746 172.835C189.339 172.742 189.037 172.595 188.842 172.392C188.649 172.189 188.553 171.933 188.553 171.622C188.553 171.365 188.625 171.139 188.768 170.946C188.912 170.753 189.111 170.602 189.365 170.494C189.619 170.384 189.91 170.33 190.237 170.33C190.709 170.33 191.08 170.432 191.351 170.636C191.622 170.839 191.801 171.111 191.888 171.452Z" fill="white"/>
<mask id="path-15-inside-1_107_2863" fill="white">
<path d="M215.5 162H296.25V181.5H215.5V162Z"/>
</mask>
<path d="M215.5 181.5H216V162H215.5H215V181.5H215.5Z" fill="black" mask="url(#path-15-inside-1_107_2863)"/>
<circle cx="233.375" cy="171.75" r="3.5" fill="#D9D9D9"/>
<path d="M242.514 174.75V168.932H244.588C245.041 168.932 245.416 169.014 245.713 169.179C246.01 169.344 246.233 169.569 246.381 169.855C246.528 170.139 246.602 170.459 246.602 170.815C246.602 171.173 246.527 171.495 246.378 171.781C246.23 172.065 246.007 172.291 245.707 172.457C245.41 172.622 245.036 172.705 244.585 172.705H243.159V171.96H244.506C244.792 171.96 245.024 171.911 245.202 171.812C245.38 171.712 245.51 171.576 245.594 171.403C245.677 171.231 245.719 171.035 245.719 170.815C245.719 170.596 245.677 170.401 245.594 170.23C245.51 170.06 245.379 169.926 245.199 169.83C245.021 169.733 244.786 169.685 244.494 169.685H243.392V174.75H242.514ZM248.794 174.847C248.518 174.847 248.268 174.795 248.044 174.693C247.821 174.589 247.643 174.438 247.513 174.241C247.384 174.045 247.32 173.803 247.32 173.517C247.32 173.271 247.367 173.068 247.462 172.909C247.556 172.75 247.684 172.624 247.845 172.531C248.006 172.438 248.186 172.368 248.385 172.321C248.584 172.274 248.786 172.238 248.993 172.213C249.254 172.183 249.466 172.158 249.629 172.139C249.792 172.118 249.911 172.085 249.984 172.04C250.058 171.994 250.095 171.92 250.095 171.818V171.798C250.095 171.55 250.025 171.358 249.885 171.222C249.747 171.085 249.54 171.017 249.266 171.017C248.98 171.017 248.754 171.08 248.589 171.207C248.427 171.332 248.314 171.472 248.251 171.625L247.453 171.443C247.548 171.178 247.686 170.964 247.868 170.801C248.052 170.636 248.263 170.517 248.501 170.443C248.74 170.367 248.991 170.33 249.254 170.33C249.429 170.33 249.613 170.35 249.808 170.392C250.005 170.432 250.189 170.506 250.359 170.614C250.532 170.722 250.673 170.876 250.783 171.077C250.893 171.276 250.947 171.534 250.947 171.852V174.75H250.118V174.153H250.084C250.029 174.263 249.946 174.371 249.837 174.477C249.727 174.583 249.586 174.671 249.413 174.741C249.241 174.812 249.035 174.847 248.794 174.847ZM248.979 174.165C249.214 174.165 249.414 174.118 249.581 174.026C249.75 173.933 249.877 173.812 249.964 173.662C250.054 173.51 250.098 173.348 250.098 173.176V172.614C250.068 172.644 250.009 172.672 249.922 172.699C249.837 172.723 249.739 172.745 249.629 172.764C249.519 172.781 249.412 172.797 249.308 172.812C249.204 172.826 249.117 172.837 249.047 172.847C248.882 172.867 248.732 172.902 248.595 172.952C248.461 173.001 248.353 173.072 248.271 173.165C248.192 173.256 248.152 173.377 248.152 173.528C248.152 173.739 248.23 173.898 248.385 174.006C248.54 174.112 248.738 174.165 248.979 174.165ZM253.917 174.838C253.495 174.838 253.131 174.742 252.826 174.551C252.523 174.358 252.29 174.092 252.127 173.753C251.964 173.414 251.883 173.026 251.883 172.588C251.883 172.145 251.966 171.754 252.133 171.415C252.299 171.074 252.534 170.808 252.837 170.616C253.14 170.425 253.497 170.33 253.908 170.33C254.24 170.33 254.535 170.391 254.795 170.514C255.054 170.635 255.263 170.806 255.423 171.026C255.584 171.245 255.679 171.502 255.71 171.795H254.883C254.837 171.591 254.733 171.415 254.57 171.267C254.409 171.119 254.193 171.045 253.923 171.045C253.686 171.045 253.478 171.108 253.3 171.233C253.124 171.356 252.987 171.532 252.888 171.761C252.79 171.989 252.741 172.258 252.741 172.568C252.741 172.886 252.789 173.161 252.886 173.392C252.982 173.623 253.119 173.802 253.295 173.929C253.473 174.056 253.682 174.119 253.923 174.119C254.084 174.119 254.229 174.09 254.36 174.031C254.493 173.971 254.603 173.884 254.692 173.773C254.783 173.661 254.847 173.527 254.883 173.369H255.71C255.679 173.652 255.587 173.903 255.434 174.125C255.281 174.347 255.075 174.521 254.817 174.648C254.562 174.775 254.262 174.838 253.917 174.838ZM257.399 173.27L257.393 172.233H257.541L259.28 170.386H260.297L258.314 172.489H258.18L257.399 173.27ZM256.618 174.75V168.932H257.467V174.75H256.618ZM259.374 174.75L257.811 172.676L258.396 172.082L260.416 174.75H259.374ZM262.341 174.847C262.064 174.847 261.814 174.795 261.591 174.693C261.367 174.589 261.19 174.438 261.06 174.241C260.931 174.045 260.866 173.803 260.866 173.517C260.866 173.271 260.914 173.068 261.009 172.909C261.103 172.75 261.231 172.624 261.392 172.531C261.553 172.438 261.733 172.368 261.932 172.321C262.131 172.274 262.333 172.238 262.54 172.213C262.801 172.183 263.013 172.158 263.176 172.139C263.339 172.118 263.457 172.085 263.531 172.04C263.605 171.994 263.642 171.92 263.642 171.818V171.798C263.642 171.55 263.572 171.358 263.432 171.222C263.294 171.085 263.087 171.017 262.812 171.017C262.527 171.017 262.301 171.08 262.136 171.207C261.973 171.332 261.861 171.472 261.798 171.625L261 171.443C261.095 171.178 261.233 170.964 261.415 170.801C261.598 170.636 261.81 170.517 262.048 170.443C262.287 170.367 262.538 170.33 262.801 170.33C262.975 170.33 263.16 170.35 263.355 170.392C263.552 170.432 263.736 170.506 263.906 170.614C264.079 170.722 264.22 170.876 264.33 171.077C264.439 171.276 264.494 171.534 264.494 171.852V174.75H263.665V174.153H263.631C263.576 174.263 263.493 174.371 263.384 174.477C263.274 174.583 263.133 174.671 262.96 174.741C262.788 174.812 262.581 174.847 262.341 174.847ZM262.526 174.165C262.76 174.165 262.961 174.118 263.128 174.026C263.296 173.933 263.424 173.812 263.511 173.662C263.6 173.51 263.645 173.348 263.645 173.176V172.614C263.615 172.644 263.556 172.672 263.469 172.699C263.384 172.723 263.286 172.745 263.176 172.764C263.066 172.781 262.959 172.797 262.855 172.812C262.751 172.826 262.664 172.837 262.594 172.847C262.429 172.867 262.278 172.902 262.142 172.952C262.008 173.001 261.9 173.072 261.818 173.165C261.739 173.256 261.699 173.377 261.699 173.528C261.699 173.739 261.777 173.898 261.932 174.006C262.087 174.112 262.285 174.165 262.526 174.165ZM267.455 176.477C267.109 176.477 266.81 176.432 266.56 176.341C266.312 176.25 266.11 176.13 265.952 175.98C265.795 175.83 265.678 175.667 265.6 175.489L266.33 175.188C266.381 175.271 266.45 175.359 266.535 175.452C266.622 175.546 266.739 175.627 266.887 175.693C267.037 175.759 267.229 175.793 267.464 175.793C267.786 175.793 268.052 175.714 268.262 175.557C268.472 175.402 268.577 175.153 268.577 174.812V173.955H268.523C268.472 174.047 268.398 174.151 268.302 174.264C268.207 174.378 268.076 174.476 267.91 174.56C267.743 174.643 267.526 174.685 267.259 174.685C266.915 174.685 266.604 174.604 266.327 174.443C266.053 174.28 265.835 174.041 265.674 173.724C265.515 173.406 265.435 173.015 265.435 172.551C265.435 172.087 265.514 171.689 265.671 171.358C265.83 171.027 266.048 170.773 266.325 170.597C266.601 170.419 266.915 170.33 267.265 170.33C267.536 170.33 267.754 170.375 267.921 170.466C268.088 170.555 268.218 170.659 268.31 170.778C268.405 170.898 268.478 171.003 268.529 171.094H268.592V170.386H269.424V174.847C269.424 175.222 269.337 175.529 269.163 175.77C268.988 176.01 268.753 176.188 268.455 176.304C268.16 176.42 267.826 176.477 267.455 176.477ZM267.447 173.98C267.691 173.98 267.897 173.923 268.066 173.81C268.237 173.694 268.365 173.529 268.452 173.315C268.541 173.099 268.586 172.841 268.586 172.54C268.586 172.246 268.542 171.988 268.455 171.764C268.368 171.541 268.24 171.366 268.072 171.241C267.903 171.115 267.695 171.051 267.447 171.051C267.191 171.051 266.978 171.117 266.808 171.25C266.637 171.381 266.508 171.559 266.421 171.784C266.336 172.009 266.293 172.261 266.293 172.54C266.293 172.826 266.337 173.077 266.424 173.293C266.511 173.509 266.64 173.677 266.81 173.798C266.983 173.92 267.195 173.98 267.447 173.98ZM270.563 174.75V170.386H271.413V174.75H270.563ZM270.992 169.713C270.844 169.713 270.718 169.664 270.612 169.565C270.507 169.465 270.455 169.346 270.455 169.207C270.455 169.067 270.507 168.948 270.612 168.849C270.718 168.749 270.844 168.699 270.992 168.699C271.14 168.699 271.266 168.749 271.37 168.849C271.476 168.948 271.529 169.067 271.529 169.207C271.529 169.346 271.476 169.465 271.37 169.565C271.266 169.664 271.14 169.713 270.992 169.713ZM273.405 172.159V174.75H272.555V170.386H273.371V171.097H273.425C273.525 170.866 273.682 170.68 273.896 170.54C274.112 170.4 274.384 170.33 274.712 170.33C275.009 170.33 275.269 170.392 275.493 170.517C275.716 170.64 275.89 170.824 276.013 171.068C276.136 171.312 276.197 171.615 276.197 171.974V174.75H275.348V172.077C275.348 171.76 275.266 171.513 275.101 171.335C274.936 171.155 274.71 171.065 274.422 171.065C274.225 171.065 274.05 171.108 273.896 171.193C273.745 171.278 273.625 171.403 273.536 171.568C273.448 171.731 273.405 171.928 273.405 172.159ZM279.166 176.477C278.82 176.477 278.521 176.432 278.271 176.341C278.023 176.25 277.821 176.13 277.663 175.98C277.506 175.83 277.389 175.667 277.311 175.489L278.041 175.188C278.092 175.271 278.161 175.359 278.246 175.452C278.333 175.546 278.45 175.627 278.598 175.693C278.748 175.759 278.94 175.793 279.175 175.793C279.497 175.793 279.763 175.714 279.973 175.557C280.183 175.402 280.288 175.153 280.288 174.812V173.955H280.234C280.183 174.047 280.109 174.151 280.013 174.264C279.918 174.378 279.787 174.476 279.621 174.56C279.454 174.643 279.237 174.685 278.97 174.685C278.625 174.685 278.315 174.604 278.038 174.443C277.764 174.28 277.546 174.041 277.385 173.724C277.226 173.406 277.146 173.015 277.146 172.551C277.146 172.087 277.225 171.689 277.382 171.358C277.541 171.027 277.759 170.773 278.036 170.597C278.312 170.419 278.625 170.33 278.976 170.33C279.247 170.33 279.465 170.375 279.632 170.466C279.799 170.555 279.929 170.659 280.021 170.778C280.116 170.898 280.189 171.003 280.24 171.094H280.303V170.386H281.135V174.847C281.135 175.222 281.048 175.529 280.874 175.77C280.699 176.01 280.464 176.188 280.166 176.304C279.871 176.42 279.537 176.477 279.166 176.477ZM279.158 173.98C279.402 173.98 279.608 173.923 279.777 173.81C279.947 173.694 280.076 173.529 280.163 173.315C280.252 173.099 280.297 172.841 280.297 172.54C280.297 172.246 280.253 171.988 280.166 171.764C280.079 171.541 279.951 171.366 279.783 171.241C279.614 171.115 279.406 171.051 279.158 171.051C278.902 171.051 278.689 171.117 278.518 171.25C278.348 171.381 278.219 171.559 278.132 171.784C278.047 172.009 278.004 172.261 278.004 172.54C278.004 172.826 278.048 173.077 278.135 173.293C278.222 173.509 278.351 173.677 278.521 173.798C278.694 173.92 278.906 173.98 279.158 173.98Z" fill="black"/>
<mask id="path-19-inside-2_107_2863" fill="white">
<path d="M296.25 162H377V181.5H296.25V162Z"/>
</mask>
<path d="M296.25 181.5H296.75V162H296.25H295.75V181.5H296.25Z" fill="black" mask="url(#path-19-inside-2_107_2863)"/>
<circle cx="317.125" cy="171.75" r="3.5" fill="#D9D9D9"/>
<path d="M328.403 172.864H329.267L329.875 173.656L330.162 174.009L331.131 175.273H330.233L329.585 174.429L329.364 174.122L328.403 172.864ZM331.318 171.841C331.318 172.462 331.205 172.996 330.977 173.443C330.75 173.888 330.438 174.231 330.043 174.472C329.649 174.71 329.201 174.83 328.699 174.83C328.195 174.83 327.745 174.71 327.349 174.472C326.955 174.231 326.645 173.887 326.418 173.44C326.19 172.993 326.077 172.46 326.077 171.841C326.077 171.22 326.19 170.687 326.418 170.241C326.645 169.795 326.955 169.452 327.349 169.213C327.745 168.973 328.195 168.852 328.699 168.852C329.201 168.852 329.649 168.973 330.043 169.213C330.438 169.452 330.75 169.795 330.977 170.241C331.205 170.687 331.318 171.22 331.318 171.841ZM330.449 171.841C330.449 171.367 330.372 170.969 330.219 170.645C330.067 170.319 329.859 170.073 329.594 169.906C329.33 169.738 329.032 169.653 328.699 169.653C328.364 169.653 328.064 169.738 327.801 169.906C327.538 170.073 327.33 170.319 327.176 170.645C327.025 170.969 326.949 171.367 326.949 171.841C326.949 172.314 327.025 172.714 327.176 173.04C327.33 173.364 327.538 173.61 327.801 173.778C328.064 173.945 328.364 174.028 328.699 174.028C329.032 174.028 329.33 173.945 329.594 173.778C329.859 173.61 330.067 173.364 330.219 173.04C330.372 172.714 330.449 172.314 330.449 171.841ZM332.413 174.75V168.932H334.487C334.937 168.932 335.311 169.009 335.609 169.165C335.908 169.32 336.131 169.535 336.279 169.81C336.427 170.082 336.501 170.398 336.501 170.756C336.501 171.112 336.426 171.425 336.276 171.696C336.129 171.965 335.905 172.174 335.606 172.324C335.308 172.473 334.934 172.548 334.484 172.548H332.913V171.793H334.404C334.688 171.793 334.919 171.752 335.097 171.67C335.277 171.589 335.409 171.471 335.492 171.315C335.576 171.16 335.617 170.973 335.617 170.756C335.617 170.536 335.575 170.346 335.489 170.185C335.406 170.024 335.274 169.901 335.094 169.815C334.916 169.728 334.683 169.685 334.393 169.685H333.29V174.75H332.413ZM335.285 172.125L336.722 174.75H335.722L334.313 172.125H335.285ZM344.518 170.824H343.632C343.598 170.634 343.535 170.468 343.442 170.324C343.349 170.18 343.235 170.058 343.101 169.957C342.966 169.857 342.816 169.781 342.649 169.73C342.484 169.679 342.309 169.653 342.124 169.653C341.788 169.653 341.488 169.738 341.223 169.906C340.96 170.075 340.751 170.322 340.598 170.648C340.446 170.973 340.371 171.371 340.371 171.841C340.371 172.314 340.446 172.714 340.598 173.04C340.751 173.366 340.961 173.612 341.226 173.778C341.491 173.945 341.789 174.028 342.121 174.028C342.304 174.028 342.479 174.004 342.643 173.955C342.81 173.903 342.961 173.829 343.095 173.73C343.23 173.632 343.343 173.511 343.436 173.369C343.531 173.225 343.596 173.061 343.632 172.875L344.518 172.878C344.471 173.164 344.379 173.427 344.243 173.668C344.108 173.906 343.935 174.113 343.723 174.287C343.513 174.459 343.272 174.593 343.001 174.688C342.731 174.782 342.435 174.83 342.115 174.83C341.611 174.83 341.162 174.71 340.768 174.472C340.375 174.231 340.064 173.887 339.837 173.44C339.611 172.993 339.499 172.46 339.499 171.841C339.499 171.22 339.612 170.687 339.839 170.241C340.067 169.795 340.377 169.452 340.771 169.213C341.165 168.973 341.613 168.852 342.115 168.852C342.424 168.852 342.712 168.897 342.979 168.986C343.248 169.073 343.489 169.202 343.703 169.372C343.917 169.541 344.094 169.747 344.234 169.991C344.375 170.234 344.469 170.511 344.518 170.824ZM347.339 174.838C346.93 174.838 346.573 174.744 346.268 174.557C345.963 174.369 345.726 174.107 345.558 173.77C345.389 173.433 345.305 173.039 345.305 172.588C345.305 172.135 345.389 171.74 345.558 171.401C345.726 171.062 345.963 170.798 346.268 170.611C346.573 170.423 346.93 170.33 347.339 170.33C347.748 170.33 348.105 170.423 348.41 170.611C348.715 170.798 348.951 171.062 349.12 171.401C349.289 171.74 349.373 172.135 349.373 172.588C349.373 173.039 349.289 173.433 349.12 173.77C348.951 174.107 348.715 174.369 348.41 174.557C348.105 174.744 347.748 174.838 347.339 174.838ZM347.342 174.125C347.607 174.125 347.826 174.055 348.001 173.915C348.175 173.775 348.304 173.588 348.387 173.355C348.472 173.122 348.515 172.866 348.515 172.585C348.515 172.307 348.472 172.051 348.387 171.818C348.304 171.583 348.175 171.395 348.001 171.253C347.826 171.111 347.607 171.04 347.342 171.04C347.075 171.04 346.853 171.111 346.677 171.253C346.503 171.395 346.373 171.583 346.288 171.818C346.204 172.051 346.163 172.307 346.163 172.585C346.163 172.866 346.204 173.122 346.288 173.355C346.373 173.588 346.503 173.775 346.677 173.915C346.853 174.055 347.075 174.125 347.342 174.125ZM351.955 174.835C351.602 174.835 351.288 174.745 351.011 174.565C350.737 174.384 350.521 174.125 350.364 173.79C350.208 173.453 350.131 173.048 350.131 172.577C350.131 172.105 350.209 171.702 350.366 171.366C350.526 171.031 350.743 170.775 351.02 170.597C351.296 170.419 351.61 170.33 351.96 170.33C352.231 170.33 352.449 170.375 352.614 170.466C352.78 170.555 352.909 170.659 353 170.778C353.093 170.898 353.165 171.003 353.216 171.094H353.267V168.932H354.116V174.75H353.287V174.071H353.216C353.165 174.164 353.091 174.27 352.994 174.389C352.9 174.509 352.769 174.613 352.602 174.702C352.436 174.791 352.22 174.835 351.955 174.835ZM352.142 174.111C352.386 174.111 352.593 174.046 352.761 173.918C352.932 173.787 353.061 173.606 353.148 173.375C353.237 173.144 353.281 172.875 353.281 172.568C353.281 172.265 353.238 172 353.151 171.773C353.063 171.545 352.936 171.368 352.767 171.241C352.598 171.115 352.39 171.051 352.142 171.051C351.886 171.051 351.673 171.117 351.503 171.25C351.332 171.383 351.204 171.563 351.116 171.793C351.031 172.022 350.989 172.28 350.989 172.568C350.989 172.86 351.032 173.122 351.119 173.355C351.206 173.588 351.335 173.773 351.506 173.909C351.678 174.044 351.89 174.111 352.142 174.111ZM357.21 174.838C356.78 174.838 356.409 174.746 356.099 174.562C355.79 174.377 355.551 174.116 355.383 173.781C355.216 173.444 355.133 173.049 355.133 172.597C355.133 172.15 355.216 171.756 355.383 171.415C355.551 171.074 355.786 170.808 356.087 170.616C356.39 170.425 356.745 170.33 357.15 170.33C357.396 170.33 357.635 170.37 357.866 170.452C358.097 170.533 358.304 170.661 358.488 170.835C358.672 171.009 358.817 171.236 358.923 171.514C359.029 171.791 359.082 172.127 359.082 172.523V172.824H355.613V172.188H358.249C358.249 171.964 358.204 171.766 358.113 171.594C358.022 171.42 357.894 171.282 357.729 171.182C357.567 171.081 357.375 171.031 357.156 171.031C356.917 171.031 356.709 171.09 356.531 171.207C356.354 171.323 356.218 171.474 356.121 171.662C356.027 171.848 355.979 172.049 355.979 172.267V172.764C355.979 173.056 356.031 173.304 356.133 173.509C356.237 173.713 356.382 173.869 356.567 173.977C356.753 174.083 356.97 174.136 357.218 174.136C357.379 174.136 357.526 174.114 357.658 174.068C357.791 174.021 357.906 173.951 358.002 173.858C358.099 173.765 358.173 173.651 358.224 173.514L359.028 173.659C358.963 173.896 358.848 174.103 358.681 174.281C358.516 174.457 358.309 174.595 358.059 174.693C357.811 174.79 357.528 174.838 357.21 174.838Z" fill="black"/>
<rect x="48" y="95.75" width="11" height="8" rx="4" fill="#DEE0E0"/>
<rect x="54" y="196.5" width="120" height="8" rx="4" fill="#DEE0E0"/>
<rect x="54" y="221.75" width="323" height="77" rx="10" fill="#DEE0E0"/>
</g>
<rect y="192" width="453" height="141" fill="url(#paint0_linear_107_2863)"/>
</g>
<defs>
<linearGradient id="paint0_linear_107_2863" x1="226.5" y1="192" x2="226.5" y2="333" gradientUnits="userSpaceOnUse">
<stop stop-color="#F2F1F0" stop-opacity="0"/>
<stop offset="0.705507" stop-color="#F2F1F0"/>
</linearGradient>
<clipPath id="clip0_107_2863">
<rect width="435" height="333" rx="11.25" fill="white"/>
</clipPath>
<clipPath id="clip1_107_2863">
<rect x="32" y="59" width="372" height="566.5" rx="10" fill="white"/>
</clipPath>
</defs>
</svg>
