<svg width="435" height="333" viewBox="0 0 435 333" fill="none" xmlns="http://www.w3.org/2000/svg">
<g clip-path="url(#clip0_107_2829)">
<rect width="435" height="333" rx="11.25" fill="#F2F1F0"/>
<rect x="74" y="64" width="286.5" height="205" rx="5" fill="white"/>
<path d="M96.272 98H95.2237L97.5792 91.4545H98.7202L101.076 98H100.027L98.1768 92.6435H98.1257L96.272 98ZM96.4478 95.4368H99.8484V96.2678H96.4478V95.4368ZM103.703 98.0959C103.306 98.0959 102.953 97.9947 102.642 97.7923C102.333 97.5877 102.09 97.2969 101.913 96.9197C101.738 96.5405 101.651 96.0856 101.651 95.555C101.651 95.0245 101.739 94.5707 101.916 94.1935C102.095 93.8164 102.34 93.5277 102.651 93.3274C102.962 93.1271 103.315 93.027 103.709 93.027C104.014 93.027 104.259 93.0781 104.444 93.1804C104.632 93.2805 104.777 93.3977 104.879 93.532C104.983 93.6662 105.064 93.7844 105.122 93.8867H105.179V91.4545H106.135V98H105.202V97.2362H105.122C105.064 97.3406 104.981 97.4599 104.873 97.5941C104.766 97.7283 104.619 97.8455 104.431 97.9457C104.244 98.0458 104.001 98.0959 103.703 98.0959ZM103.914 97.2809C104.189 97.2809 104.421 97.2085 104.61 97.0636C104.802 96.9165 104.947 96.7131 105.045 96.4531C105.145 96.1932 105.195 95.8906 105.195 95.5455C105.195 95.2045 105.146 94.9062 105.048 94.6506C104.95 94.3949 104.806 94.1957 104.617 94.0529C104.427 93.9102 104.193 93.8388 103.914 93.8388C103.626 93.8388 103.386 93.9134 103.195 94.0625C103.003 94.2116 102.858 94.4151 102.76 94.6729C102.664 94.9308 102.616 95.2216 102.616 95.5455C102.616 95.8736 102.665 96.1687 102.763 96.4308C102.861 96.6928 103.006 96.9006 103.198 97.054C103.392 97.2053 103.63 97.2809 103.914 97.2809ZM109.337 98.0959C108.94 98.0959 108.587 97.9947 108.275 97.7923C107.967 97.5877 107.724 97.2969 107.547 96.9197C107.372 96.5405 107.285 96.0856 107.285 95.555C107.285 95.0245 107.373 94.5707 107.55 94.1935C107.729 93.8164 107.974 93.5277 108.285 93.3274C108.596 93.1271 108.949 93.027 109.343 93.027C109.648 93.027 109.893 93.0781 110.078 93.1804C110.266 93.2805 110.41 93.3977 110.513 93.532C110.617 93.6662 110.698 93.7844 110.756 93.8867H110.813V91.4545H111.769V98H110.835V97.2362H110.756C110.698 97.3406 110.615 97.4599 110.506 97.5941C110.4 97.7283 110.253 97.8455 110.065 97.9457C109.878 98.0458 109.635 98.0959 109.337 98.0959ZM109.547 97.2809C109.822 97.2809 110.055 97.2085 110.244 97.0636C110.436 96.9165 110.581 96.7131 110.679 96.4531C110.779 96.1932 110.829 95.8906 110.829 95.5455C110.829 95.2045 110.78 94.9062 110.682 94.6506C110.584 94.3949 110.44 94.1957 110.251 94.0529C110.061 93.9102 109.827 93.8388 109.547 93.8388C109.26 93.8388 109.02 93.9134 108.828 94.0625C108.637 94.2116 108.492 94.4151 108.394 94.6729C108.298 94.9308 108.25 95.2216 108.25 95.5455C108.25 95.8736 108.299 96.1687 108.397 96.4308C108.495 96.6928 108.64 96.9006 108.832 97.054C109.025 97.2053 109.264 97.2809 109.547 97.2809ZM116.943 98.1087C116.632 98.1087 116.351 98.0511 116.099 97.9361C115.848 97.8189 115.649 97.6495 115.502 97.4279C115.357 97.2063 115.284 96.9347 115.284 96.6129C115.284 96.3359 115.338 96.108 115.444 95.929C115.551 95.75 115.695 95.6083 115.876 95.5039C116.057 95.3995 116.259 95.3207 116.483 95.2674C116.707 95.2141 116.935 95.1737 117.167 95.146C117.461 95.1119 117.699 95.0842 117.883 95.0629C118.066 95.0394 118.199 95.0021 118.282 94.951C118.365 94.8999 118.407 94.8168 118.407 94.7017V94.6793C118.407 94.4002 118.328 94.1839 118.17 94.0305C118.015 93.8771 117.783 93.8004 117.474 93.8004C117.152 93.8004 116.898 93.8718 116.713 94.0146C116.53 94.1552 116.403 94.3118 116.333 94.4844L115.435 94.2798C115.541 93.9815 115.697 93.7408 115.901 93.5575C116.108 93.3722 116.345 93.2379 116.614 93.1548C116.882 93.0696 117.165 93.027 117.461 93.027C117.657 93.027 117.865 93.0504 118.084 93.0973C118.306 93.142 118.512 93.2251 118.704 93.3466C118.898 93.468 119.057 93.6417 119.18 93.8675C119.304 94.0913 119.366 94.3821 119.366 94.7401V98H118.432V97.3288H118.394C118.332 97.4524 118.24 97.5739 118.116 97.6932C117.992 97.8125 117.834 97.9116 117.64 97.9904C117.446 98.0692 117.214 98.1087 116.943 98.1087ZM117.151 97.3416C117.415 97.3416 117.641 97.2894 117.828 97.185C118.018 97.0806 118.162 96.9442 118.26 96.7759C118.36 96.6055 118.41 96.4233 118.41 96.2294V95.5966C118.376 95.6307 118.31 95.6626 118.212 95.6925C118.116 95.7202 118.006 95.7447 117.883 95.766C117.759 95.7852 117.639 95.8033 117.522 95.8203C117.404 95.8352 117.306 95.848 117.228 95.8587C117.042 95.8821 116.873 95.9215 116.719 95.9769C116.568 96.0323 116.447 96.1122 116.355 96.2166C116.266 96.3189 116.221 96.4553 116.221 96.6257C116.221 96.8622 116.308 97.0412 116.483 97.1626C116.658 97.282 116.88 97.3416 117.151 97.3416ZM125.088 98.0991C124.613 98.0991 124.204 97.9915 123.861 97.7763C123.52 97.5589 123.258 97.2596 123.075 96.8782C122.891 96.4968 122.8 96.06 122.8 95.5678C122.8 95.0692 122.894 94.6293 123.081 94.2479C123.269 93.8643 123.533 93.565 123.874 93.3498C124.215 93.1346 124.616 93.027 125.079 93.027C125.451 93.027 125.784 93.0962 126.076 93.2347C126.368 93.3711 126.603 93.5629 126.782 93.81C126.963 94.0572 127.071 94.3459 127.105 94.6761H126.175C126.124 94.446 126.006 94.2479 125.823 94.0817C125.642 93.9155 125.399 93.8324 125.095 93.8324C124.828 93.8324 124.595 93.9027 124.395 94.0433C124.196 94.1818 124.042 94.38 123.931 94.6378C123.82 94.8935 123.765 95.196 123.765 95.5455C123.765 95.9034 123.819 96.2124 123.928 96.4723C124.037 96.7322 124.19 96.9336 124.388 97.0763C124.589 97.2191 124.824 97.2905 125.095 97.2905C125.276 97.2905 125.44 97.2575 125.587 97.1914C125.736 97.1232 125.861 97.0263 125.961 96.9006C126.063 96.7749 126.134 96.6236 126.175 96.4467H127.105C127.071 96.7642 126.967 97.0476 126.795 97.2969C126.622 97.5462 126.391 97.7422 126.101 97.8849C125.814 98.0277 125.476 98.0991 125.088 98.0991ZM131.237 95.9641V93.0909H132.195V98H131.256V97.1499H131.205C131.092 97.4119 130.911 97.6303 130.661 97.805C130.414 97.9776 130.106 98.0639 129.738 98.0639C129.422 98.0639 129.143 97.9947 128.9 97.8562C128.659 97.7156 128.47 97.5078 128.331 97.233C128.195 96.9581 128.127 96.6183 128.127 96.2134V93.0909H129.082V96.0984C129.082 96.4329 129.175 96.6992 129.36 96.8974C129.546 97.0955 129.787 97.1946 130.083 97.1946C130.262 97.1946 130.44 97.1499 130.616 97.0604C130.795 96.9709 130.944 96.8356 131.061 96.6545C131.18 96.4734 131.239 96.2433 131.237 95.9641ZM137.158 94.2894L136.292 94.4428C136.256 94.332 136.198 94.2266 136.119 94.1264C136.043 94.0263 135.938 93.9442 135.806 93.8803C135.674 93.8164 135.509 93.7844 135.311 93.7844C135.04 93.7844 134.814 93.8452 134.633 93.9666C134.452 94.0859 134.361 94.2404 134.361 94.43C134.361 94.5941 134.422 94.7262 134.544 94.8263C134.665 94.9265 134.861 95.0085 135.132 95.0724L135.911 95.2514C136.363 95.3558 136.7 95.5167 136.921 95.734C137.143 95.9513 137.254 96.2337 137.254 96.581C137.254 96.875 137.169 97.1371 136.998 97.3672C136.83 97.5952 136.594 97.7741 136.292 97.9041C135.991 98.0341 135.643 98.0991 135.247 98.0991C134.697 98.0991 134.248 97.9819 133.901 97.7475C133.554 97.511 133.341 97.1754 133.262 96.7408L134.186 96.6001C134.243 96.8409 134.361 97.0231 134.54 97.1467C134.719 97.2681 134.953 97.3288 135.24 97.3288C135.554 97.3288 135.804 97.2638 135.991 97.1339C136.179 97.0018 136.273 96.8409 136.273 96.6513C136.273 96.4979 136.215 96.369 136.1 96.2646C135.987 96.1602 135.813 96.0813 135.579 96.0281L134.748 95.8459C134.29 95.7415 133.951 95.5753 133.732 95.3473C133.514 95.1193 133.406 94.8306 133.406 94.4812C133.406 94.1914 133.487 93.9379 133.649 93.7205C133.811 93.5032 134.034 93.3338 134.32 93.2124C134.605 93.0888 134.932 93.027 135.301 93.027C135.832 93.027 136.249 93.142 136.554 93.3722C136.859 93.6001 137.06 93.9059 137.158 94.2894ZM140.596 93.0909V93.858H137.915V93.0909H140.596ZM138.634 91.9148H139.589V96.5586C139.589 96.744 139.617 96.8835 139.672 96.9773C139.728 97.0689 139.799 97.1317 139.887 97.1658C139.976 97.1978 140.073 97.2138 140.177 97.2138C140.254 97.2138 140.321 97.2085 140.379 97.1978C140.436 97.1871 140.481 97.1786 140.513 97.1722L140.686 97.9616C140.63 97.983 140.551 98.0043 140.449 98.0256C140.347 98.049 140.219 98.0618 140.066 98.0639C139.814 98.0682 139.58 98.0234 139.362 97.9297C139.145 97.8359 138.969 97.6911 138.835 97.495C138.701 97.299 138.634 97.0529 138.634 96.7567V91.9148ZM143.668 98.0991C143.208 98.0991 142.806 97.9936 142.463 97.7827C142.12 97.5717 141.854 97.2766 141.664 96.8974C141.475 96.5181 141.38 96.0749 141.38 95.5678C141.38 95.0586 141.475 94.6133 141.664 94.2319C141.854 93.8505 142.12 93.5543 142.463 93.3434C142.806 93.1325 143.208 93.027 143.668 93.027C144.128 93.027 144.53 93.1325 144.873 93.3434C145.216 93.5543 145.483 93.8505 145.672 94.2319C145.862 94.6133 145.957 95.0586 145.957 95.5678C145.957 96.0749 145.862 96.5181 145.672 96.8974C145.483 97.2766 145.216 97.5717 144.873 97.7827C144.53 97.9936 144.128 98.0991 143.668 98.0991ZM143.671 97.2969C143.97 97.2969 144.217 97.218 144.413 97.0604C144.609 96.9027 144.754 96.6928 144.848 96.4308C144.943 96.1687 144.991 95.88 144.991 95.5646C144.991 95.2514 144.943 94.9638 144.848 94.7017C144.754 94.4375 144.609 94.2255 144.413 94.0657C144.217 93.9059 143.97 93.826 143.671 93.826C143.371 93.826 143.122 93.9059 142.924 94.0657C142.728 94.2255 142.582 94.4375 142.486 94.7017C142.392 94.9638 142.345 95.2514 142.345 95.5646C142.345 95.88 142.392 96.1687 142.486 96.4308C142.582 96.6928 142.728 96.9027 142.924 97.0604C143.122 97.218 143.371 97.2969 143.671 97.2969ZM147.023 98V93.0909H147.941V93.8899H148.001C148.104 93.6193 148.271 93.4084 148.503 93.2571C148.735 93.1037 149.013 93.027 149.337 93.027C149.665 93.027 149.94 93.1037 150.162 93.2571C150.385 93.4105 150.551 93.6214 150.657 93.8899H150.708C150.825 93.6278 151.012 93.419 151.268 93.2635C151.523 93.1058 151.828 93.027 152.182 93.027C152.627 93.027 152.99 93.1665 153.271 93.4457C153.555 93.7248 153.697 94.1456 153.697 94.7081V98H152.741V94.7976C152.741 94.4652 152.65 94.2244 152.469 94.0753C152.288 93.9261 152.072 93.8516 151.82 93.8516C151.509 93.8516 151.268 93.9474 151.095 94.1392C150.922 94.3288 150.836 94.5728 150.836 94.8711V98H149.884V94.7369C149.884 94.4705 149.801 94.2564 149.634 94.0945C149.468 93.9325 149.252 93.8516 148.986 93.8516C148.805 93.8516 148.637 93.8995 148.484 93.9954C148.333 94.0891 148.21 94.2202 148.116 94.3885C148.025 94.5568 147.979 94.7518 147.979 94.9734V98H147.023ZM159.695 93.0909V93.858H156.921V93.0909H159.695ZM157.682 98V92.522C157.682 92.2152 157.749 91.9606 157.883 91.7582C158.018 91.5536 158.195 91.4013 158.417 91.3011C158.639 91.1989 158.879 91.1477 159.139 91.1477C159.331 91.1477 159.495 91.1637 159.632 91.1957C159.768 91.2255 159.869 91.2532 159.935 91.2788L159.711 92.0522C159.667 92.0394 159.609 92.0245 159.539 92.0075C159.469 91.9883 159.383 91.9787 159.283 91.9787C159.051 91.9787 158.885 92.0362 158.785 92.1513C158.687 92.2663 158.638 92.4325 158.638 92.6499V98H157.682ZM160.681 98V93.0909H161.637V98H160.681ZM161.164 92.3335C160.998 92.3335 160.855 92.2781 160.736 92.1673C160.619 92.0543 160.56 91.9201 160.56 91.7646C160.56 91.6069 160.619 91.4727 160.736 91.3619C160.855 91.2489 160.998 91.1925 161.164 91.1925C161.33 91.1925 161.472 91.2489 161.589 91.3619C161.708 91.4727 161.768 91.6069 161.768 91.7646C161.768 91.9201 161.708 92.0543 161.589 92.1673C161.472 92.2781 161.33 92.3335 161.164 92.3335ZM165.038 98.0991C164.555 98.0991 164.138 97.9957 163.789 97.7891C163.441 97.5803 163.173 97.2873 162.983 96.9102C162.796 96.5309 162.702 96.0866 162.702 95.5774C162.702 95.0746 162.796 94.6314 162.983 94.2479C163.173 93.8643 163.437 93.565 163.776 93.3498C164.117 93.1346 164.515 93.027 164.971 93.027C165.248 93.027 165.517 93.0728 165.777 93.1644C166.037 93.256 166.27 93.3999 166.477 93.5959C166.683 93.7919 166.846 94.0465 166.966 94.3597C167.085 94.6708 167.145 95.049 167.145 95.4943V95.8331H163.242V95.1172H166.208C166.208 94.8658 166.157 94.6431 166.055 94.4492C165.953 94.2532 165.809 94.0987 165.623 93.9858C165.44 93.8729 165.225 93.8164 164.978 93.8164C164.709 93.8164 164.475 93.8825 164.275 94.0146C164.076 94.1445 163.923 94.315 163.814 94.5259C163.708 94.7347 163.655 94.9616 163.655 95.2067V95.766C163.655 96.0941 163.712 96.3732 163.827 96.6033C163.944 96.8335 164.107 97.0092 164.316 97.1307C164.525 97.25 164.769 97.3097 165.048 97.3097C165.229 97.3097 165.394 97.2841 165.543 97.233C165.693 97.1797 165.821 97.1009 165.93 96.9964C166.039 96.892 166.122 96.7631 166.179 96.6097L167.084 96.7727C167.011 97.0391 166.881 97.2724 166.694 97.4727C166.509 97.6708 166.275 97.8253 165.994 97.9361C165.715 98.0447 165.396 98.0991 165.038 98.0991ZM169.161 91.4545V98H168.205V91.4545H169.161ZM172.284 98.0959C171.888 98.0959 171.534 97.9947 171.223 97.7923C170.914 97.5877 170.671 97.2969 170.494 96.9197C170.319 96.5405 170.232 96.0856 170.232 95.555C170.232 95.0245 170.32 94.5707 170.497 94.1935C170.676 93.8164 170.921 93.5277 171.232 93.3274C171.543 93.1271 171.896 93.027 172.29 93.027C172.595 93.027 172.84 93.0781 173.025 93.1804C173.213 93.2805 173.358 93.3977 173.46 93.532C173.564 93.6662 173.645 93.7844 173.703 93.8867H173.76V91.4545H174.716V98H173.783V97.2362H173.703C173.645 97.3406 173.562 97.4599 173.454 97.5941C173.347 97.7283 173.2 97.8455 173.013 97.9457C172.825 98.0458 172.582 98.0959 172.284 98.0959ZM172.495 97.2809C172.77 97.2809 173.002 97.2085 173.191 97.0636C173.383 96.9165 173.528 96.7131 173.626 96.4531C173.726 96.1932 173.776 95.8906 173.776 95.5455C173.776 95.2045 173.727 94.9062 173.629 94.6506C173.531 94.3949 173.388 94.1957 173.198 94.0529C173.008 93.9102 172.774 93.8388 172.495 93.8388C172.207 93.8388 171.967 93.9134 171.776 94.0625C171.584 94.2116 171.439 94.4151 171.341 94.6729C171.245 94.9308 171.197 95.2216 171.197 95.5455C171.197 95.8736 171.246 96.1687 171.344 96.4308C171.442 96.6928 171.587 96.9006 171.779 97.054C171.973 97.2053 172.211 97.2809 172.495 97.2809Z" fill="black"/>
<mask id="mask0_107_2829" style="mask-type:alpha" maskUnits="userSpaceOnUse" x="328" y="88" width="12" height="13">
<rect x="328" y="88.5" width="12" height="12" fill="#D9D9D9"/>
</mask>
<g mask="url(#mask0_107_2829)">
<path d="M331.2 98L330.5 97.3L333.3 94.5L330.5 91.7L331.2 91L334 93.8L336.8 91L337.5 91.7L334.7 94.5L337.5 97.3L336.8 98L334 95.2L331.2 98Z" fill="#1C1B1F"/>
</g>
<path d="M95.3963 120.805V119.955H100.462V120.805H98.4197V126.5H97.4354V120.805H95.3963ZM101.546 128.341C101.403 128.341 101.274 128.329 101.156 128.306C101.039 128.284 100.952 128.261 100.894 128.235L101.124 127.452C101.299 127.499 101.455 127.52 101.591 127.513C101.727 127.507 101.848 127.456 101.952 127.36C102.059 127.264 102.152 127.107 102.233 126.89L102.352 126.564L100.555 121.591H101.578L102.821 125.401H102.873L104.116 121.591H105.142L103.119 127.155C103.025 127.411 102.906 127.627 102.761 127.804C102.616 127.983 102.443 128.117 102.243 128.207C102.043 128.296 101.81 128.341 101.546 128.341ZM106.04 128.341V121.591H106.973V122.387H107.053C107.108 122.284 107.188 122.166 107.293 122.032C107.397 121.898 107.542 121.781 107.727 121.68C107.913 121.578 108.158 121.527 108.462 121.527C108.859 121.527 109.212 121.627 109.524 121.827C109.835 122.028 110.079 122.316 110.255 122.694C110.434 123.071 110.524 123.525 110.524 124.055C110.524 124.586 110.435 125.04 110.259 125.42C110.082 125.797 109.839 126.088 109.53 126.292C109.221 126.495 108.868 126.596 108.472 126.596C108.174 126.596 107.93 126.546 107.74 126.446C107.553 126.346 107.406 126.228 107.299 126.094C107.193 125.96 107.111 125.841 107.053 125.736H106.995V128.341H106.04ZM106.976 124.045C106.976 124.391 107.026 124.693 107.127 124.953C107.227 125.213 107.372 125.417 107.561 125.564C107.751 125.708 107.983 125.781 108.258 125.781C108.543 125.781 108.782 125.705 108.974 125.554C109.166 125.401 109.31 125.193 109.408 124.931C109.509 124.669 109.559 124.374 109.559 124.045C109.559 123.722 109.51 123.431 109.412 123.173C109.316 122.915 109.171 122.712 108.977 122.562C108.785 122.413 108.546 122.339 108.258 122.339C107.981 122.339 107.747 122.41 107.555 122.553C107.365 122.696 107.221 122.895 107.123 123.151C107.025 123.406 106.976 123.705 106.976 124.045ZM113.71 126.599C113.227 126.599 112.81 126.496 112.461 126.289C112.113 126.08 111.845 125.787 111.655 125.41C111.468 125.031 111.374 124.587 111.374 124.077C111.374 123.575 111.468 123.131 111.655 122.748C111.845 122.364 112.109 122.065 112.448 121.85C112.789 121.635 113.187 121.527 113.643 121.527C113.92 121.527 114.189 121.573 114.449 121.664C114.709 121.756 114.942 121.9 115.149 122.096C115.355 122.292 115.518 122.547 115.638 122.86C115.757 123.171 115.816 123.549 115.816 123.994V124.333H111.914V123.617H114.88C114.88 123.366 114.829 123.143 114.727 122.949C114.624 122.753 114.481 122.599 114.295 122.486C114.112 122.373 113.897 122.316 113.65 122.316C113.381 122.316 113.147 122.382 112.946 122.515C112.748 122.645 112.595 122.815 112.486 123.026C112.38 123.235 112.326 123.462 112.326 123.707V124.266C112.326 124.594 112.384 124.873 112.499 125.103C112.616 125.333 112.779 125.509 112.988 125.631C113.197 125.75 113.441 125.81 113.72 125.81C113.901 125.81 114.066 125.784 114.215 125.733C114.364 125.68 114.493 125.601 114.602 125.496C114.711 125.392 114.794 125.263 114.851 125.11L115.756 125.273C115.683 125.539 115.553 125.772 115.366 125.973C115.18 126.171 114.947 126.325 114.666 126.436C114.387 126.545 114.068 126.599 113.71 126.599ZM121.326 126.599C120.866 126.599 120.465 126.494 120.122 126.283C119.778 126.072 119.512 125.777 119.323 125.397C119.133 125.018 119.038 124.575 119.038 124.068C119.038 123.559 119.133 123.113 119.323 122.732C119.512 122.35 119.778 122.054 120.122 121.843C120.465 121.632 120.866 121.527 121.326 121.527C121.787 121.527 122.188 121.632 122.531 121.843C122.874 122.054 123.141 122.35 123.33 122.732C123.52 123.113 123.615 123.559 123.615 124.068C123.615 124.575 123.52 125.018 123.33 125.397C123.141 125.777 122.874 126.072 122.531 126.283C122.188 126.494 121.787 126.599 121.326 126.599ZM121.33 125.797C121.628 125.797 121.875 125.718 122.071 125.56C122.267 125.403 122.412 125.193 122.506 124.931C122.602 124.669 122.65 124.38 122.65 124.065C122.65 123.751 122.602 123.464 122.506 123.202C122.412 122.937 122.267 122.725 122.071 122.566C121.875 122.406 121.628 122.326 121.33 122.326C121.029 122.326 120.78 122.406 120.582 122.566C120.386 122.725 120.24 122.937 120.144 123.202C120.05 123.464 120.003 123.751 120.003 124.065C120.003 124.38 120.05 124.669 120.144 124.931C120.24 125.193 120.386 125.403 120.582 125.56C120.78 125.718 121.029 125.797 121.33 125.797ZM127.018 121.591V122.358H124.244V121.591H127.018ZM125.004 126.5V121.022C125.004 120.715 125.071 120.461 125.206 120.258C125.34 120.054 125.518 119.901 125.739 119.801C125.961 119.699 126.202 119.648 126.462 119.648C126.653 119.648 126.817 119.664 126.954 119.696C127.09 119.725 127.191 119.753 127.257 119.779L127.034 120.552C126.989 120.539 126.931 120.525 126.861 120.507C126.791 120.488 126.706 120.479 126.605 120.479C126.373 120.479 126.207 120.536 126.107 120.651C126.009 120.766 125.96 120.933 125.96 121.15V126.5H125.004ZM132.722 121.591V122.358H129.948V121.591H132.722ZM130.708 126.5V121.022C130.708 120.715 130.775 120.461 130.91 120.258C131.044 120.054 131.222 119.901 131.443 119.801C131.665 119.699 131.906 119.648 132.166 119.648C132.358 119.648 132.522 119.664 132.658 119.696C132.794 119.725 132.896 119.753 132.962 119.779L132.738 120.552C132.693 120.539 132.636 120.525 132.565 120.507C132.495 120.488 132.41 120.479 132.31 120.479C132.077 120.479 131.911 120.536 131.811 120.651C131.713 120.766 131.664 120.933 131.664 121.15V126.5H130.708ZM133.708 126.5V121.591H134.663V126.5H133.708ZM134.19 120.833C134.024 120.833 133.881 120.778 133.762 120.667C133.645 120.554 133.586 120.42 133.586 120.265C133.586 120.107 133.645 119.973 133.762 119.862C133.881 119.749 134.024 119.692 134.19 119.692C134.357 119.692 134.498 119.749 134.616 119.862C134.735 119.973 134.794 120.107 134.794 120.265C134.794 120.42 134.735 120.554 134.616 120.667C134.498 120.778 134.357 120.833 134.19 120.833ZM138.065 126.599C137.581 126.599 137.165 126.496 136.815 126.289C136.468 126.08 136.199 125.787 136.01 125.41C135.822 125.031 135.729 124.587 135.729 124.077C135.729 123.575 135.822 123.131 136.01 122.748C136.199 122.364 136.464 122.065 136.802 121.85C137.143 121.635 137.542 121.527 137.998 121.527C138.275 121.527 138.543 121.573 138.803 121.664C139.063 121.756 139.296 121.9 139.503 122.096C139.71 122.292 139.873 122.547 139.992 122.86C140.111 123.171 140.171 123.549 140.171 123.994V124.333H136.269V123.617H139.235C139.235 123.366 139.183 123.143 139.081 122.949C138.979 122.753 138.835 122.599 138.65 122.486C138.466 122.373 138.251 122.316 138.004 122.316C137.736 122.316 137.501 122.382 137.301 122.515C137.103 122.645 136.949 122.815 136.841 123.026C136.734 123.235 136.681 123.462 136.681 123.707V124.266C136.681 124.594 136.738 124.873 136.854 125.103C136.971 125.333 137.134 125.509 137.343 125.631C137.551 125.75 137.795 125.81 138.074 125.81C138.256 125.81 138.421 125.784 138.57 125.733C138.719 125.68 138.848 125.601 138.956 125.496C139.065 125.392 139.148 125.263 139.206 125.11L140.11 125.273C140.038 125.539 139.908 125.772 139.72 125.973C139.535 126.171 139.302 126.325 139.02 126.436C138.741 126.545 138.423 126.599 138.065 126.599ZM142.187 119.955V126.5H141.231V119.955H142.187ZM145.31 126.596C144.914 126.596 144.56 126.495 144.249 126.292C143.94 126.088 143.697 125.797 143.52 125.42C143.346 125.04 143.258 124.586 143.258 124.055C143.258 123.525 143.347 123.071 143.524 122.694C143.703 122.316 143.948 122.028 144.259 121.827C144.57 121.627 144.922 121.527 145.317 121.527C145.621 121.527 145.866 121.578 146.052 121.68C146.239 121.781 146.384 121.898 146.486 122.032C146.591 122.166 146.672 122.284 146.729 122.387H146.787V119.955H147.742V126.5H146.809V125.736H146.729C146.672 125.841 146.589 125.96 146.48 126.094C146.373 126.228 146.226 126.346 146.039 126.446C145.851 126.546 145.608 126.596 145.31 126.596ZM145.521 125.781C145.796 125.781 146.028 125.708 146.218 125.564C146.41 125.417 146.555 125.213 146.653 124.953C146.753 124.693 146.803 124.391 146.803 124.045C146.803 123.705 146.754 123.406 146.656 123.151C146.558 122.895 146.414 122.696 146.224 122.553C146.035 122.41 145.8 122.339 145.521 122.339C145.233 122.339 144.994 122.413 144.802 122.562C144.61 122.712 144.465 122.915 144.367 123.173C144.271 123.431 144.224 123.722 144.224 124.045C144.224 124.374 144.273 124.669 144.371 124.931C144.469 125.193 144.613 125.401 144.805 125.554C144.999 125.705 145.238 125.781 145.521 125.781Z" fill="black"/>
<rect x="95.25" y="135.75" width="236.5" height="21.5" rx="4.75" stroke="#565656" stroke-width="0.5"/>
<path d="M105.396 144.305V143.455H110.462V144.305H108.42V150H107.435V144.305H105.396ZM112.909 150.099C112.425 150.099 112.008 149.996 111.659 149.789C111.312 149.58 111.043 149.287 110.854 148.91C110.666 148.531 110.572 148.087 110.572 147.577C110.572 147.075 110.666 146.631 110.854 146.248C111.043 145.864 111.307 145.565 111.646 145.35C111.987 145.135 112.385 145.027 112.841 145.027C113.118 145.027 113.387 145.073 113.647 145.164C113.907 145.256 114.14 145.4 114.347 145.596C114.553 145.792 114.716 146.047 114.836 146.36C114.955 146.671 115.015 147.049 115.015 147.494V147.833H111.112V147.117H114.078C114.078 146.866 114.027 146.643 113.925 146.449C113.823 146.253 113.679 146.099 113.493 145.986C113.31 145.873 113.095 145.816 112.848 145.816C112.579 145.816 112.345 145.882 112.145 146.015C111.947 146.145 111.793 146.315 111.684 146.526C111.578 146.735 111.525 146.962 111.525 147.207V147.766C111.525 148.094 111.582 148.373 111.697 148.603C111.814 148.833 111.977 149.009 112.186 149.131C112.395 149.25 112.639 149.31 112.918 149.31C113.099 149.31 113.264 149.284 113.414 149.233C113.563 149.18 113.692 149.101 113.8 148.996C113.909 148.892 113.992 148.763 114.05 148.61L114.954 148.773C114.882 149.039 114.752 149.272 114.564 149.473C114.379 149.671 114.145 149.825 113.864 149.936C113.585 150.045 113.267 150.099 112.909 150.099ZM116.715 145.091L117.798 147.002L118.892 145.091H119.937L118.406 147.545L119.949 150H118.904L117.798 148.165L116.696 150H115.648L117.175 147.545L115.667 145.091H116.715ZM123.209 145.091V145.858H120.528V145.091H123.209ZM121.247 143.915H122.203V148.559C122.203 148.744 122.23 148.884 122.286 148.977C122.341 149.069 122.412 149.132 122.5 149.166C122.589 149.198 122.686 149.214 122.791 149.214C122.867 149.214 122.934 149.208 122.992 149.198C123.05 149.187 123.094 149.179 123.126 149.172L123.299 149.962C123.243 149.983 123.165 150.004 123.062 150.026C122.96 150.049 122.832 150.062 122.679 150.064C122.427 150.068 122.193 150.023 121.976 149.93C121.758 149.836 121.583 149.691 121.448 149.495C121.314 149.299 121.247 149.053 121.247 148.757V143.915Z" fill="#B8B8B8"/>
<mask id="mask1_107_2829" style="mask-type:alpha" maskUnits="userSpaceOnUse" x="310" y="140" width="12" height="13">
<rect x="310" y="140.5" width="12" height="12" fill="#D9D9D9"/>
</mask>
<g mask="url(#mask1_107_2829)">
<path d="M316 148.2L313 145.2L313.7 144.5L316 146.8L318.3 144.5L319 145.2L316 148.2Z" fill="#1C1B1F"/>
</g>
<path d="M95.7191 179.5V172.955H99.7781V173.805H96.7067V175.799H99.4872V176.646H96.7067V179.5H95.7191ZM100.916 179.5V174.591H101.871V179.5H100.916ZM101.398 173.833C101.232 173.833 101.089 173.778 100.97 173.667C100.853 173.554 100.794 173.42 100.794 173.265C100.794 173.107 100.853 172.973 100.97 172.862C101.089 172.749 101.232 172.692 101.398 172.692C101.565 172.692 101.706 172.749 101.824 172.862C101.943 172.973 102.002 173.107 102.002 173.265C102.002 173.42 101.943 173.554 101.824 173.667C101.706 173.778 101.565 173.833 101.398 173.833ZM105.273 179.599C104.789 179.599 104.373 179.496 104.023 179.289C103.676 179.08 103.407 178.787 103.218 178.41C103.03 178.031 102.937 177.587 102.937 177.077C102.937 176.575 103.03 176.131 103.218 175.748C103.407 175.364 103.672 175.065 104.01 174.85C104.351 174.635 104.75 174.527 105.206 174.527C105.483 174.527 105.751 174.573 106.011 174.664C106.271 174.756 106.504 174.9 106.711 175.096C106.918 175.292 107.081 175.547 107.2 175.86C107.319 176.171 107.379 176.549 107.379 176.994V177.333H103.477V176.617H106.443C106.443 176.366 106.391 176.143 106.289 175.949C106.187 175.753 106.043 175.599 105.858 175.486C105.674 175.373 105.459 175.316 105.212 175.316C104.944 175.316 104.709 175.382 104.509 175.515C104.311 175.645 104.157 175.815 104.049 176.026C103.942 176.235 103.889 176.462 103.889 176.707V177.266C103.889 177.594 103.946 177.873 104.062 178.103C104.179 178.333 104.342 178.509 104.551 178.631C104.759 178.75 105.003 178.81 105.282 178.81C105.464 178.81 105.629 178.784 105.778 178.733C105.927 178.68 106.056 178.601 106.165 178.496C106.273 178.392 106.356 178.263 106.414 178.11L107.318 178.273C107.246 178.539 107.116 178.772 106.928 178.973C106.743 179.171 106.51 179.325 106.228 179.436C105.949 179.545 105.631 179.599 105.273 179.599ZM109.395 172.955V179.5H108.439V172.955H109.395ZM112.518 179.596C112.122 179.596 111.768 179.495 111.457 179.292C111.148 179.088 110.905 178.797 110.728 178.42C110.554 178.04 110.466 177.586 110.466 177.055C110.466 176.525 110.555 176.071 110.732 175.694C110.911 175.316 111.156 175.028 111.467 174.827C111.778 174.627 112.13 174.527 112.525 174.527C112.829 174.527 113.074 174.578 113.26 174.68C113.447 174.781 113.592 174.898 113.694 175.032C113.799 175.166 113.88 175.284 113.937 175.387H113.995V172.955H114.95V179.5H114.017V178.736H113.937C113.88 178.841 113.797 178.96 113.688 179.094C113.581 179.228 113.434 179.346 113.247 179.446C113.059 179.546 112.816 179.596 112.518 179.596ZM112.729 178.781C113.004 178.781 113.236 178.708 113.426 178.564C113.618 178.417 113.763 178.213 113.861 177.953C113.961 177.693 114.011 177.391 114.011 177.045C114.011 176.705 113.962 176.406 113.864 176.151C113.766 175.895 113.622 175.696 113.432 175.553C113.243 175.41 113.008 175.339 112.729 175.339C112.441 175.339 112.202 175.413 112.01 175.562C111.818 175.712 111.673 175.915 111.575 176.173C111.479 176.431 111.432 176.722 111.432 177.045C111.432 177.374 111.481 177.669 111.579 177.931C111.677 178.193 111.821 178.401 112.013 178.554C112.207 178.705 112.446 178.781 112.729 178.781ZM118.773 179.5V172.955H119.76V178.65H122.726V179.5H118.773ZM125.205 179.609C124.894 179.609 124.612 179.551 124.361 179.436C124.11 179.319 123.91 179.15 123.763 178.928C123.619 178.706 123.546 178.435 123.546 178.113C123.546 177.836 123.599 177.608 123.706 177.429C123.812 177.25 123.956 177.108 124.137 177.004C124.318 176.9 124.521 176.821 124.745 176.767C124.968 176.714 125.196 176.674 125.429 176.646C125.723 176.612 125.961 176.584 126.144 176.563C126.328 176.539 126.461 176.502 126.544 176.451C126.627 176.4 126.669 176.317 126.669 176.202V176.179C126.669 175.9 126.59 175.684 126.432 175.531C126.277 175.377 126.044 175.3 125.735 175.3C125.414 175.3 125.16 175.372 124.975 175.515C124.791 175.655 124.665 175.812 124.594 175.984L123.696 175.78C123.803 175.482 123.958 175.241 124.163 175.058C124.37 174.872 124.607 174.738 124.876 174.655C125.144 174.57 125.426 174.527 125.723 174.527C125.919 174.527 126.126 174.55 126.346 174.597C126.567 174.642 126.774 174.725 126.966 174.847C127.16 174.968 127.318 175.142 127.442 175.368C127.566 175.591 127.627 175.882 127.627 176.24V179.5H126.694V178.829H126.656C126.594 178.952 126.501 179.074 126.378 179.193C126.254 179.312 126.095 179.412 125.902 179.49C125.708 179.569 125.475 179.609 125.205 179.609ZM125.413 178.842C125.677 178.842 125.903 178.789 126.09 178.685C126.28 178.581 126.424 178.444 126.522 178.276C126.622 178.105 126.672 177.923 126.672 177.729V177.097C126.638 177.131 126.572 177.163 126.474 177.192C126.378 177.22 126.268 177.245 126.144 177.266C126.021 177.285 125.9 177.303 125.783 177.32C125.666 177.335 125.568 177.348 125.489 177.359C125.304 177.382 125.134 177.422 124.981 177.477C124.83 177.532 124.708 177.612 124.617 177.717C124.527 177.819 124.483 177.955 124.483 178.126C124.483 178.362 124.57 178.541 124.745 178.663C124.919 178.782 125.142 178.842 125.413 178.842ZM128.977 179.5V172.955H129.933V175.387H129.99C130.045 175.284 130.125 175.166 130.23 175.032C130.334 174.898 130.479 174.781 130.664 174.68C130.85 174.578 131.095 174.527 131.4 174.527C131.796 174.527 132.15 174.627 132.461 174.827C132.772 175.028 133.016 175.316 133.192 175.694C133.371 176.071 133.461 176.525 133.461 177.055C133.461 177.586 133.373 178.04 133.196 178.42C133.019 178.797 132.776 179.088 132.467 179.292C132.158 179.495 131.805 179.596 131.409 179.596C131.111 179.596 130.867 179.546 130.677 179.446C130.49 179.346 130.343 179.228 130.236 179.094C130.13 178.96 130.048 178.841 129.99 178.736H129.91V179.5H128.977ZM129.913 177.045C129.913 177.391 129.963 177.693 130.064 177.953C130.164 178.213 130.309 178.417 130.498 178.564C130.688 178.708 130.92 178.781 131.195 178.781C131.48 178.781 131.719 178.705 131.911 178.554C132.103 178.401 132.248 178.193 132.346 177.931C132.446 177.669 132.496 177.374 132.496 177.045C132.496 176.722 132.447 176.431 132.349 176.173C132.253 175.915 132.108 175.712 131.914 175.562C131.722 175.413 131.483 175.339 131.195 175.339C130.918 175.339 130.684 175.41 130.492 175.553C130.302 175.696 130.158 175.895 130.06 176.151C129.962 176.406 129.913 176.705 129.913 177.045ZM136.65 179.599C136.166 179.599 135.75 179.496 135.4 179.289C135.053 179.08 134.784 178.787 134.595 178.41C134.407 178.031 134.313 177.587 134.313 177.077C134.313 176.575 134.407 176.131 134.595 175.748C134.784 175.364 135.049 175.065 135.387 174.85C135.728 174.635 136.127 174.527 136.583 174.527C136.86 174.527 137.128 174.573 137.388 174.664C137.648 174.756 137.881 174.9 138.088 175.096C138.295 175.292 138.458 175.547 138.577 175.86C138.696 176.171 138.756 176.549 138.756 176.994V177.333H134.854V176.617H137.82C137.82 176.366 137.768 176.143 137.666 175.949C137.564 175.753 137.42 175.599 137.235 175.486C137.051 175.373 136.836 175.316 136.589 175.316C136.321 175.316 136.086 175.382 135.886 175.515C135.688 175.645 135.534 175.815 135.426 176.026C135.319 176.235 135.266 176.462 135.266 176.707V177.266C135.266 177.594 135.323 177.873 135.438 178.103C135.556 178.333 135.719 178.509 135.927 178.631C136.136 178.75 136.38 178.81 136.659 178.81C136.84 178.81 137.006 178.784 137.155 178.733C137.304 178.68 137.433 178.601 137.541 178.496C137.65 178.392 137.733 178.263 137.791 178.11L138.695 178.273C138.623 178.539 138.493 178.772 138.305 178.973C138.12 179.171 137.887 179.325 137.605 179.436C137.326 179.545 137.008 179.599 136.65 179.599ZM140.772 172.955V179.5H139.816V172.955H140.772Z" fill="black"/>
<rect x="95.25" y="188.75" width="236.5" height="20.5" rx="4.75" stroke="#565656" stroke-width="0.5"/>
<path d="M105.396 196.805V195.955H110.462V196.805H108.42V202.5H107.435V196.805H105.396ZM111.546 204.341C111.403 204.341 111.274 204.329 111.156 204.306C111.039 204.284 110.952 204.261 110.894 204.235L111.124 203.452C111.299 203.499 111.455 203.52 111.591 203.513C111.727 203.507 111.848 203.456 111.952 203.36C112.059 203.264 112.152 203.107 112.233 202.89L112.352 202.564L110.555 197.591H111.578L112.821 201.401H112.873L114.116 197.591H115.142L113.119 203.155C113.025 203.411 112.906 203.627 112.761 203.804C112.616 203.983 112.443 204.117 112.243 204.207C112.043 204.296 111.81 204.341 111.546 204.341ZM116.04 204.341V197.591H116.973V198.387H117.053C117.108 198.284 117.188 198.166 117.293 198.032C117.397 197.898 117.542 197.781 117.727 197.68C117.913 197.578 118.158 197.527 118.462 197.527C118.859 197.527 119.212 197.627 119.524 197.827C119.835 198.028 120.079 198.316 120.255 198.694C120.434 199.071 120.524 199.525 120.524 200.055C120.524 200.586 120.435 201.04 120.259 201.42C120.082 201.797 119.839 202.088 119.53 202.292C119.221 202.495 118.868 202.596 118.472 202.596C118.174 202.596 117.93 202.546 117.74 202.446C117.553 202.346 117.406 202.228 117.299 202.094C117.193 201.96 117.111 201.841 117.053 201.736H116.995V204.341H116.04ZM116.976 200.045C116.976 200.391 117.026 200.693 117.127 200.953C117.227 201.213 117.372 201.417 117.561 201.564C117.751 201.708 117.983 201.781 118.258 201.781C118.543 201.781 118.782 201.705 118.974 201.554C119.166 201.401 119.31 201.193 119.408 200.931C119.509 200.669 119.559 200.374 119.559 200.045C119.559 199.722 119.51 199.431 119.412 199.173C119.316 198.915 119.171 198.712 118.977 198.562C118.785 198.413 118.546 198.339 118.258 198.339C117.981 198.339 117.747 198.41 117.555 198.553C117.365 198.696 117.221 198.895 117.123 199.151C117.025 199.406 116.976 199.705 116.976 200.045ZM123.71 202.599C123.227 202.599 122.81 202.496 122.461 202.289C122.113 202.08 121.845 201.787 121.655 201.41C121.468 201.031 121.374 200.587 121.374 200.077C121.374 199.575 121.468 199.131 121.655 198.748C121.845 198.364 122.109 198.065 122.448 197.85C122.789 197.635 123.187 197.527 123.643 197.527C123.92 197.527 124.189 197.573 124.449 197.664C124.709 197.756 124.942 197.9 125.149 198.096C125.355 198.292 125.518 198.547 125.638 198.86C125.757 199.171 125.816 199.549 125.816 199.994V200.333H121.914V199.617H124.88C124.88 199.366 124.829 199.143 124.727 198.949C124.624 198.753 124.481 198.599 124.295 198.486C124.112 198.373 123.897 198.316 123.65 198.316C123.381 198.316 123.147 198.382 122.946 198.515C122.748 198.645 122.595 198.815 122.486 199.026C122.38 199.235 122.326 199.462 122.326 199.707V200.266C122.326 200.594 122.384 200.873 122.499 201.103C122.616 201.333 122.779 201.509 122.988 201.631C123.197 201.75 123.441 201.81 123.72 201.81C123.901 201.81 124.066 201.784 124.215 201.733C124.364 201.68 124.493 201.601 124.602 201.496C124.711 201.392 124.794 201.263 124.851 201.11L125.756 201.273C125.683 201.539 125.553 201.772 125.366 201.973C125.18 202.171 124.947 202.325 124.666 202.436C124.387 202.545 124.068 202.599 123.71 202.599ZM130.214 199.585V202.5H129.259V195.955H130.201V198.39H130.262C130.377 198.126 130.553 197.916 130.79 197.76C131.026 197.605 131.335 197.527 131.716 197.527C132.053 197.527 132.347 197.596 132.598 197.735C132.852 197.873 133.048 198.08 133.187 198.355C133.327 198.627 133.397 198.968 133.397 199.377V202.5H132.442V199.493C132.442 199.132 132.349 198.853 132.164 198.655C131.978 198.455 131.721 198.355 131.39 198.355C131.165 198.355 130.962 198.403 130.783 198.499C130.606 198.594 130.467 198.735 130.364 198.92C130.264 199.104 130.214 199.325 130.214 199.585ZM136.788 202.599C136.305 202.599 135.888 202.496 135.539 202.289C135.191 202.08 134.923 201.787 134.733 201.41C134.546 201.031 134.452 200.587 134.452 200.077C134.452 199.575 134.546 199.131 134.733 198.748C134.923 198.364 135.187 198.065 135.526 197.85C135.867 197.635 136.265 197.527 136.721 197.527C136.998 197.527 137.267 197.573 137.527 197.664C137.787 197.756 138.02 197.9 138.227 198.096C138.433 198.292 138.596 198.547 138.716 198.86C138.835 199.171 138.895 199.549 138.895 199.994V200.333H134.992V199.617H137.958C137.958 199.366 137.907 199.143 137.805 198.949C137.703 198.753 137.559 198.599 137.373 198.486C137.19 198.373 136.975 198.316 136.728 198.316C136.459 198.316 136.225 198.382 136.025 198.515C135.826 198.645 135.673 198.815 135.564 199.026C135.458 199.235 135.405 199.462 135.405 199.707V200.266C135.405 200.594 135.462 200.873 135.577 201.103C135.694 201.333 135.857 201.509 136.066 201.631C136.275 201.75 136.519 201.81 136.798 201.81C136.979 201.81 137.144 201.784 137.293 201.733C137.443 201.68 137.571 201.601 137.68 201.496C137.789 201.392 137.872 201.263 137.929 201.11L138.834 201.273C138.761 201.539 138.631 201.772 138.444 201.973C138.259 202.171 138.025 202.325 137.744 202.436C137.465 202.545 137.146 202.599 136.788 202.599ZM139.955 202.5V197.591H140.879V198.371H140.93C141.019 198.107 141.177 197.899 141.403 197.748C141.631 197.594 141.888 197.517 142.176 197.517C142.236 197.517 142.306 197.52 142.387 197.524C142.47 197.528 142.535 197.533 142.582 197.54V198.454C142.544 198.443 142.475 198.431 142.377 198.419C142.279 198.404 142.181 198.396 142.083 198.396C141.858 198.396 141.656 198.444 141.479 198.54C141.305 198.634 141.166 198.765 141.064 198.933C140.962 199.099 140.911 199.289 140.911 199.502V202.5H139.955ZM145.349 202.599C144.865 202.599 144.449 202.496 144.099 202.289C143.752 202.08 143.484 201.787 143.294 201.41C143.106 201.031 143.013 200.587 143.013 200.077C143.013 199.575 143.106 199.131 143.294 198.748C143.484 198.364 143.748 198.065 144.087 197.85C144.427 197.635 144.826 197.527 145.282 197.527C145.559 197.527 145.827 197.573 146.087 197.664C146.347 197.756 146.581 197.9 146.787 198.096C146.994 198.292 147.157 198.547 147.276 198.86C147.396 199.171 147.455 199.549 147.455 199.994V200.333H143.553V199.617H146.519C146.519 199.366 146.468 199.143 146.365 198.949C146.263 198.753 146.119 198.599 145.934 198.486C145.751 198.373 145.535 198.316 145.288 198.316C145.02 198.316 144.785 198.382 144.585 198.515C144.387 198.645 144.234 198.815 144.125 199.026C144.018 199.235 143.965 199.462 143.965 199.707V200.266C143.965 200.594 144.023 200.873 144.138 201.103C144.255 201.333 144.418 201.509 144.627 201.631C144.835 201.75 145.079 201.81 145.359 201.81C145.54 201.81 145.705 201.784 145.854 201.733C146.003 201.68 146.132 201.601 146.241 201.496C146.349 201.392 146.432 201.263 146.49 201.11L147.394 201.273C147.322 201.539 147.192 201.772 147.005 201.973C146.819 202.171 146.586 202.325 146.305 202.436C146.025 202.545 145.707 202.599 145.349 202.599Z" fill="#B8B8B8"/>
<rect x="265.5" y="237" width="68.5" height="17.5" rx="5" fill="#D9D9D9"/>
<rect x="191.5" y="237" width="68.5" height="17.5" rx="5" fill="#D9D9D9"/>
<path d="M293.131 249H292.199L294.293 243.182H295.307L297.401 249H296.469L294.824 244.239H294.778L293.131 249ZM293.287 246.722H296.31V247.46H293.287V246.722ZM299.736 249.085C299.384 249.085 299.069 248.995 298.793 248.815C298.518 248.634 298.302 248.375 298.145 248.04C297.99 247.703 297.912 247.298 297.912 246.827C297.912 246.355 297.991 245.952 298.148 245.616C298.307 245.281 298.525 245.025 298.801 244.847C299.078 244.669 299.391 244.58 299.741 244.58C300.012 244.58 300.23 244.625 300.395 244.716C300.562 244.805 300.69 244.909 300.781 245.028C300.874 245.148 300.946 245.253 300.997 245.344H301.048V243.182H301.898V249H301.068V248.321H300.997C300.946 248.414 300.872 248.52 300.776 248.639C300.681 248.759 300.55 248.863 300.384 248.952C300.217 249.041 300.001 249.085 299.736 249.085ZM299.923 248.361C300.168 248.361 300.374 248.296 300.543 248.168C300.713 248.037 300.842 247.856 300.929 247.625C301.018 247.394 301.062 247.125 301.062 246.818C301.062 246.515 301.019 246.25 300.932 246.023C300.845 245.795 300.717 245.618 300.548 245.491C300.38 245.365 300.171 245.301 299.923 245.301C299.668 245.301 299.455 245.367 299.284 245.5C299.114 245.633 298.985 245.813 298.898 246.043C298.813 246.272 298.77 246.53 298.77 246.818C298.77 247.11 298.813 247.372 298.901 247.605C298.988 247.838 299.116 248.023 299.287 248.159C299.459 248.294 299.671 248.361 299.923 248.361ZM304.744 249.085C304.391 249.085 304.077 248.995 303.8 248.815C303.526 248.634 303.31 248.375 303.153 248.04C302.997 247.703 302.92 247.298 302.92 246.827C302.92 246.355 302.998 245.952 303.156 245.616C303.315 245.281 303.532 245.025 303.809 244.847C304.085 244.669 304.399 244.58 304.749 244.58C305.02 244.58 305.238 244.625 305.403 244.716C305.569 244.805 305.698 244.909 305.789 245.028C305.882 245.148 305.954 245.253 306.005 245.344H306.056V243.182H306.906V249H306.076V248.321H306.005C305.954 248.414 305.88 248.52 305.783 248.639C305.689 248.759 305.558 248.863 305.391 248.952C305.225 249.041 305.009 249.085 304.744 249.085ZM304.931 248.361C305.175 248.361 305.382 248.296 305.55 248.168C305.721 248.037 305.85 247.856 305.937 247.625C306.026 247.394 306.07 247.125 306.07 246.818C306.07 246.515 306.027 246.25 305.94 246.023C305.853 245.795 305.725 245.618 305.556 245.491C305.388 245.365 305.179 245.301 304.931 245.301C304.675 245.301 304.462 245.367 304.292 245.5C304.121 245.633 303.993 245.813 303.906 246.043C303.82 246.272 303.778 246.53 303.778 246.818C303.778 247.11 303.821 247.372 303.908 247.605C303.996 247.838 304.124 248.023 304.295 248.159C304.467 248.294 304.679 248.361 304.931 248.361Z" fill="black"/>
<path d="M217.972 245.074H217.085C217.051 244.884 216.988 244.718 216.895 244.574C216.802 244.43 216.688 244.308 216.554 244.207C216.42 244.107 216.269 244.031 216.102 243.98C215.938 243.929 215.762 243.903 215.577 243.903C215.241 243.903 214.941 243.988 214.676 244.156C214.413 244.325 214.205 244.572 214.051 244.898C213.9 245.223 213.824 245.621 213.824 246.091C213.824 246.564 213.9 246.964 214.051 247.29C214.205 247.616 214.414 247.862 214.679 248.028C214.944 248.195 215.242 248.278 215.574 248.278C215.758 248.278 215.932 248.254 216.097 248.205C216.263 248.153 216.414 248.079 216.548 247.98C216.683 247.882 216.796 247.761 216.889 247.619C216.984 247.475 217.049 247.311 217.085 247.125L217.972 247.128C217.924 247.414 217.832 247.677 217.696 247.918C217.562 248.156 217.388 248.363 217.176 248.537C216.966 248.709 216.725 248.843 216.455 248.938C216.184 249.032 215.888 249.08 215.568 249.08C215.064 249.08 214.616 248.96 214.222 248.722C213.828 248.481 213.517 248.137 213.29 247.69C213.064 247.243 212.952 246.71 212.952 246.091C212.952 245.47 213.065 244.937 213.293 244.491C213.52 244.045 213.83 243.702 214.224 243.463C214.618 243.223 215.066 243.102 215.568 243.102C215.877 243.102 216.165 243.147 216.432 243.236C216.701 243.323 216.942 243.452 217.156 243.622C217.37 243.791 217.547 243.997 217.688 244.241C217.828 244.484 217.922 244.761 217.972 245.074ZM220.224 249.097C219.947 249.097 219.697 249.045 219.474 248.943C219.25 248.839 219.073 248.688 218.942 248.491C218.814 248.295 218.749 248.053 218.749 247.767C218.749 247.521 218.797 247.318 218.891 247.159C218.986 247 219.114 246.874 219.275 246.781C219.436 246.688 219.616 246.618 219.815 246.571C220.013 246.524 220.216 246.488 220.423 246.463C220.684 246.433 220.896 246.408 221.059 246.389C221.222 246.368 221.34 246.335 221.414 246.29C221.488 246.244 221.525 246.17 221.525 246.068V246.048C221.525 245.8 221.455 245.608 221.315 245.472C221.176 245.335 220.97 245.267 220.695 245.267C220.409 245.267 220.184 245.33 220.019 245.457C219.856 245.582 219.744 245.722 219.681 245.875L218.883 245.693C218.978 245.428 219.116 245.214 219.298 245.051C219.481 244.886 219.692 244.767 219.931 244.693C220.17 244.617 220.421 244.58 220.684 244.58C220.858 244.58 221.043 244.6 221.238 244.642C221.435 244.682 221.619 244.756 221.789 244.864C221.961 244.972 222.103 245.126 222.212 245.327C222.322 245.526 222.377 245.784 222.377 246.102V249H221.548V248.403H221.513C221.459 248.513 221.376 248.621 221.266 248.727C221.156 248.833 221.015 248.921 220.843 248.991C220.671 249.062 220.464 249.097 220.224 249.097ZM220.408 248.415C220.643 248.415 220.844 248.368 221.011 248.276C221.179 248.183 221.307 248.062 221.394 247.912C221.483 247.76 221.528 247.598 221.528 247.426V246.864C221.497 246.894 221.439 246.922 221.352 246.949C221.266 246.973 221.169 246.995 221.059 247.014C220.949 247.031 220.842 247.047 220.738 247.062C220.634 247.076 220.547 247.087 220.477 247.097C220.312 247.117 220.161 247.152 220.025 247.202C219.89 247.251 219.782 247.322 219.701 247.415C219.621 247.506 219.582 247.627 219.582 247.778C219.582 247.989 219.659 248.148 219.815 248.256C219.97 248.362 220.168 248.415 220.408 248.415ZM224.358 246.409V249H223.509V244.636H224.324V245.347H224.378C224.478 245.116 224.635 244.93 224.849 244.79C225.065 244.65 225.337 244.58 225.665 244.58C225.962 244.58 226.223 244.642 226.446 244.767C226.67 244.89 226.843 245.074 226.966 245.318C227.089 245.562 227.151 245.865 227.151 246.224V249H226.301V246.327C226.301 246.01 226.219 245.763 226.054 245.585C225.889 245.405 225.663 245.315 225.375 245.315C225.178 245.315 225.003 245.358 224.849 245.443C224.698 245.528 224.578 245.653 224.489 245.818C224.402 245.981 224.358 246.178 224.358 246.409ZM230.128 249.088C229.705 249.088 229.342 248.992 229.037 248.801C228.734 248.608 228.501 248.342 228.338 248.003C228.175 247.664 228.094 247.276 228.094 246.838C228.094 246.395 228.177 246.004 228.344 245.665C228.51 245.324 228.745 245.058 229.048 244.866C229.351 244.675 229.708 244.58 230.119 244.58C230.451 244.58 230.746 244.641 231.006 244.764C231.265 244.885 231.474 245.056 231.634 245.276C231.795 245.495 231.89 245.752 231.92 246.045H231.094C231.048 245.841 230.944 245.665 230.781 245.517C230.62 245.369 230.404 245.295 230.134 245.295C229.897 245.295 229.689 245.358 229.511 245.483C229.335 245.606 229.198 245.782 229.099 246.011C229.001 246.239 228.952 246.508 228.952 246.818C228.952 247.136 229 247.411 229.097 247.642C229.193 247.873 229.33 248.052 229.506 248.179C229.684 248.306 229.893 248.369 230.134 248.369C230.295 248.369 230.44 248.34 230.571 248.281C230.704 248.221 230.814 248.134 230.903 248.023C230.994 247.911 231.058 247.777 231.094 247.619H231.92C231.89 247.902 231.798 248.153 231.645 248.375C231.491 248.597 231.286 248.771 231.028 248.898C230.773 249.025 230.473 249.088 230.128 249.088ZM234.71 249.088C234.28 249.088 233.909 248.996 233.599 248.812C233.29 248.627 233.051 248.366 232.883 248.031C232.716 247.694 232.633 247.299 232.633 246.847C232.633 246.4 232.716 246.006 232.883 245.665C233.051 245.324 233.286 245.058 233.587 244.866C233.89 244.675 234.245 244.58 234.65 244.58C234.896 244.58 235.135 244.62 235.366 244.702C235.597 244.783 235.804 244.911 235.988 245.085C236.172 245.259 236.317 245.486 236.423 245.764C236.529 246.041 236.582 246.377 236.582 246.773V247.074H233.113V246.438H235.749C235.749 246.214 235.704 246.016 235.613 245.844C235.522 245.67 235.394 245.532 235.229 245.432C235.067 245.331 234.875 245.281 234.656 245.281C234.417 245.281 234.209 245.34 234.031 245.457C233.854 245.573 233.718 245.724 233.621 245.912C233.527 246.098 233.479 246.299 233.479 246.517V247.014C233.479 247.306 233.531 247.554 233.633 247.759C233.737 247.963 233.882 248.119 234.067 248.227C234.253 248.333 234.47 248.386 234.718 248.386C234.879 248.386 235.026 248.364 235.158 248.318C235.291 248.271 235.406 248.201 235.502 248.108C235.599 248.015 235.673 247.901 235.724 247.764L236.528 247.909C236.463 248.146 236.348 248.353 236.181 248.531C236.016 248.707 235.809 248.845 235.559 248.943C235.311 249.04 235.028 249.088 234.71 249.088ZM238.374 243.182V249H237.524V243.182H238.374Z" fill="black"/>
<rect y="192" width="453" height="141" fill="url(#paint0_linear_107_2829)"/>
</g>
<defs>
<linearGradient id="paint0_linear_107_2829" x1="226.5" y1="192" x2="226.5" y2="333" gradientUnits="userSpaceOnUse">
<stop stop-color="#F2F1F0" stop-opacity="0"/>
<stop offset="0.705507" stop-color="#F2F1F0"/>
</linearGradient>
<clipPath id="clip0_107_2829">
<rect width="435" height="333" rx="11.25" fill="white"/>
</clipPath>
</defs>
</svg>
