<svg width="435" height="333" viewBox="0 0 435 333" fill="none" xmlns="http://www.w3.org/2000/svg">
<g clip-path="url(#clip0_107_2905)">
<rect width="435" height="333" rx="11.25" fill="#F2F1F0"/>
<g clip-path="url(#clip1_107_2905)">
<rect x="32" y="-21" width="372" height="566.5" rx="10" fill="white"/>
<mask id="path-3-inside-1_107_2905" fill="white">
<path d="M56 174.672H378.5V229.75C378.5 232.511 376.261 234.75 373.5 234.75H61C58.2386 234.75 56 232.511 56 229.75V174.672Z"/>
</mask>
<path d="M56 174.672H378.5V229.75C378.5 232.511 376.261 234.75 373.5 234.75H61C58.2386 234.75 56 232.511 56 229.75V174.672Z" fill="#FFFAF1"/>
<path d="M56 174.672H378.5H56M379 229.75C379 232.788 376.538 235.25 373.5 235.25H61C57.9624 235.25 55.5 232.788 55.5 229.75H56.5C56.5 232.235 58.5147 234.25 61 234.25H373.5C375.985 234.25 378 232.235 378 229.75H379ZM61 235.25C57.9624 235.25 55.5 232.788 55.5 229.75V174.672H56.5V229.75C56.5 232.235 58.5147 234.25 61 234.25V235.25ZM379 174.672V229.75C379 232.788 376.538 235.25 373.5 235.25V234.25C375.985 234.25 378 232.235 378 229.75V174.672H379Z" fill="#E4940A" mask="url(#path-3-inside-1_107_2905)"/>
<path d="M103.513 196.136C103.327 196.136 103.157 196.091 103.003 196C102.849 195.908 102.726 195.785 102.634 195.631C102.543 195.477 102.498 195.307 102.498 195.121C102.498 194.933 102.543 194.763 102.634 194.611C102.726 194.457 102.849 194.334 103.003 194.243C103.157 194.151 103.327 194.105 103.513 194.105C103.701 194.105 103.871 194.151 104.024 194.243C104.177 194.334 104.3 194.457 104.391 194.611C104.483 194.763 104.529 194.933 104.529 195.121C104.529 195.307 104.483 195.477 104.391 195.631C104.3 195.785 104.177 195.908 104.024 196C103.871 196.091 103.701 196.136 103.513 196.136ZM109.832 197.004L108.521 192.277H109.271L110.192 195.938H110.236L111.194 192.277H111.937L112.895 195.94H112.939L113.857 192.277H114.61L113.296 197.004H112.578L111.584 193.463H111.547L110.552 197.004H109.832ZM115.895 194.899V197.004H115.205V192.277H115.886V194.036H115.929C116.013 193.845 116.14 193.693 116.31 193.581C116.481 193.469 116.704 193.413 116.98 193.413C117.223 193.413 117.435 193.463 117.617 193.563C117.8 193.663 117.941 193.812 118.042 194.01C118.143 194.207 118.194 194.454 118.194 194.749V197.004H117.504V194.832C117.504 194.572 117.437 194.37 117.303 194.227C117.169 194.083 116.983 194.01 116.744 194.01C116.581 194.01 116.435 194.045 116.306 194.114C116.178 194.183 116.077 194.285 116.003 194.419C115.931 194.551 115.895 194.711 115.895 194.899ZM120.643 197.076C120.294 197.076 119.993 197.001 119.74 196.852C119.49 196.701 119.296 196.489 119.159 196.217C119.023 195.943 118.956 195.622 118.956 195.255C118.956 194.891 119.023 194.571 119.159 194.294C119.296 194.017 119.486 193.801 119.731 193.646C119.977 193.49 120.265 193.413 120.594 193.413C120.794 193.413 120.988 193.446 121.176 193.512C121.364 193.578 121.532 193.682 121.682 193.823C121.831 193.965 121.949 194.149 122.035 194.375C122.121 194.6 122.164 194.873 122.164 195.194V195.439H119.346V194.922H121.488C121.488 194.741 121.451 194.58 121.377 194.44C121.303 194.298 121.199 194.187 121.065 194.105C120.933 194.023 120.778 193.983 120.599 193.983C120.405 193.983 120.236 194.03 120.091 194.126C119.948 194.22 119.837 194.343 119.759 194.495C119.682 194.646 119.643 194.81 119.643 194.987V195.391C119.643 195.628 119.685 195.829 119.768 195.995C119.853 196.162 119.97 196.289 120.121 196.376C120.272 196.462 120.448 196.506 120.65 196.506C120.781 196.506 120.9 196.487 121.008 196.45C121.115 196.412 121.208 196.355 121.287 196.279C121.365 196.204 121.425 196.111 121.467 196L122.12 196.118C122.068 196.31 121.974 196.479 121.839 196.623C121.705 196.766 121.536 196.878 121.333 196.958C121.131 197.036 120.901 197.076 120.643 197.076ZM122.93 197.004V193.459H123.597V194.022H123.634C123.698 193.831 123.812 193.681 123.975 193.572C124.14 193.461 124.326 193.406 124.534 193.406C124.577 193.406 124.628 193.407 124.686 193.41C124.746 193.413 124.793 193.417 124.827 193.422V194.082C124.799 194.074 124.75 194.066 124.679 194.057C124.609 194.046 124.538 194.04 124.467 194.04C124.304 194.04 124.159 194.075 124.031 194.144C123.905 194.212 123.805 194.307 123.731 194.428C123.657 194.548 123.62 194.685 123.62 194.839V197.004H122.93ZM126.826 197.076C126.476 197.076 126.175 197.001 125.923 196.852C125.672 196.701 125.478 196.489 125.341 196.217C125.206 195.943 125.138 195.622 125.138 195.255C125.138 194.891 125.206 194.571 125.341 194.294C125.478 194.017 125.669 193.801 125.914 193.646C126.16 193.49 126.448 193.413 126.777 193.413C126.977 193.413 127.171 193.446 127.359 193.512C127.546 193.578 127.715 193.682 127.864 193.823C128.013 193.965 128.131 194.149 128.217 194.375C128.304 194.6 128.347 194.873 128.347 195.194V195.439H125.528V194.922H127.67C127.67 194.741 127.633 194.58 127.56 194.44C127.486 194.298 127.382 194.187 127.248 194.105C127.116 194.023 126.96 193.983 126.782 193.983C126.588 193.983 126.418 194.03 126.274 194.126C126.131 194.22 126.02 194.343 125.941 194.495C125.865 194.646 125.826 194.81 125.826 194.987V195.391C125.826 195.628 125.868 195.829 125.951 195.995C126.035 196.162 126.153 196.289 126.304 196.376C126.455 196.462 126.631 196.506 126.832 196.506C126.963 196.506 127.082 196.487 127.19 196.45C127.298 196.412 127.391 196.355 127.47 196.279C127.548 196.204 127.608 196.111 127.65 196L128.303 196.118C128.25 196.31 128.157 196.479 128.021 196.623C127.887 196.766 127.719 196.878 127.516 196.958C127.314 197.036 127.084 197.076 126.826 197.076ZM132.16 197.073C131.874 197.073 131.618 197 131.394 196.854C131.17 196.706 130.995 196.496 130.867 196.224C130.741 195.95 130.678 195.622 130.678 195.238C130.678 194.855 130.742 194.527 130.87 194.255C130.999 193.983 131.176 193.774 131.4 193.63C131.625 193.485 131.88 193.413 132.164 193.413C132.385 193.413 132.561 193.449 132.695 193.523C132.831 193.596 132.935 193.68 133.009 193.777C133.085 193.874 133.143 193.96 133.185 194.033H133.226V192.277H133.916V197.004H133.242V196.452H133.185C133.143 196.528 133.083 196.614 133.005 196.711C132.928 196.808 132.822 196.893 132.686 196.965C132.551 197.037 132.375 197.073 132.16 197.073ZM132.312 196.485C132.511 196.485 132.678 196.432 132.815 196.328C132.954 196.222 133.059 196.075 133.129 195.887C133.202 195.699 133.238 195.481 133.238 195.231C133.238 194.985 133.202 194.77 133.132 194.585C133.061 194.4 132.957 194.257 132.82 194.153C132.683 194.05 132.514 193.999 132.312 193.999C132.104 193.999 131.931 194.053 131.793 194.16C131.654 194.268 131.55 194.415 131.479 194.601C131.41 194.787 131.375 194.998 131.375 195.231C131.375 195.468 131.41 195.682 131.481 195.871C131.552 196.06 131.657 196.21 131.795 196.321C131.935 196.43 132.108 196.485 132.312 196.485ZM134.901 197.004V193.459H135.592V197.004H134.901ZM135.25 192.912C135.13 192.912 135.027 192.872 134.941 192.792C134.856 192.71 134.814 192.613 134.814 192.501C134.814 192.387 134.856 192.29 134.941 192.21C135.027 192.128 135.13 192.088 135.25 192.088C135.37 192.088 135.472 192.128 135.557 192.21C135.643 192.29 135.686 192.387 135.686 192.501C135.686 192.613 135.643 192.71 135.557 192.792C135.472 192.872 135.37 192.912 135.25 192.912ZM137.847 197.073C137.561 197.073 137.306 197 137.081 196.854C136.858 196.706 136.682 196.496 136.555 196.224C136.429 195.95 136.365 195.622 136.365 195.238C136.365 194.855 136.429 194.527 136.557 194.255C136.686 193.983 136.863 193.774 137.088 193.63C137.313 193.485 137.567 193.413 137.852 193.413C138.072 193.413 138.249 193.449 138.383 193.523C138.518 193.596 138.623 193.68 138.697 193.777C138.772 193.874 138.831 193.96 138.872 194.033H138.914V192.277H139.604V197.004H138.93V196.452H138.872C138.831 196.528 138.771 196.614 138.692 196.711C138.615 196.808 138.509 196.893 138.374 196.965C138.238 197.037 138.063 197.073 137.847 197.073ZM138 196.485C138.198 196.485 138.366 196.432 138.503 196.328C138.641 196.222 138.746 196.075 138.817 195.887C138.889 195.699 138.925 195.481 138.925 195.231C138.925 194.985 138.89 194.77 138.819 194.585C138.748 194.4 138.644 194.257 138.508 194.153C138.371 194.05 138.201 193.999 138 193.999C137.792 193.999 137.619 194.053 137.48 194.16C137.342 194.268 137.237 194.415 137.166 194.601C137.097 194.787 137.063 194.998 137.063 195.231C137.063 195.468 137.098 195.682 137.169 195.871C137.24 196.06 137.344 196.21 137.483 196.321C137.623 196.43 137.795 196.485 138 196.485ZM142.745 198.334C142.642 198.334 142.548 198.325 142.464 198.308C142.379 198.293 142.316 198.276 142.275 198.258L142.441 197.692C142.567 197.726 142.679 197.74 142.778 197.736C142.876 197.731 142.963 197.694 143.039 197.625C143.116 197.556 143.183 197.443 143.242 197.286L143.327 197.05L142.03 193.459H142.769L143.666 196.21H143.703L144.601 193.459H145.342L143.881 197.477C143.813 197.662 143.727 197.818 143.623 197.946C143.518 198.075 143.393 198.172 143.249 198.237C143.104 198.301 142.936 198.334 142.745 198.334ZM147.364 197.076C147.031 197.076 146.741 197 146.493 196.847C146.246 196.695 146.053 196.482 145.916 196.208C145.779 195.934 145.711 195.614 145.711 195.248C145.711 194.88 145.779 194.558 145.916 194.283C146.053 194.007 146.246 193.793 146.493 193.641C146.741 193.489 147.031 193.413 147.364 193.413C147.696 193.413 147.986 193.489 148.234 193.641C148.482 193.793 148.674 194.007 148.811 194.283C148.948 194.558 149.016 194.88 149.016 195.248C149.016 195.614 148.948 195.934 148.811 196.208C148.674 196.482 148.482 196.695 148.234 196.847C147.986 197 147.696 197.076 147.364 197.076ZM147.366 196.496C147.581 196.496 147.76 196.439 147.901 196.326C148.043 196.212 148.148 196.06 148.215 195.871C148.285 195.682 148.319 195.473 148.319 195.245C148.319 195.019 148.285 194.811 148.215 194.622C148.148 194.431 148.043 194.278 147.901 194.163C147.76 194.047 147.581 193.99 147.366 193.99C147.149 193.99 146.969 194.047 146.826 194.163C146.684 194.278 146.579 194.431 146.51 194.622C146.442 194.811 146.408 195.019 146.408 195.245C146.408 195.473 146.442 195.682 146.51 195.871C146.579 196.06 146.684 196.212 146.826 196.326C146.969 196.439 147.149 196.496 147.366 196.496ZM152.033 195.534V193.459H152.725V197.004H152.046V196.39H152.01C151.928 196.579 151.797 196.737 151.617 196.863C151.439 196.988 151.216 197.05 150.95 197.05C150.722 197.05 150.521 197 150.345 196.9C150.171 196.799 150.034 196.649 149.934 196.45C149.836 196.252 149.787 196.006 149.787 195.714V193.459H150.477V195.631C150.477 195.872 150.544 196.065 150.678 196.208C150.812 196.351 150.985 196.422 151.199 196.422C151.329 196.422 151.457 196.39 151.585 196.326C151.714 196.261 151.821 196.163 151.906 196.032C151.992 195.902 152.034 195.735 152.033 195.534ZM157.06 193.459V194.013H155.056V193.459H157.06ZM155.606 197.004V193.048C155.606 192.826 155.654 192.642 155.751 192.496C155.848 192.348 155.977 192.238 156.137 192.166C156.297 192.092 156.471 192.055 156.658 192.055C156.797 192.055 156.915 192.067 157.014 192.09C157.112 192.111 157.185 192.131 157.233 192.15L157.072 192.709C157.039 192.699 156.998 192.689 156.947 192.676C156.896 192.662 156.835 192.655 156.762 192.655C156.594 192.655 156.474 192.697 156.402 192.78C156.331 192.863 156.296 192.983 156.296 193.14V197.004H155.606ZM157.772 197.004V193.459H158.462V197.004H157.772ZM158.121 192.912C158.001 192.912 157.897 192.872 157.811 192.792C157.727 192.71 157.684 192.613 157.684 192.501C157.684 192.387 157.727 192.29 157.811 192.21C157.897 192.128 158.001 192.088 158.121 192.088C158.241 192.088 158.343 192.128 158.428 192.21C158.514 192.29 158.557 192.387 158.557 192.501C158.557 192.613 158.514 192.71 158.428 192.792C158.343 192.872 158.241 192.912 158.121 192.912ZM160.081 194.899V197.004H159.391V193.459H160.053V194.036H160.097C160.179 193.848 160.306 193.697 160.48 193.583C160.656 193.469 160.876 193.413 161.143 193.413C161.384 193.413 161.596 193.463 161.777 193.565C161.959 193.665 162.1 193.814 162.2 194.013C162.3 194.211 162.35 194.457 162.35 194.749V197.004H161.66V194.832C161.66 194.575 161.593 194.374 161.459 194.23C161.325 194.083 161.141 194.01 160.907 194.01C160.747 194.01 160.605 194.045 160.48 194.114C160.357 194.183 160.259 194.285 160.187 194.419C160.116 194.551 160.081 194.711 160.081 194.899ZM164.603 197.073C164.316 197.073 164.061 197 163.836 196.854C163.613 196.706 163.438 196.496 163.31 196.224C163.184 195.95 163.121 195.622 163.121 195.238C163.121 194.855 163.185 194.527 163.312 194.255C163.442 193.983 163.619 193.774 163.843 193.63C164.068 193.485 164.323 193.413 164.607 193.413C164.827 193.413 165.004 193.449 165.138 193.523C165.274 193.596 165.378 193.68 165.452 193.777C165.528 193.874 165.586 193.96 165.628 194.033H165.669V192.277H166.359V197.004H165.685V196.452H165.628C165.586 196.528 165.526 196.614 165.448 196.711C165.371 196.808 165.264 196.893 165.129 196.965C164.994 197.037 164.818 197.073 164.603 197.073ZM164.755 196.485C164.954 196.485 165.121 196.432 165.258 196.328C165.397 196.222 165.501 196.075 165.572 195.887C165.645 195.699 165.681 195.481 165.681 195.231C165.681 194.985 165.645 194.77 165.574 194.585C165.504 194.4 165.4 194.257 165.263 194.153C165.126 194.05 164.957 193.999 164.755 193.999C164.547 193.999 164.374 194.053 164.236 194.16C164.097 194.268 163.993 194.415 163.922 194.601C163.853 194.787 163.818 194.998 163.818 195.231C163.818 195.468 163.853 195.682 163.924 195.871C163.995 196.06 164.1 196.21 164.238 196.321C164.378 196.43 164.55 196.485 164.755 196.485ZM170.72 193.459V194.013H168.783V193.459H170.72ZM169.302 192.609H169.992V195.963C169.992 196.097 170.012 196.198 170.052 196.266C170.092 196.332 170.144 196.377 170.207 196.402C170.272 196.425 170.342 196.436 170.417 196.436C170.473 196.436 170.521 196.432 170.563 196.425C170.604 196.417 170.636 196.411 170.66 196.406L170.784 196.976C170.744 196.992 170.687 197.007 170.613 197.023C170.54 197.04 170.447 197.049 170.336 197.05C170.155 197.053 169.986 197.021 169.829 196.953C169.672 196.886 169.545 196.781 169.448 196.639C169.351 196.498 169.302 196.32 169.302 196.106V192.609ZM172.249 194.899V197.004H171.559V192.277H172.24V194.036H172.284C172.367 193.845 172.494 193.693 172.665 193.581C172.836 193.469 173.059 193.413 173.334 193.413C173.577 193.413 173.79 193.463 173.971 193.563C174.154 193.663 174.296 193.812 174.396 194.01C174.498 194.207 174.548 194.454 174.548 194.749V197.004H173.858V194.832C173.858 194.572 173.791 194.37 173.657 194.227C173.523 194.083 173.337 194.01 173.099 194.01C172.936 194.01 172.789 194.045 172.66 194.114C172.532 194.183 172.432 194.285 172.358 194.419C172.285 194.551 172.249 194.711 172.249 194.899ZM175.469 197.004V193.459H176.159V197.004H175.469ZM175.818 192.912C175.698 192.912 175.595 192.872 175.509 192.792C175.424 192.71 175.382 192.613 175.382 192.501C175.382 192.387 175.424 192.29 175.509 192.21C175.595 192.128 175.698 192.088 175.818 192.088C175.938 192.088 176.04 192.128 176.125 192.21C176.211 192.29 176.254 192.387 176.254 192.501C176.254 192.613 176.211 192.71 176.125 192.792C176.04 192.872 175.938 192.912 175.818 192.912ZM179.745 194.324L179.119 194.435C179.093 194.355 179.052 194.279 178.995 194.207C178.939 194.134 178.864 194.075 178.768 194.029C178.673 193.983 178.554 193.96 178.411 193.96C178.215 193.96 178.052 194.003 177.921 194.091C177.79 194.177 177.725 194.289 177.725 194.426C177.725 194.544 177.769 194.64 177.857 194.712C177.944 194.784 178.086 194.844 178.281 194.89L178.845 195.019C179.171 195.094 179.414 195.211 179.574 195.368C179.734 195.525 179.814 195.728 179.814 195.979C179.814 196.192 179.752 196.381 179.629 196.547C179.508 196.712 179.338 196.841 179.119 196.935C178.902 197.029 178.651 197.076 178.364 197.076C177.967 197.076 177.643 196.991 177.393 196.822C177.142 196.651 176.988 196.409 176.931 196.095L177.598 195.993C177.64 196.167 177.725 196.299 177.854 196.388C177.984 196.476 178.152 196.519 178.36 196.519C178.586 196.519 178.767 196.472 178.902 196.379C179.038 196.283 179.105 196.167 179.105 196.03C179.105 195.919 179.064 195.826 178.981 195.751C178.899 195.675 178.774 195.618 178.604 195.58L178.004 195.448C177.674 195.373 177.429 195.253 177.27 195.088C177.113 194.924 177.035 194.715 177.035 194.463C177.035 194.253 177.093 194.07 177.21 193.913C177.327 193.756 177.489 193.634 177.695 193.546C177.901 193.457 178.137 193.413 178.404 193.413C178.787 193.413 179.088 193.496 179.309 193.662C179.529 193.826 179.674 194.047 179.745 194.324ZM183.821 197.076C183.472 197.076 183.171 197.001 182.919 196.852C182.668 196.701 182.474 196.489 182.337 196.217C182.201 195.943 182.134 195.622 182.134 195.255C182.134 194.891 182.201 194.571 182.337 194.294C182.474 194.017 182.665 193.801 182.909 193.646C183.156 193.49 183.443 193.413 183.773 193.413C183.973 193.413 184.167 193.446 184.354 193.512C184.542 193.578 184.711 193.682 184.86 193.823C185.009 193.965 185.127 194.149 185.213 194.375C185.299 194.6 185.342 194.873 185.342 195.194V195.439H182.524V194.922H184.666C184.666 194.741 184.629 194.58 184.555 194.44C184.481 194.298 184.377 194.187 184.244 194.105C184.111 194.023 183.956 193.983 183.777 193.983C183.583 193.983 183.414 194.03 183.269 194.126C183.126 194.22 183.016 194.343 182.937 194.495C182.86 194.646 182.822 194.81 182.822 194.987V195.391C182.822 195.628 182.863 195.829 182.946 195.995C183.031 196.162 183.149 196.289 183.299 196.376C183.45 196.462 183.626 196.506 183.828 196.506C183.959 196.506 184.078 196.487 184.186 196.45C184.294 196.412 184.387 196.355 184.465 196.279C184.544 196.204 184.604 196.111 184.645 196L185.298 196.118C185.246 196.31 185.152 196.479 185.017 196.623C184.883 196.766 184.714 196.878 184.511 196.958C184.31 197.036 184.08 197.076 183.821 197.076ZM189.039 193.459L187.754 197.004H187.015L185.727 193.459H186.468L187.366 196.187H187.403L188.299 193.459H189.039ZM189.688 197.004V193.459H190.378V197.004H189.688ZM190.037 192.912C189.917 192.912 189.813 192.872 189.727 192.792C189.643 192.71 189.6 192.613 189.6 192.501C189.6 192.387 189.643 192.29 189.727 192.21C189.813 192.128 189.917 192.088 190.037 192.088C190.157 192.088 190.259 192.128 190.344 192.21C190.43 192.29 190.473 192.387 190.473 192.501C190.473 192.613 190.43 192.71 190.344 192.792C190.259 192.872 190.157 192.912 190.037 192.912ZM192.634 197.073C192.348 197.073 192.092 197 191.868 196.854C191.645 196.706 191.469 196.496 191.341 196.224C191.215 195.95 191.152 195.622 191.152 195.238C191.152 194.855 191.216 194.527 191.344 194.255C191.473 193.983 191.65 193.774 191.875 193.63C192.099 193.485 192.354 193.413 192.639 193.413C192.859 193.413 193.036 193.449 193.169 193.523C193.305 193.596 193.41 193.68 193.483 193.777C193.559 193.874 193.617 193.96 193.659 194.033H193.7V192.277H194.391V197.004H193.717V196.452H193.659C193.617 196.528 193.557 196.614 193.479 196.711C193.402 196.808 193.296 196.893 193.16 196.965C193.025 197.037 192.849 197.073 192.634 197.073ZM192.786 196.485C192.985 196.485 193.153 196.432 193.29 196.328C193.428 196.222 193.533 196.075 193.603 195.887C193.676 195.699 193.712 195.481 193.712 195.231C193.712 194.985 193.677 194.77 193.606 194.585C193.535 194.4 193.431 194.257 193.294 194.153C193.157 194.05 192.988 193.999 192.786 193.999C192.579 193.999 192.405 194.053 192.267 194.16C192.128 194.268 192.024 194.415 191.953 194.601C191.884 194.787 191.849 194.998 191.849 195.231C191.849 195.468 191.885 195.682 191.955 195.871C192.026 196.06 192.131 196.21 192.269 196.321C192.409 196.43 192.582 196.485 192.786 196.485ZM196.904 197.076C196.554 197.076 196.253 197.001 196.001 196.852C195.75 196.701 195.556 196.489 195.419 196.217C195.284 195.943 195.216 195.622 195.216 195.255C195.216 194.891 195.284 194.571 195.419 194.294C195.556 194.017 195.747 193.801 195.992 193.646C196.238 193.49 196.526 193.413 196.855 193.413C197.055 193.413 197.249 193.446 197.437 193.512C197.625 193.578 197.793 193.682 197.942 193.823C198.092 193.965 198.209 194.149 198.295 194.375C198.382 194.6 198.425 194.873 198.425 195.194V195.439H195.606V194.922H197.748C197.748 194.741 197.712 194.58 197.638 194.44C197.564 194.298 197.46 194.187 197.326 194.105C197.194 194.023 197.038 193.983 196.86 193.983C196.666 193.983 196.497 194.03 196.352 194.126C196.209 194.22 196.098 194.343 196.02 194.495C195.943 194.646 195.904 194.81 195.904 194.987V195.391C195.904 195.628 195.946 195.829 196.029 195.995C196.113 196.162 196.231 196.289 196.382 196.376C196.533 196.462 196.709 196.506 196.911 196.506C197.041 196.506 197.161 196.487 197.268 196.45C197.376 196.412 197.469 196.355 197.548 196.279C197.626 196.204 197.686 196.111 197.728 196L198.381 196.118C198.329 196.31 198.235 196.479 198.099 196.623C197.965 196.766 197.797 196.878 197.594 196.958C197.392 197.036 197.162 197.076 196.904 197.076ZM199.881 194.899V197.004H199.191V193.459H199.853V194.036H199.897C199.978 193.848 200.106 193.697 200.28 193.583C200.455 193.469 200.676 193.413 200.942 193.413C201.184 193.413 201.396 193.463 201.577 193.565C201.759 193.665 201.9 193.814 202 194.013C202.1 194.211 202.15 194.457 202.15 194.749V197.004H201.46V194.832C201.46 194.575 201.393 194.374 201.259 194.23C201.125 194.083 200.941 194.01 200.707 194.01C200.547 194.01 200.405 194.045 200.28 194.114C200.157 194.183 200.059 194.285 199.987 194.419C199.916 194.551 199.881 194.711 199.881 194.899ZM204.569 197.076C204.226 197.076 203.93 196.998 203.682 196.843C203.436 196.686 203.247 196.469 203.115 196.194C202.982 195.919 202.916 195.603 202.916 195.248C202.916 194.887 202.984 194.57 203.119 194.294C203.255 194.017 203.445 193.801 203.692 193.646C203.938 193.49 204.228 193.413 204.562 193.413C204.831 193.413 205.071 193.463 205.282 193.563C205.493 193.661 205.663 193.8 205.792 193.978C205.923 194.157 206.001 194.365 206.025 194.604H205.354C205.317 194.437 205.232 194.294 205.1 194.174C204.969 194.054 204.793 193.994 204.573 193.994C204.381 193.994 204.212 194.045 204.068 194.147C203.925 194.247 203.813 194.39 203.733 194.576C203.653 194.761 203.613 194.979 203.613 195.231C203.613 195.49 203.652 195.713 203.731 195.901C203.809 196.089 203.92 196.234 204.063 196.337C204.208 196.44 204.378 196.492 204.573 196.492C204.704 196.492 204.823 196.468 204.929 196.42C205.037 196.371 205.127 196.301 205.199 196.21C205.273 196.119 205.324 196.01 205.354 195.882H206.025C206.001 196.112 205.926 196.316 205.801 196.496C205.677 196.676 205.51 196.818 205.3 196.921C205.093 197.024 204.849 197.076 204.569 197.076ZM208.291 197.076C207.942 197.076 207.641 197.001 207.389 196.852C207.138 196.701 206.944 196.489 206.807 196.217C206.672 195.943 206.604 195.622 206.604 195.255C206.604 194.891 206.672 194.571 206.807 194.294C206.944 194.017 207.135 193.801 207.38 193.646C207.626 193.49 207.914 193.413 208.243 193.413C208.443 193.413 208.637 193.446 208.825 193.512C209.012 193.578 209.181 193.682 209.33 193.823C209.479 193.965 209.597 194.149 209.683 194.375C209.769 194.6 209.812 194.873 209.812 195.194V195.439H206.994V194.922H209.136C209.136 194.741 209.099 194.58 209.025 194.44C208.951 194.298 208.848 194.187 208.714 194.105C208.581 194.023 208.426 193.983 208.247 193.983C208.054 193.983 207.884 194.03 207.74 194.126C207.597 194.22 207.486 194.343 207.407 194.495C207.33 194.646 207.292 194.81 207.292 194.987V195.391C207.292 195.628 207.333 195.829 207.417 195.995C207.501 196.162 207.619 196.289 207.77 196.376C207.92 196.462 208.097 196.506 208.298 196.506C208.429 196.506 208.548 196.487 208.656 196.45C208.764 196.412 208.857 196.355 208.935 196.279C209.014 196.204 209.074 196.111 209.115 196L209.769 196.118C209.716 196.31 209.622 196.479 209.487 196.623C209.353 196.766 209.185 196.878 208.981 196.958C208.78 197.036 208.55 197.076 208.291 197.076ZM211.333 195.645V195.601C211.336 195.315 211.365 195.087 211.418 194.918C211.474 194.748 211.552 194.611 211.654 194.507C211.755 194.402 211.878 194.307 212.021 194.22C212.113 194.162 212.196 194.097 212.27 194.024C212.344 193.952 212.402 193.869 212.446 193.775C212.489 193.681 212.51 193.577 212.51 193.463C212.51 193.326 212.478 193.208 212.413 193.108C212.349 193.008 212.262 192.931 212.155 192.877C212.049 192.822 211.93 192.794 211.799 192.794C211.681 192.794 211.568 192.819 211.46 192.868C211.352 192.917 211.263 192.994 211.192 193.099C211.121 193.202 211.081 193.335 211.07 193.498H210.368C210.379 193.221 210.449 192.987 210.578 192.796C210.707 192.604 210.878 192.458 211.091 192.36C211.305 192.261 211.541 192.212 211.799 192.212C212.082 192.212 212.33 192.265 212.543 192.372C212.755 192.476 212.92 192.623 213.036 192.812C213.155 193 213.214 193.219 213.214 193.47C213.214 193.643 213.187 193.798 213.133 193.937C213.08 194.073 213.003 194.196 212.903 194.304C212.804 194.411 212.686 194.507 212.547 194.59C212.416 194.671 212.31 194.756 212.229 194.844C212.149 194.931 212.09 195.035 212.053 195.155C212.016 195.275 211.996 195.424 211.993 195.601V195.645H211.333ZM211.682 197.048C211.555 197.048 211.447 197.003 211.356 196.914C211.265 196.823 211.22 196.714 211.22 196.586C211.22 196.46 211.265 196.352 211.356 196.263C211.447 196.172 211.555 196.127 211.682 196.127C211.806 196.127 211.914 196.172 212.005 196.263C212.097 196.352 212.143 196.46 212.143 196.586C212.143 196.671 212.122 196.749 212.079 196.819C212.037 196.889 211.982 196.944 211.912 196.986C211.843 197.027 211.766 197.048 211.682 197.048ZM103.513 204.136C103.327 204.136 103.157 204.091 103.003 204C102.849 203.908 102.726 203.785 102.634 203.631C102.543 203.477 102.498 203.307 102.498 203.121C102.498 202.933 102.543 202.763 102.634 202.611C102.726 202.457 102.849 202.334 103.003 202.243C103.157 202.151 103.327 202.105 103.513 202.105C103.701 202.105 103.871 202.151 104.024 202.243C104.177 202.334 104.3 202.457 104.391 202.611C104.483 202.763 104.529 202.933 104.529 203.121C104.529 203.307 104.483 203.477 104.391 203.631C104.3 203.785 104.177 203.908 104.024 204C103.871 204.091 103.701 204.136 103.513 204.136ZM108.906 205.004V200.277H109.619V202.331H111.976V200.277H112.692V205.004H111.976V202.943H109.619V205.004H108.906ZM115.168 205.076C114.836 205.076 114.546 205 114.298 204.847C114.05 204.695 113.858 204.482 113.721 204.208C113.584 203.934 113.516 203.614 113.516 203.248C113.516 202.88 113.584 202.558 113.721 202.283C113.858 202.007 114.05 201.793 114.298 201.641C114.546 201.489 114.836 201.413 115.168 201.413C115.501 201.413 115.791 201.489 116.039 201.641C116.286 201.793 116.479 202.007 116.616 202.283C116.753 202.558 116.821 202.88 116.821 203.248C116.821 203.614 116.753 203.934 116.616 204.208C116.479 204.482 116.286 204.695 116.039 204.847C115.791 205 115.501 205.076 115.168 205.076ZM115.171 204.496C115.386 204.496 115.565 204.439 115.706 204.326C115.848 204.212 115.952 204.06 116.02 203.871C116.089 203.682 116.124 203.473 116.124 203.245C116.124 203.019 116.089 202.811 116.02 202.622C115.952 202.431 115.848 202.278 115.706 202.163C115.565 202.047 115.386 201.99 115.171 201.99C114.954 201.99 114.774 202.047 114.631 202.163C114.489 202.278 114.384 202.431 114.314 202.622C114.247 202.811 114.213 203.019 114.213 203.245C114.213 203.473 114.247 203.682 114.314 203.871C114.384 204.06 114.489 204.212 114.631 204.326C114.774 204.439 114.954 204.496 115.171 204.496ZM118.252 205.004L117.209 201.459H117.922L118.617 204.062H118.651L119.349 201.459H120.062L120.754 204.051H120.789L121.479 201.459H122.192L121.151 205.004H120.447L119.727 202.444H119.674L118.954 205.004H118.252ZM125.895 205.073C125.608 205.073 125.353 205 125.128 204.854C124.905 204.706 124.73 204.496 124.602 204.224C124.476 203.95 124.413 203.622 124.413 203.238C124.413 202.855 124.477 202.527 124.604 202.255C124.734 201.983 124.911 201.774 125.135 201.63C125.36 201.485 125.615 201.413 125.899 201.413C126.119 201.413 126.296 201.449 126.43 201.523C126.566 201.596 126.67 201.68 126.744 201.777C126.82 201.874 126.878 201.96 126.92 202.033H126.961V200.277H127.651V205.004H126.977V204.452H126.92C126.878 204.528 126.818 204.614 126.74 204.711C126.663 204.808 126.556 204.893 126.421 204.965C126.286 205.037 126.11 205.073 125.895 205.073ZM126.047 204.485C126.246 204.485 126.413 204.432 126.55 204.328C126.689 204.222 126.793 204.075 126.864 203.887C126.936 203.699 126.973 203.481 126.973 203.231C126.973 202.985 126.937 202.77 126.866 202.585C126.796 202.4 126.692 202.257 126.555 202.153C126.418 202.05 126.249 201.999 126.047 201.999C125.839 201.999 125.666 202.053 125.528 202.16C125.389 202.268 125.285 202.415 125.214 202.601C125.145 202.787 125.11 202.998 125.11 203.231C125.11 203.468 125.145 203.682 125.216 203.871C125.287 204.06 125.392 204.21 125.53 204.321C125.67 204.43 125.842 204.485 126.047 204.485ZM128.636 205.004V201.459H129.326V205.004H128.636ZM128.985 200.912C128.865 200.912 128.762 200.872 128.676 200.792C128.591 200.71 128.549 200.613 128.549 200.501C128.549 200.387 128.591 200.29 128.676 200.21C128.762 200.128 128.865 200.088 128.985 200.088C129.105 200.088 129.207 200.128 129.292 200.21C129.378 200.29 129.421 200.387 129.421 200.501C129.421 200.613 129.378 200.71 129.292 200.792C129.207 200.872 129.105 200.912 128.985 200.912ZM131.582 205.073C131.296 205.073 131.041 205 130.816 204.854C130.593 204.706 130.417 204.496 130.29 204.224C130.163 203.95 130.1 203.622 130.1 203.238C130.1 202.855 130.164 202.527 130.292 202.255C130.421 201.983 130.598 201.774 130.823 201.63C131.047 201.485 131.302 201.413 131.587 201.413C131.807 201.413 131.984 201.449 132.118 201.523C132.253 201.596 132.358 201.68 132.432 201.777C132.507 201.874 132.566 201.96 132.607 202.033H132.649V200.277H133.339V205.004H132.665V204.452H132.607C132.566 204.528 132.506 204.614 132.427 204.711C132.35 204.808 132.244 204.893 132.108 204.965C131.973 205.037 131.798 205.073 131.582 205.073ZM131.735 204.485C131.933 204.485 132.101 204.432 132.238 204.328C132.376 204.222 132.481 204.075 132.552 203.887C132.624 203.699 132.66 203.481 132.66 203.231C132.66 202.985 132.625 202.77 132.554 202.585C132.483 202.4 132.379 202.257 132.242 202.153C132.105 202.05 131.936 201.999 131.735 201.999C131.527 201.999 131.354 202.053 131.215 202.16C131.077 202.268 130.972 202.415 130.901 202.601C130.832 202.787 130.797 202.998 130.797 203.231C130.797 203.468 130.833 203.682 130.904 203.871C130.974 204.06 131.079 204.21 131.218 204.321C131.358 204.43 131.53 204.485 131.735 204.485ZM136.48 206.334C136.377 206.334 136.283 206.325 136.199 206.308C136.114 206.293 136.051 206.276 136.009 206.258L136.176 205.692C136.302 205.726 136.414 205.74 136.513 205.736C136.611 205.731 136.698 205.694 136.773 205.625C136.85 205.556 136.918 205.443 136.977 205.286L137.062 205.05L135.765 201.459H136.503L137.401 204.21H137.438L138.336 201.459H139.077L137.616 205.477C137.548 205.662 137.462 205.818 137.357 205.946C137.253 206.075 137.128 206.172 136.983 206.237C136.839 206.301 136.671 206.334 136.48 206.334ZM141.098 205.076C140.766 205.076 140.476 205 140.228 204.847C139.981 204.695 139.788 204.482 139.651 204.208C139.514 203.934 139.446 203.614 139.446 203.248C139.446 202.88 139.514 202.558 139.651 202.283C139.788 202.007 139.981 201.793 140.228 201.641C140.476 201.489 140.766 201.413 141.098 201.413C141.431 201.413 141.721 201.489 141.969 201.641C142.216 201.793 142.409 202.007 142.546 202.283C142.683 202.558 142.751 202.88 142.751 203.248C142.751 203.614 142.683 203.934 142.546 204.208C142.409 204.482 142.216 204.695 141.969 204.847C141.721 205 141.431 205.076 141.098 205.076ZM141.101 204.496C141.316 204.496 141.495 204.439 141.636 204.326C141.778 204.212 141.883 204.06 141.95 203.871C142.019 203.682 142.054 203.473 142.054 203.245C142.054 203.019 142.019 202.811 141.95 202.622C141.883 202.431 141.778 202.278 141.636 202.163C141.495 202.047 141.316 201.99 141.101 201.99C140.884 201.99 140.704 202.047 140.561 202.163C140.419 202.278 140.314 202.431 140.244 202.622C140.177 202.811 140.143 203.019 140.143 203.245C140.143 203.473 140.177 203.682 140.244 203.871C140.314 204.06 140.419 204.212 140.561 204.326C140.704 204.439 140.884 204.496 141.101 204.496ZM145.767 203.534V201.459H146.46V205.004H145.781V204.39H145.744C145.663 204.579 145.532 204.737 145.352 204.863C145.174 204.988 144.951 205.05 144.685 205.05C144.457 205.05 144.256 205 144.08 204.9C143.906 204.799 143.769 204.649 143.669 204.45C143.571 204.252 143.522 204.006 143.522 203.714V201.459H144.212V203.631C144.212 203.872 144.279 204.065 144.413 204.208C144.546 204.351 144.72 204.422 144.934 204.422C145.063 204.422 145.192 204.39 145.32 204.326C145.449 204.261 145.556 204.163 145.641 204.032C145.727 203.902 145.769 203.735 145.767 203.534ZM150.795 201.459V202.013H148.791V201.459H150.795ZM149.341 205.004V201.048C149.341 200.826 149.389 200.642 149.486 200.496C149.583 200.348 149.711 200.238 149.872 200.166C150.032 200.092 150.205 200.055 150.393 200.055C150.532 200.055 150.65 200.067 150.749 200.09C150.847 200.111 150.92 200.131 150.968 200.15L150.806 200.709C150.774 200.699 150.733 200.689 150.682 200.676C150.631 200.662 150.569 200.655 150.497 200.655C150.329 200.655 150.209 200.697 150.137 200.78C150.066 200.863 150.031 200.983 150.031 201.14V205.004H149.341ZM151.507 205.004V201.459H152.197V205.004H151.507ZM151.855 200.912C151.735 200.912 151.632 200.872 151.546 200.792C151.462 200.71 151.419 200.613 151.419 200.501C151.419 200.387 151.462 200.29 151.546 200.21C151.632 200.128 151.735 200.088 151.855 200.088C151.975 200.088 152.078 200.128 152.162 200.21C152.249 200.29 152.292 200.387 152.292 200.501C152.292 200.613 152.249 200.71 152.162 200.792C152.078 200.872 151.975 200.912 151.855 200.912ZM153.816 202.899V205.004H153.126V201.459H153.788V202.036H153.832C153.913 201.848 154.041 201.697 154.215 201.583C154.39 201.469 154.611 201.413 154.878 201.413C155.119 201.413 155.331 201.463 155.512 201.565C155.694 201.665 155.835 201.814 155.935 202.013C156.035 202.211 156.085 202.457 156.085 202.749V205.004H155.395V202.832C155.395 202.575 155.328 202.374 155.194 202.23C155.06 202.083 154.876 202.01 154.642 202.01C154.482 202.01 154.34 202.045 154.215 202.114C154.092 202.183 153.994 202.285 153.922 202.419C153.851 202.551 153.816 202.711 153.816 202.899ZM158.338 205.073C158.051 205.073 157.796 205 157.571 204.854C157.348 204.706 157.173 204.496 157.045 204.224C156.919 203.95 156.856 203.622 156.856 203.238C156.856 202.855 156.92 202.527 157.047 202.255C157.177 201.983 157.354 201.774 157.578 201.63C157.803 201.485 158.058 201.413 158.342 201.413C158.562 201.413 158.739 201.449 158.873 201.523C159.009 201.596 159.113 201.68 159.187 201.777C159.262 201.874 159.321 201.96 159.362 202.033H159.404V200.277H160.094V205.004H159.42V204.452H159.362C159.321 204.528 159.261 204.614 159.182 204.711C159.105 204.808 158.999 204.893 158.864 204.965C158.728 205.037 158.553 205.073 158.338 205.073ZM158.49 204.485C158.688 204.485 158.856 204.432 158.993 204.328C159.132 204.222 159.236 204.075 159.307 203.887C159.379 203.699 159.416 203.481 159.416 203.231C159.416 202.985 159.38 202.77 159.309 202.585C159.239 202.4 159.135 202.257 158.998 202.153C158.861 202.05 158.692 201.999 158.49 201.999C158.282 201.999 158.109 202.053 157.971 202.16C157.832 202.268 157.727 202.415 157.657 202.601C157.587 202.787 157.553 202.998 157.553 203.231C157.553 203.468 157.588 203.682 157.659 203.871C157.73 204.06 157.834 204.21 157.973 204.321C158.113 204.43 158.285 204.485 158.49 204.485ZM164.454 201.459V202.013H162.518V201.459H164.454ZM163.037 200.609H163.727V203.963C163.727 204.097 163.747 204.198 163.787 204.266C163.827 204.332 163.879 204.377 163.942 204.402C164.007 204.425 164.077 204.436 164.152 204.436C164.207 204.436 164.256 204.432 164.297 204.425C164.339 204.417 164.371 204.411 164.394 204.406L164.519 204.976C164.479 204.992 164.422 205.007 164.348 205.023C164.274 205.04 164.182 205.049 164.071 205.05C163.89 205.053 163.72 205.021 163.563 204.953C163.406 204.886 163.28 204.781 163.183 204.639C163.086 204.498 163.037 204.32 163.037 204.106V200.609ZM165.984 202.899V205.004H165.294V200.277H165.975V202.036H166.019C166.102 201.845 166.229 201.693 166.4 201.581C166.57 201.469 166.794 201.413 167.069 201.413C167.312 201.413 167.525 201.463 167.706 201.563C167.889 201.663 168.031 201.812 168.131 202.01C168.232 202.207 168.283 202.454 168.283 202.749V205.004H167.593V202.832C167.593 202.572 167.526 202.37 167.392 202.227C167.258 202.083 167.072 202.01 166.834 202.01C166.671 202.01 166.524 202.045 166.395 202.114C166.267 202.183 166.167 202.285 166.093 202.419C166.02 202.551 165.984 202.711 165.984 202.899ZM169.204 205.004V201.459H169.894V205.004H169.204ZM169.553 200.912C169.433 200.912 169.33 200.872 169.243 200.792C169.159 200.71 169.116 200.613 169.116 200.501C169.116 200.387 169.159 200.29 169.243 200.21C169.33 200.128 169.433 200.088 169.553 200.088C169.673 200.088 169.775 200.128 169.86 200.21C169.946 200.29 169.989 200.387 169.989 200.501C169.989 200.613 169.946 200.71 169.86 200.792C169.775 200.872 169.673 200.912 169.553 200.912ZM173.48 202.324L172.854 202.435C172.828 202.355 172.786 202.279 172.729 202.207C172.674 202.134 172.599 202.075 172.503 202.029C172.408 201.983 172.289 201.96 172.145 201.96C171.95 201.96 171.787 202.003 171.656 202.091C171.525 202.177 171.46 202.289 171.46 202.426C171.46 202.544 171.504 202.64 171.591 202.712C171.679 202.784 171.821 202.844 172.016 202.89L172.579 203.019C172.906 203.094 173.149 203.211 173.309 203.368C173.469 203.525 173.549 203.728 173.549 203.979C173.549 204.192 173.487 204.381 173.364 204.547C173.243 204.712 173.073 204.841 172.854 204.935C172.637 205.029 172.386 205.076 172.099 205.076C171.702 205.076 171.378 204.991 171.128 204.822C170.877 204.651 170.723 204.409 170.666 204.095L171.333 203.993C171.375 204.167 171.46 204.299 171.589 204.388C171.718 204.476 171.887 204.519 172.095 204.519C172.321 204.519 172.502 204.472 172.637 204.379C172.773 204.283 172.84 204.167 172.84 204.03C172.84 203.919 172.799 203.826 172.716 203.751C172.634 203.675 172.509 203.618 172.339 203.58L171.739 203.448C171.408 203.373 171.164 203.253 171.005 203.088C170.848 202.924 170.77 202.715 170.77 202.463C170.77 202.253 170.828 202.07 170.945 201.913C171.062 201.756 171.224 201.634 171.43 201.546C171.636 201.457 171.872 201.413 172.139 201.413C172.522 201.413 172.823 201.496 173.043 201.662C173.263 201.826 173.409 202.047 173.48 202.324ZM177.556 205.076C177.207 205.076 176.906 205.001 176.653 204.852C176.403 204.701 176.209 204.489 176.072 204.217C175.936 203.943 175.869 203.622 175.869 203.255C175.869 202.891 175.936 202.571 176.072 202.294C176.209 202.017 176.4 201.801 176.644 201.646C176.89 201.49 177.178 201.413 177.508 201.413C177.708 201.413 177.901 201.446 178.089 201.512C178.277 201.578 178.445 201.682 178.595 201.823C178.744 201.965 178.862 202.149 178.948 202.375C179.034 202.6 179.077 202.873 179.077 203.194V203.439H176.259V202.922H178.401C178.401 202.741 178.364 202.58 178.29 202.44C178.216 202.298 178.112 202.187 177.978 202.105C177.846 202.023 177.691 201.983 177.512 201.983C177.318 201.983 177.149 202.03 177.004 202.126C176.861 202.22 176.75 202.343 176.672 202.495C176.595 202.646 176.557 202.81 176.557 202.987V203.391C176.557 203.628 176.598 203.829 176.681 203.995C176.766 204.162 176.884 204.289 177.034 204.376C177.185 204.462 177.361 204.506 177.563 204.506C177.694 204.506 177.813 204.487 177.921 204.45C178.028 204.412 178.121 204.355 178.2 204.279C178.278 204.204 178.338 204.111 178.38 204L179.033 204.118C178.981 204.31 178.887 204.479 178.752 204.623C178.618 204.766 178.449 204.878 178.246 204.958C178.045 205.036 177.814 205.076 177.556 205.076ZM182.774 201.459L181.489 205.004H180.75L179.462 201.459H180.203L181.101 204.187H181.138L182.033 201.459H182.774ZM183.423 205.004V201.459H184.113V205.004H183.423ZM183.771 200.912C183.651 200.912 183.548 200.872 183.462 200.792C183.378 200.71 183.335 200.613 183.335 200.501C183.335 200.387 183.378 200.29 183.462 200.21C183.548 200.128 183.651 200.088 183.771 200.088C183.892 200.088 183.994 200.128 184.078 200.21C184.165 200.29 184.208 200.387 184.208 200.501C184.208 200.613 184.165 200.71 184.078 200.792C183.994 200.872 183.892 200.912 183.771 200.912ZM186.369 205.073C186.083 205.073 185.827 205 185.602 204.854C185.379 204.706 185.204 204.496 185.076 204.224C184.95 203.95 184.887 203.622 184.887 203.238C184.887 202.855 184.951 202.527 185.079 202.255C185.208 201.983 185.385 201.774 185.609 201.63C185.834 201.485 186.089 201.413 186.373 201.413C186.593 201.413 186.77 201.449 186.904 201.523C187.04 201.596 187.144 201.68 187.218 201.777C187.294 201.874 187.352 201.96 187.394 202.033H187.435V200.277H188.125V205.004H187.451V204.452H187.394C187.352 204.528 187.292 204.614 187.214 204.711C187.137 204.808 187.031 204.893 186.895 204.965C186.76 205.037 186.584 205.073 186.369 205.073ZM186.521 204.485C186.72 204.485 186.887 204.432 187.024 204.328C187.163 204.222 187.268 204.075 187.338 203.887C187.411 203.699 187.447 203.481 187.447 203.231C187.447 202.985 187.411 202.77 187.341 202.585C187.27 202.4 187.166 202.257 187.029 202.153C186.892 202.05 186.723 201.999 186.521 201.999C186.313 201.999 186.14 202.053 186.002 202.16C185.863 202.268 185.759 202.415 185.688 202.601C185.619 202.787 185.584 202.998 185.584 203.231C185.584 203.468 185.619 203.682 185.69 203.871C185.761 204.06 185.866 204.21 186.004 204.321C186.144 204.43 186.317 204.485 186.521 204.485ZM190.638 205.076C190.289 205.076 189.988 205.001 189.736 204.852C189.485 204.701 189.291 204.489 189.154 204.217C189.019 203.943 188.951 203.622 188.951 203.255C188.951 202.891 189.019 202.571 189.154 202.294C189.291 202.017 189.482 201.801 189.727 201.646C189.973 201.49 190.261 201.413 190.59 201.413C190.79 201.413 190.984 201.446 191.172 201.512C191.359 201.578 191.528 201.682 191.677 201.823C191.826 201.965 191.944 202.149 192.03 202.375C192.117 202.6 192.16 202.873 192.16 203.194V203.439H189.341V202.922H191.483C191.483 202.741 191.446 202.58 191.373 202.44C191.299 202.298 191.195 202.187 191.061 202.105C190.929 202.023 190.773 201.983 190.595 201.983C190.401 201.983 190.231 202.03 190.087 202.126C189.944 202.22 189.833 202.343 189.754 202.495C189.677 202.646 189.639 202.81 189.639 202.987V203.391C189.639 203.628 189.681 203.829 189.764 203.995C189.848 204.162 189.966 204.289 190.117 204.376C190.268 204.462 190.444 204.506 190.645 204.506C190.776 204.506 190.895 204.487 191.003 204.45C191.111 204.412 191.204 204.355 191.282 204.279C191.361 204.204 191.421 204.111 191.463 204L192.116 204.118C192.063 204.31 191.97 204.479 191.834 204.623C191.7 204.766 191.532 204.878 191.329 204.958C191.127 205.036 190.897 205.076 190.638 205.076ZM193.616 202.899V205.004H192.925V201.459H193.588V202.036H193.632C193.713 201.848 193.841 201.697 194.015 201.583C194.19 201.469 194.411 201.413 194.677 201.413C194.919 201.413 195.131 201.463 195.312 201.565C195.494 201.665 195.634 201.814 195.735 202.013C195.835 202.211 195.885 202.457 195.885 202.749V205.004H195.194V202.832C195.194 202.575 195.127 202.374 194.994 202.23C194.86 202.083 194.676 202.01 194.442 202.01C194.282 202.01 194.14 202.045 194.015 202.114C193.892 202.183 193.794 202.285 193.722 202.419C193.651 202.551 193.616 202.711 193.616 202.899ZM198.304 205.076C197.96 205.076 197.665 204.998 197.417 204.843C197.171 204.686 196.982 204.469 196.849 204.194C196.717 203.919 196.651 203.603 196.651 203.248C196.651 202.887 196.719 202.57 196.854 202.294C196.989 202.017 197.18 201.801 197.426 201.646C197.673 201.49 197.963 201.413 198.297 201.413C198.566 201.413 198.806 201.463 199.017 201.563C199.228 201.661 199.398 201.8 199.527 201.978C199.658 202.157 199.735 202.365 199.76 202.604H199.088C199.051 202.437 198.967 202.294 198.834 202.174C198.704 202.054 198.528 201.994 198.308 201.994C198.116 201.994 197.947 202.045 197.803 202.147C197.66 202.247 197.548 202.39 197.468 202.576C197.388 202.761 197.348 202.979 197.348 203.231C197.348 203.49 197.387 203.713 197.466 203.901C197.544 204.089 197.655 204.234 197.798 204.337C197.943 204.44 198.113 204.492 198.308 204.492C198.439 204.492 198.557 204.468 198.664 204.42C198.771 204.371 198.861 204.301 198.934 204.21C199.008 204.119 199.059 204.01 199.088 203.882H199.76C199.735 204.112 199.661 204.316 199.536 204.496C199.412 204.676 199.245 204.818 199.035 204.921C198.828 205.024 198.584 205.076 198.304 205.076ZM202.026 205.076C201.677 205.076 201.376 205.001 201.124 204.852C200.873 204.701 200.679 204.489 200.542 204.217C200.407 203.943 200.339 203.622 200.339 203.255C200.339 202.891 200.407 202.571 200.542 202.294C200.679 202.017 200.87 201.801 201.114 201.646C201.361 201.49 201.648 201.413 201.978 201.413C202.178 201.413 202.372 201.446 202.559 201.512C202.747 201.578 202.916 201.682 203.065 201.823C203.214 201.965 203.332 202.149 203.418 202.375C203.504 202.6 203.547 202.873 203.547 203.194V203.439H200.729V202.922H202.871C202.871 202.741 202.834 202.58 202.76 202.44C202.686 202.298 202.582 202.187 202.449 202.105C202.316 202.023 202.161 201.983 201.982 201.983C201.788 201.983 201.619 202.03 201.475 202.126C201.331 202.22 201.221 202.343 201.142 202.495C201.065 202.646 201.027 202.81 201.027 202.987V203.391C201.027 203.628 201.068 203.829 201.151 203.995C201.236 204.162 201.354 204.289 201.505 204.376C201.655 204.462 201.832 204.506 202.033 204.506C202.164 204.506 202.283 204.487 202.391 204.45C202.499 204.412 202.592 204.355 202.67 204.279C202.749 204.204 202.809 204.111 202.85 204L203.503 204.118C203.451 204.31 203.357 204.479 203.222 204.623C203.088 204.766 202.919 204.878 202.716 204.958C202.515 205.036 202.285 205.076 202.026 205.076ZM205.068 203.645V203.601C205.071 203.315 205.099 203.087 205.153 202.918C205.209 202.748 205.287 202.611 205.389 202.507C205.49 202.402 205.613 202.307 205.756 202.22C205.848 202.162 205.931 202.097 206.005 202.024C206.079 201.952 206.137 201.869 206.18 201.775C206.224 201.681 206.245 201.577 206.245 201.463C206.245 201.326 206.213 201.208 206.148 201.108C206.083 201.008 205.997 200.931 205.89 200.877C205.783 200.822 205.665 200.794 205.534 200.794C205.416 200.794 205.303 200.819 205.195 200.868C205.087 200.917 204.998 200.994 204.927 201.099C204.856 201.202 204.816 201.335 204.805 201.498H204.103C204.114 201.221 204.184 200.987 204.313 200.796C204.442 200.604 204.613 200.458 204.826 200.36C205.039 200.261 205.276 200.212 205.534 200.212C205.817 200.212 206.065 200.265 206.277 200.372C206.49 200.476 206.654 200.623 206.771 200.812C206.89 201 206.949 201.219 206.949 201.47C206.949 201.643 206.922 201.798 206.868 201.937C206.814 202.073 206.737 202.196 206.637 202.304C206.539 202.411 206.42 202.507 206.282 202.59C206.151 202.671 206.045 202.756 205.963 202.844C205.883 202.931 205.825 203.035 205.788 203.155C205.751 203.275 205.731 203.424 205.728 203.601V203.645H205.068ZM205.416 205.048C205.29 205.048 205.182 205.003 205.091 204.914C205 204.823 204.955 204.714 204.955 204.586C204.955 204.46 205 204.352 205.091 204.263C205.182 204.172 205.29 204.127 205.416 204.127C205.541 204.127 205.649 204.172 205.74 204.263C205.832 204.352 205.878 204.46 205.878 204.586C205.878 204.671 205.857 204.749 205.813 204.819C205.772 204.889 205.716 204.944 205.647 204.986C205.578 205.027 205.501 205.048 205.416 205.048ZM103.513 212.136C103.327 212.136 103.157 212.091 103.003 212C102.849 211.908 102.726 211.785 102.634 211.631C102.543 211.477 102.498 211.307 102.498 211.121C102.498 210.933 102.543 210.763 102.634 210.611C102.726 210.457 102.849 210.334 103.003 210.243C103.157 210.151 103.327 210.105 103.513 210.105C103.701 210.105 103.871 210.151 104.024 210.243C104.177 210.334 104.3 210.457 104.391 210.611C104.483 210.763 104.529 210.933 104.529 211.121C104.529 211.307 104.483 211.477 104.391 211.631C104.3 211.785 104.177 211.908 104.024 212C103.871 212.091 103.701 212.136 103.513 212.136ZM109.832 213.004L108.521 208.277H109.271L110.192 211.938H110.236L111.194 208.277H111.937L112.895 211.94H112.939L113.857 208.277H114.61L113.296 213.004H112.578L111.584 209.463H111.547L110.552 213.004H109.832ZM115.895 210.899V213.004H115.205V208.277H115.886V210.036H115.929C116.013 209.845 116.14 209.693 116.31 209.581C116.481 209.469 116.704 209.413 116.98 209.413C117.223 209.413 117.435 209.463 117.617 209.563C117.8 209.663 117.941 209.812 118.042 210.01C118.143 210.207 118.194 210.454 118.194 210.749V213.004H117.504V210.832C117.504 210.572 117.437 210.37 117.303 210.227C117.169 210.083 116.983 210.01 116.744 210.01C116.581 210.01 116.435 210.045 116.306 210.114C116.178 210.183 116.077 210.285 116.003 210.419C115.931 210.551 115.895 210.711 115.895 210.899ZM120.147 213.083C119.922 213.083 119.719 213.041 119.537 212.958C119.356 212.873 119.212 212.751 119.106 212.591C119.001 212.431 118.949 212.235 118.949 212.002C118.949 211.802 118.987 211.638 119.064 211.508C119.141 211.379 119.245 211.277 119.376 211.201C119.506 211.126 119.653 211.069 119.814 211.031C119.976 210.992 120.14 210.963 120.308 210.943C120.521 210.918 120.693 210.898 120.825 210.883C120.958 210.866 121.054 210.839 121.114 210.802C121.174 210.765 121.204 210.705 121.204 210.622V210.606C121.204 210.404 121.147 210.248 121.033 210.137C120.921 210.027 120.753 209.971 120.53 209.971C120.297 209.971 120.114 210.023 119.98 210.126C119.848 210.227 119.757 210.34 119.706 210.465L119.057 210.317C119.134 210.102 119.246 209.928 119.394 209.796C119.543 209.662 119.715 209.565 119.909 209.505C120.103 209.443 120.307 209.413 120.521 209.413C120.662 209.413 120.812 209.429 120.971 209.463C121.131 209.496 121.28 209.556 121.418 209.643C121.558 209.731 121.673 209.856 121.762 210.02C121.852 210.181 121.896 210.391 121.896 210.65V213.004H121.222V212.519H121.195C121.15 212.609 121.083 212.696 120.994 212.783C120.904 212.869 120.79 212.94 120.65 212.997C120.51 213.054 120.342 213.083 120.147 213.083ZM120.297 212.529C120.487 212.529 120.651 212.491 120.786 212.416C120.923 212.34 121.027 212.242 121.098 212.12C121.17 211.997 121.206 211.865 121.206 211.725V211.268C121.181 211.293 121.134 211.316 121.063 211.338C120.994 211.358 120.914 211.375 120.825 211.391C120.736 211.405 120.649 211.418 120.564 211.43C120.48 211.441 120.409 211.45 120.352 211.458C120.218 211.475 120.096 211.503 119.985 211.543C119.876 211.583 119.788 211.641 119.722 211.716C119.657 211.79 119.625 211.889 119.625 212.012C119.625 212.182 119.688 212.312 119.814 212.399C119.94 212.486 120.101 212.529 120.297 212.529ZM124.471 209.459V210.013H122.534V209.459H124.471ZM123.053 208.609H123.743V211.963C123.743 212.097 123.763 212.198 123.803 212.266C123.843 212.332 123.895 212.377 123.958 212.402C124.023 212.425 124.093 212.436 124.168 212.436C124.224 212.436 124.272 212.432 124.314 212.425C124.355 212.417 124.387 212.411 124.411 212.406L124.535 212.976C124.495 212.992 124.438 213.007 124.364 213.023C124.29 213.04 124.198 213.049 124.087 213.05C123.906 213.053 123.737 213.021 123.58 212.953C123.423 212.886 123.296 212.781 123.199 212.639C123.102 212.498 123.053 212.32 123.053 212.106V208.609ZM127.723 213.004L126.68 209.459H127.393L128.088 212.062H128.122L128.819 209.459H129.532L130.225 212.051H130.26L130.95 209.459H131.663L130.622 213.004H129.918L129.198 210.444H129.145L128.425 213.004H127.723ZM133.35 213.083C133.125 213.083 132.922 213.041 132.74 212.958C132.559 212.873 132.415 212.751 132.309 212.591C132.204 212.431 132.152 212.235 132.152 212.002C132.152 211.802 132.19 211.638 132.267 211.508C132.344 211.379 132.448 211.277 132.579 211.201C132.71 211.126 132.856 211.069 133.017 211.031C133.179 210.992 133.344 210.963 133.511 210.943C133.724 210.918 133.896 210.898 134.028 210.883C134.161 210.866 134.257 210.839 134.317 210.802C134.377 210.765 134.407 210.705 134.407 210.622V210.606C134.407 210.404 134.35 210.248 134.236 210.137C134.124 210.027 133.956 209.971 133.733 209.971C133.501 209.971 133.317 210.023 133.184 210.126C133.051 210.227 132.96 210.34 132.909 210.465L132.26 210.317C132.337 210.102 132.45 209.928 132.597 209.796C132.747 209.662 132.918 209.565 133.112 209.505C133.306 209.443 133.51 209.413 133.724 209.413C133.865 209.413 134.015 209.429 134.174 209.463C134.334 209.496 134.483 209.556 134.622 209.643C134.762 209.731 134.876 209.856 134.966 210.02C135.055 210.181 135.099 210.391 135.099 210.65V213.004H134.425V212.519H134.398C134.353 212.609 134.286 212.696 134.197 212.783C134.108 212.869 133.993 212.94 133.853 212.997C133.713 213.054 133.545 213.083 133.35 213.083ZM133.5 212.529C133.691 212.529 133.854 212.491 133.989 212.416C134.126 212.34 134.23 212.242 134.301 212.12C134.373 211.997 134.409 211.865 134.409 211.725V211.268C134.385 211.293 134.337 211.316 134.266 211.338C134.197 211.358 134.118 211.375 134.028 211.391C133.939 211.405 133.852 211.418 133.768 211.43C133.683 211.441 133.612 211.45 133.555 211.458C133.421 211.475 133.299 211.503 133.188 211.543C133.079 211.583 132.991 211.641 132.925 211.716C132.86 211.79 132.828 211.889 132.828 212.012C132.828 212.182 132.891 212.312 133.017 212.399C133.144 212.486 133.304 212.529 133.5 212.529ZM138.675 210.324L138.05 210.435C138.024 210.355 137.982 210.279 137.925 210.207C137.87 210.134 137.794 210.075 137.699 210.029C137.604 209.983 137.484 209.96 137.341 209.96C137.146 209.96 136.983 210.003 136.852 210.091C136.721 210.177 136.656 210.289 136.656 210.426C136.656 210.544 136.7 210.64 136.787 210.712C136.875 210.784 137.017 210.844 137.212 210.89L137.775 211.019C138.101 211.094 138.345 211.211 138.505 211.368C138.665 211.525 138.745 211.728 138.745 211.979C138.745 212.192 138.683 212.381 138.56 212.547C138.438 212.712 138.268 212.841 138.05 212.935C137.833 213.029 137.581 213.076 137.295 213.076C136.898 213.076 136.574 212.991 136.323 212.822C136.073 212.651 135.919 212.409 135.862 212.095L136.529 211.993C136.57 212.167 136.656 212.299 136.785 212.388C136.914 212.476 137.083 212.519 137.29 212.519C137.517 212.519 137.698 212.472 137.833 212.379C137.968 212.283 138.036 212.167 138.036 212.03C138.036 211.919 137.994 211.826 137.911 211.751C137.83 211.675 137.704 211.618 137.535 211.58L136.935 211.448C136.604 211.373 136.359 211.253 136.201 211.088C136.044 210.924 135.966 210.715 135.966 210.463C135.966 210.253 136.024 210.07 136.141 209.913C136.258 209.756 136.42 209.634 136.626 209.546C136.832 209.457 137.068 209.413 137.334 209.413C137.718 209.413 138.019 209.496 138.239 209.662C138.459 209.826 138.605 210.047 138.675 210.324ZM142.256 213.083C142.031 213.083 141.828 213.041 141.646 212.958C141.465 212.873 141.321 212.751 141.214 212.591C141.11 212.431 141.058 212.235 141.058 212.002C141.058 211.802 141.096 211.638 141.173 211.508C141.25 211.379 141.354 211.277 141.485 211.201C141.615 211.126 141.762 211.069 141.923 211.031C142.085 210.992 142.249 210.963 142.417 210.943C142.629 210.918 142.802 210.898 142.934 210.883C143.066 210.866 143.163 210.839 143.223 210.802C143.283 210.765 143.313 210.705 143.313 210.622V210.606C143.313 210.404 143.256 210.248 143.142 210.137C143.03 210.027 142.862 209.971 142.639 209.971C142.406 209.971 142.223 210.023 142.089 210.126C141.957 210.227 141.865 210.34 141.815 210.465L141.166 210.317C141.243 210.102 141.355 209.928 141.503 209.796C141.652 209.662 141.824 209.565 142.018 209.505C142.212 209.443 142.416 209.413 142.629 209.413C142.771 209.413 142.921 209.429 143.08 209.463C143.24 209.496 143.389 209.556 143.527 209.643C143.667 209.731 143.782 209.856 143.871 210.02C143.961 210.181 144.005 210.391 144.005 210.65V213.004H143.331V212.519H143.303C143.259 212.609 143.192 212.696 143.103 212.783C143.013 212.869 142.899 212.94 142.759 212.997C142.619 213.054 142.451 213.083 142.256 213.083ZM142.406 212.529C142.596 212.529 142.759 212.491 142.895 212.416C143.032 212.34 143.136 212.242 143.206 212.12C143.279 211.997 143.315 211.865 143.315 211.725V211.268C143.29 211.293 143.243 211.316 143.172 211.338C143.103 211.358 143.023 211.375 142.934 211.391C142.845 211.405 142.758 211.418 142.673 211.43C142.589 211.441 142.518 211.45 142.461 211.458C142.327 211.475 142.205 211.503 142.094 211.543C141.985 211.583 141.897 211.641 141.831 211.716C141.766 211.79 141.734 211.889 141.734 212.012C141.734 212.182 141.797 212.312 141.923 212.399C142.049 212.486 142.21 212.529 142.406 212.529ZM144.924 213.004V209.459H145.591V210.022H145.628C145.693 209.831 145.807 209.681 145.97 209.572C146.135 209.461 146.321 209.406 146.529 209.406C146.572 209.406 146.622 209.407 146.681 209.41C146.741 209.413 146.788 209.417 146.822 209.422V210.082C146.794 210.074 146.745 210.066 146.674 210.057C146.603 210.046 146.532 210.04 146.462 210.04C146.299 210.04 146.153 210.075 146.025 210.144C145.899 210.212 145.799 210.307 145.725 210.428C145.652 210.548 145.615 210.685 145.615 210.839V213.004H144.924ZM148.786 213.076C148.453 213.076 148.163 213 147.915 212.847C147.668 212.695 147.475 212.482 147.338 212.208C147.201 211.934 147.133 211.614 147.133 211.248C147.133 210.88 147.201 210.558 147.338 210.283C147.475 210.007 147.668 209.793 147.915 209.641C148.163 209.489 148.453 209.413 148.786 209.413C149.118 209.413 149.408 209.489 149.656 209.641C149.903 209.793 150.096 210.007 150.233 210.283C150.37 210.558 150.438 210.88 150.438 211.248C150.438 211.614 150.37 211.934 150.233 212.208C150.096 212.482 149.903 212.695 149.656 212.847C149.408 213 149.118 213.076 148.786 213.076ZM148.788 212.496C149.003 212.496 149.182 212.439 149.323 212.326C149.465 212.212 149.57 212.06 149.637 211.871C149.706 211.682 149.741 211.473 149.741 211.245C149.741 211.019 149.706 210.811 149.637 210.622C149.57 210.431 149.465 210.278 149.323 210.163C149.182 210.047 149.003 209.99 148.788 209.99C148.571 209.99 148.391 210.047 148.248 210.163C148.106 210.278 148.001 210.431 147.931 210.622C147.864 210.811 147.83 211.019 147.83 211.245C147.83 211.473 147.864 211.682 147.931 211.871C148.001 212.06 148.106 212.212 148.248 212.326C148.391 212.439 148.571 212.496 148.788 212.496ZM153.455 211.534V209.459H154.147V213.004H153.468V212.39H153.431C153.35 212.579 153.219 212.737 153.039 212.863C152.861 212.988 152.638 213.05 152.372 213.05C152.144 213.05 151.943 213 151.767 212.9C151.593 212.799 151.456 212.649 151.356 212.45C151.258 212.252 151.209 212.006 151.209 211.714V209.459H151.899V211.631C151.899 211.872 151.966 212.065 152.1 212.208C152.233 212.351 152.407 212.422 152.621 212.422C152.75 212.422 152.879 212.39 153.007 212.326C153.136 212.261 153.243 212.163 153.328 212.032C153.414 211.902 153.456 211.735 153.455 211.534ZM155.764 210.899V213.004H155.074V209.459H155.737V210.036H155.781C155.862 209.848 155.99 209.697 156.164 209.583C156.339 209.469 156.56 209.413 156.826 209.413C157.068 209.413 157.279 209.463 157.461 209.565C157.643 209.665 157.783 209.814 157.883 210.013C157.983 210.211 158.033 210.457 158.033 210.749V213.004H157.343V210.832C157.343 210.575 157.276 210.374 157.142 210.23C157.009 210.083 156.825 210.01 156.591 210.01C156.431 210.01 156.288 210.045 156.164 210.114C156.041 210.183 155.943 210.285 155.871 210.419C155.8 210.551 155.764 210.711 155.764 210.899ZM160.286 213.073C160 213.073 159.745 213 159.52 212.854C159.297 212.706 159.121 212.496 158.994 212.224C158.868 211.95 158.804 211.622 158.804 211.238C158.804 210.855 158.868 210.527 158.996 210.255C159.125 209.983 159.302 209.774 159.527 209.63C159.752 209.485 160.006 209.413 160.291 209.413C160.511 209.413 160.688 209.449 160.822 209.523C160.957 209.596 161.062 209.68 161.136 209.777C161.211 209.874 161.27 209.96 161.311 210.033H161.353V208.277H162.043V213.004H161.369V212.452H161.311C161.27 212.528 161.21 212.614 161.131 212.711C161.054 212.808 160.948 212.893 160.813 212.965C160.677 213.037 160.502 213.073 160.286 213.073ZM160.439 212.485C160.637 212.485 160.805 212.432 160.942 212.328C161.08 212.222 161.185 212.075 161.256 211.887C161.328 211.699 161.364 211.481 161.364 211.231C161.364 210.985 161.329 210.77 161.258 210.585C161.187 210.4 161.083 210.257 160.946 210.153C160.81 210.05 160.64 209.999 160.439 209.999C160.231 209.999 160.058 210.053 159.919 210.16C159.781 210.268 159.676 210.415 159.605 210.601C159.536 210.787 159.502 210.998 159.502 211.231C159.502 211.468 159.537 211.682 159.608 211.871C159.678 212.06 159.783 212.21 159.922 212.321C160.062 212.43 160.234 212.485 160.439 212.485ZM166.403 209.459V210.013H164.467V209.459H166.403ZM164.986 208.609H165.676V211.963C165.676 212.097 165.696 212.198 165.736 212.266C165.776 212.332 165.828 212.377 165.891 212.402C165.955 212.425 166.025 212.436 166.101 212.436C166.156 212.436 166.205 212.432 166.246 212.425C166.288 212.417 166.32 212.411 166.343 212.406L166.468 212.976C166.428 212.992 166.371 213.007 166.297 213.023C166.223 213.04 166.131 213.049 166.02 213.05C165.838 213.053 165.669 213.021 165.512 212.953C165.355 212.886 165.228 212.781 165.131 212.639C165.034 212.498 164.986 212.32 164.986 212.106V208.609ZM167.933 210.899V213.004H167.243V208.277H167.924V210.036H167.968C168.051 209.845 168.178 209.693 168.348 209.581C168.519 209.469 168.742 209.413 169.018 209.413C169.261 209.413 169.473 209.463 169.655 209.563C169.838 209.663 169.98 209.812 170.08 210.01C170.181 210.207 170.232 210.454 170.232 210.749V213.004H169.542V210.832C169.542 210.572 169.475 210.37 169.341 210.227C169.207 210.083 169.021 210.01 168.782 210.01C168.619 210.01 168.473 210.045 168.344 210.114C168.216 210.183 168.115 210.285 168.041 210.419C167.969 210.551 167.933 210.711 167.933 210.899ZM171.153 213.004V209.459H171.843V213.004H171.153ZM171.501 208.912C171.381 208.912 171.278 208.872 171.192 208.792C171.108 208.71 171.065 208.613 171.065 208.501C171.065 208.387 171.108 208.29 171.192 208.21C171.278 208.128 171.381 208.088 171.501 208.088C171.621 208.088 171.724 208.128 171.808 208.21C171.895 208.29 171.938 208.387 171.938 208.501C171.938 208.613 171.895 208.71 171.808 208.792C171.724 208.872 171.621 208.912 171.501 208.912ZM175.428 210.324L174.803 210.435C174.777 210.355 174.735 210.279 174.678 210.207C174.623 210.134 174.547 210.075 174.452 210.029C174.357 209.983 174.237 209.96 174.094 209.96C173.899 209.96 173.736 210.003 173.605 210.091C173.474 210.177 173.409 210.289 173.409 210.426C173.409 210.544 173.453 210.64 173.54 210.712C173.628 210.784 173.77 210.844 173.965 210.89L174.528 211.019C174.854 211.094 175.098 211.211 175.258 211.368C175.418 211.525 175.498 211.728 175.498 211.979C175.498 212.192 175.436 212.381 175.313 212.547C175.191 212.712 175.021 212.841 174.803 212.935C174.586 213.029 174.334 213.076 174.048 213.076C173.651 213.076 173.327 212.991 173.076 212.822C172.825 212.651 172.672 212.409 172.615 212.095L173.282 211.993C173.323 212.167 173.409 212.299 173.538 212.388C173.667 212.476 173.836 212.519 174.043 212.519C174.27 212.519 174.45 212.472 174.586 212.379C174.721 212.283 174.789 212.167 174.789 212.03C174.789 211.919 174.747 211.826 174.664 211.751C174.583 211.675 174.457 211.618 174.288 211.58L173.688 211.448C173.357 211.373 173.112 211.253 172.954 211.088C172.797 210.924 172.718 210.715 172.718 210.463C172.718 210.253 172.777 210.07 172.894 209.913C173.011 209.756 173.172 209.634 173.379 209.546C173.585 209.457 173.821 209.413 174.087 209.413C174.47 209.413 174.772 209.496 174.992 209.662C175.212 209.826 175.358 210.047 175.428 210.324ZM179.505 213.076C179.155 213.076 178.855 213.001 178.602 212.852C178.351 212.701 178.157 212.489 178.021 212.217C177.885 211.943 177.817 211.622 177.817 211.255C177.817 210.891 177.885 210.571 178.021 210.294C178.157 210.017 178.348 209.801 178.593 209.646C178.839 209.49 179.127 209.413 179.456 209.413C179.656 209.413 179.85 209.446 180.038 209.512C180.226 209.578 180.394 209.682 180.543 209.823C180.693 209.965 180.81 210.149 180.897 210.375C180.983 210.6 181.026 210.873 181.026 211.194V211.439H178.207V210.922H180.35C180.35 210.741 180.313 210.58 180.239 210.44C180.165 210.298 180.061 210.187 179.927 210.105C179.795 210.023 179.639 209.983 179.461 209.983C179.267 209.983 179.098 210.03 178.953 210.126C178.81 210.22 178.699 210.343 178.621 210.495C178.544 210.646 178.505 210.81 178.505 210.987V211.391C178.505 211.628 178.547 211.829 178.63 211.995C178.715 212.162 178.832 212.289 178.983 212.376C179.134 212.462 179.31 212.506 179.512 212.506C179.642 212.506 179.762 212.487 179.869 212.45C179.977 212.412 180.07 212.355 180.149 212.279C180.227 212.204 180.287 212.111 180.329 212L180.982 212.118C180.93 212.31 180.836 212.479 180.7 212.623C180.566 212.766 180.398 212.878 180.195 212.958C179.993 213.036 179.763 213.076 179.505 213.076ZM184.723 209.459L183.437 213.004H182.699L181.411 209.459H182.152L183.05 212.187H183.087L183.982 209.459H184.723ZM185.372 213.004V209.459H186.062V213.004H185.372ZM185.72 208.912C185.6 208.912 185.497 208.872 185.411 208.792C185.326 208.71 185.284 208.613 185.284 208.501C185.284 208.387 185.326 208.29 185.411 208.21C185.497 208.128 185.6 208.088 185.72 208.088C185.84 208.088 185.943 208.128 186.027 208.21C186.113 208.29 186.156 208.387 186.156 208.501C186.156 208.613 186.113 208.71 186.027 208.792C185.943 208.872 185.84 208.912 185.72 208.912ZM188.318 213.073C188.031 213.073 187.776 213 187.551 212.854C187.328 212.706 187.153 212.496 187.025 212.224C186.899 211.95 186.836 211.622 186.836 211.238C186.836 210.855 186.9 210.527 187.027 210.255C187.157 209.983 187.333 209.774 187.558 209.63C187.783 209.485 188.037 209.413 188.322 209.413C188.542 209.413 188.719 209.449 188.853 209.523C188.988 209.596 189.093 209.68 189.167 209.777C189.242 209.874 189.301 209.96 189.342 210.033H189.384V208.277H190.074V213.004H189.4V212.452H189.342C189.301 212.528 189.241 212.614 189.162 212.711C189.085 212.808 188.979 212.893 188.844 212.965C188.708 213.037 188.533 213.073 188.318 213.073ZM188.47 212.485C188.668 212.485 188.836 212.432 188.973 212.328C189.112 212.222 189.216 212.075 189.287 211.887C189.359 211.699 189.396 211.481 189.396 211.231C189.396 210.985 189.36 210.77 189.289 210.585C189.219 210.4 189.115 210.257 188.978 210.153C188.841 210.05 188.671 209.999 188.47 209.999C188.262 209.999 188.089 210.053 187.951 210.16C187.812 210.268 187.707 210.415 187.637 210.601C187.567 210.787 187.533 210.998 187.533 211.231C187.533 211.468 187.568 211.682 187.639 211.871C187.71 212.06 187.814 212.21 187.953 212.321C188.093 212.43 188.265 212.485 188.47 212.485ZM192.587 213.076C192.238 213.076 191.937 213.001 191.685 212.852C191.434 212.701 191.24 212.489 191.103 212.217C190.968 211.943 190.9 211.622 190.9 211.255C190.9 210.891 190.968 210.571 191.103 210.294C191.24 210.017 191.431 209.801 191.675 209.646C191.922 209.49 192.209 209.413 192.539 209.413C192.739 209.413 192.933 209.446 193.12 209.512C193.308 209.578 193.477 209.682 193.626 209.823C193.775 209.965 193.893 210.149 193.979 210.375C194.065 210.6 194.108 210.873 194.108 211.194V211.439H191.29V210.922H193.432C193.432 210.741 193.395 210.58 193.321 210.44C193.247 210.298 193.144 210.187 193.01 210.105C192.877 210.023 192.722 209.983 192.543 209.983C192.349 209.983 192.18 210.03 192.036 210.126C191.892 210.22 191.782 210.343 191.703 210.495C191.626 210.646 191.588 210.81 191.588 210.987V211.391C191.588 211.628 191.629 211.829 191.712 211.995C191.797 212.162 191.915 212.289 192.066 212.376C192.216 212.462 192.393 212.506 192.594 212.506C192.725 212.506 192.844 212.487 192.952 212.45C193.06 212.412 193.153 212.355 193.231 212.279C193.31 212.204 193.37 212.111 193.411 212L194.064 212.118C194.012 212.31 193.918 212.479 193.783 212.623C193.649 212.766 193.481 212.878 193.277 212.958C193.076 213.036 192.846 213.076 192.587 213.076ZM195.564 210.899V213.004H194.874V209.459H195.537V210.036H195.58C195.662 209.848 195.79 209.697 195.964 209.583C196.139 209.469 196.36 209.413 196.626 209.413C196.868 209.413 197.079 209.463 197.261 209.565C197.442 209.665 197.583 209.814 197.683 210.013C197.783 210.211 197.833 210.457 197.833 210.749V213.004H197.143V210.832C197.143 210.575 197.076 210.374 196.942 210.23C196.808 210.083 196.625 210.01 196.391 210.01C196.231 210.01 196.088 210.045 195.964 210.114C195.84 210.183 195.743 210.285 195.67 210.419C195.6 210.551 195.564 210.711 195.564 210.899ZM200.252 213.076C199.909 213.076 199.614 212.998 199.366 212.843C199.12 212.686 198.93 212.469 198.798 212.194C198.666 211.919 198.6 211.603 198.6 211.248C198.6 210.887 198.667 210.57 198.803 210.294C198.938 210.017 199.129 209.801 199.375 209.646C199.621 209.49 199.911 209.413 200.245 209.413C200.515 209.413 200.755 209.463 200.966 209.563C201.176 209.661 201.346 209.8 201.476 209.978C201.606 210.157 201.684 210.365 201.709 210.604H201.037C201 210.437 200.916 210.294 200.783 210.174C200.652 210.054 200.477 209.994 200.257 209.994C200.065 209.994 199.896 210.045 199.751 210.147C199.608 210.247 199.497 210.39 199.417 210.576C199.337 210.761 199.297 210.979 199.297 211.231C199.297 211.49 199.336 211.713 199.414 211.901C199.493 212.089 199.604 212.234 199.747 212.337C199.891 212.44 200.061 212.492 200.257 212.492C200.388 212.492 200.506 212.468 200.612 212.42C200.72 212.371 200.81 212.301 200.882 212.21C200.956 212.119 201.008 212.01 201.037 211.882H201.709C201.684 212.112 201.61 212.316 201.485 212.496C201.36 212.676 201.193 212.818 200.984 212.921C200.776 213.024 200.532 213.076 200.252 213.076ZM203.975 213.076C203.626 213.076 203.325 213.001 203.072 212.852C202.822 212.701 202.628 212.489 202.491 212.217C202.355 211.943 202.288 211.622 202.288 211.255C202.288 210.891 202.355 210.571 202.491 210.294C202.628 210.017 202.818 209.801 203.063 209.646C203.309 209.49 203.597 209.413 203.926 209.413C204.126 209.413 204.32 209.446 204.508 209.512C204.696 209.578 204.864 209.682 205.014 209.823C205.163 209.965 205.281 210.149 205.367 210.375C205.453 210.6 205.496 210.873 205.496 211.194V211.439H202.678V210.922H204.82C204.82 210.741 204.783 210.58 204.709 210.44C204.635 210.298 204.531 210.187 204.397 210.105C204.265 210.023 204.11 209.983 203.931 209.983C203.737 209.983 203.568 210.03 203.423 210.126C203.28 210.22 203.169 210.343 203.091 210.495C203.014 210.646 202.975 210.81 202.975 210.987V211.391C202.975 211.628 203.017 211.829 203.1 211.995C203.185 212.162 203.302 212.289 203.453 212.376C203.604 212.462 203.78 212.506 203.982 212.506C204.113 212.506 204.232 212.487 204.34 212.45C204.447 212.412 204.54 212.355 204.619 212.279C204.697 212.204 204.757 212.111 204.799 212L205.452 212.118C205.4 212.31 205.306 212.479 205.171 212.623C205.037 212.766 204.868 212.878 204.665 212.958C204.463 213.036 204.233 213.076 203.975 213.076ZM207.017 211.645V211.601C207.02 211.315 207.048 211.087 207.102 210.918C207.157 210.748 207.236 210.611 207.337 210.507C207.439 210.402 207.561 210.307 207.704 210.22C207.797 210.162 207.88 210.097 207.954 210.024C208.028 209.952 208.086 209.869 208.129 209.775C208.172 209.681 208.194 209.577 208.194 209.463C208.194 209.326 208.161 209.208 208.097 209.108C208.032 209.008 207.946 208.931 207.838 208.877C207.732 208.822 207.614 208.794 207.483 208.794C207.364 208.794 207.251 208.819 207.144 208.868C207.036 208.917 206.947 208.994 206.876 209.099C206.805 209.202 206.764 209.335 206.753 209.498H206.052C206.063 209.221 206.133 208.987 206.262 208.796C206.391 208.604 206.562 208.458 206.774 208.36C206.988 208.261 207.224 208.212 207.483 208.212C207.766 208.212 208.014 208.265 208.226 208.372C208.438 208.476 208.603 208.623 208.72 208.812C208.839 209 208.898 209.219 208.898 209.47C208.898 209.643 208.871 209.798 208.817 209.937C208.763 210.073 208.686 210.196 208.586 210.304C208.488 210.411 208.369 210.507 208.231 210.59C208.1 210.671 207.994 210.756 207.912 210.844C207.832 210.931 207.774 211.035 207.737 211.155C207.7 211.275 207.68 211.424 207.677 211.601V211.645H207.017ZM207.365 213.048C207.239 213.048 207.13 213.003 207.04 212.914C206.949 212.823 206.903 212.714 206.903 212.586C206.903 212.46 206.949 212.352 207.04 212.263C207.13 212.172 207.239 212.127 207.365 212.127C207.49 212.127 207.598 212.172 207.688 212.263C207.781 212.352 207.827 212.46 207.827 212.586C207.827 212.671 207.805 212.749 207.762 212.819C207.721 212.889 207.665 212.944 207.596 212.986C207.527 213.027 207.45 213.048 207.365 213.048Z" fill="black"/>
<g clip-path="url(#clip2_107_2905)">
<path d="M74.613 196.296L72.5652 195.539L71.8108 193.49C71.7662 193.368 71.6854 193.264 71.5793 193.19C71.4732 193.116 71.347 193.076 71.2177 193.076C71.0884 193.076 70.9622 193.116 70.8561 193.19C70.7501 193.264 70.6692 193.368 70.6246 193.49L69.8655 195.539L67.8161 196.293C67.6947 196.338 67.59 196.419 67.516 196.525C67.442 196.631 67.4023 196.757 67.4023 196.887C67.4023 197.016 67.442 197.142 67.516 197.248C67.59 197.354 67.6947 197.435 67.8161 197.48L69.8655 198.239L70.6198 200.288C70.6645 200.41 70.7453 200.514 70.8514 200.588C70.9574 200.662 71.0836 200.702 71.2129 200.702C71.3423 200.702 71.4685 200.662 71.5745 200.588C71.6806 200.514 71.7614 200.41 71.8061 200.288L72.5652 198.239L74.6146 197.484C74.7359 197.44 74.8407 197.359 74.9147 197.253C74.9886 197.147 75.0283 197.021 75.0283 196.891C75.0283 196.762 74.9886 196.636 74.9147 196.53C74.8407 196.424 74.7359 196.343 74.6146 196.298L74.613 196.296ZM72.2079 197.692C72.1648 197.708 72.1256 197.733 72.0931 197.765C72.0606 197.798 72.0356 197.837 72.0197 197.88L71.2153 200.059L70.4126 197.881C70.3967 197.838 70.3715 197.798 70.3387 197.766C70.3059 197.733 70.2663 197.708 70.2228 197.692L68.0451 196.889L70.2228 196.086C70.2663 196.07 70.3059 196.045 70.3387 196.012C70.3715 195.98 70.3967 195.94 70.4126 195.896L71.2153 193.719L72.0181 195.896C72.034 195.94 72.059 195.979 72.0915 196.011C72.124 196.044 72.1632 196.069 72.2063 196.085L74.3855 196.889L72.2079 197.692ZM72.4858 192.76C72.4858 192.676 72.5192 192.595 72.5788 192.535C72.6384 192.476 72.7192 192.442 72.8034 192.442H73.4386V191.807C73.4386 191.723 73.4721 191.642 73.5316 191.583C73.5912 191.523 73.672 191.49 73.7562 191.49C73.8405 191.49 73.9213 191.523 73.9808 191.583C74.0404 191.642 74.0738 191.723 74.0738 191.807V192.442H74.7091C74.7933 192.442 74.8741 192.476 74.9337 192.535C74.9932 192.595 75.0267 192.676 75.0267 192.76C75.0267 192.844 74.9932 192.925 74.9337 192.985C74.8741 193.044 74.7933 193.078 74.7091 193.078H74.0738V193.713C74.0738 193.797 74.0404 193.878 73.9808 193.937C73.9213 193.997 73.8405 194.03 73.7562 194.03C73.672 194.03 73.5912 193.997 73.5316 193.937C73.4721 193.878 73.4386 193.797 73.4386 193.713V193.078H72.8034C72.7192 193.078 72.6384 193.044 72.5788 192.985C72.5192 192.925 72.4858 192.844 72.4858 192.76ZM76.6148 194.666C76.6148 194.75 76.5813 194.831 76.5217 194.89C76.4622 194.95 76.3814 194.983 76.2971 194.983H75.9795V195.301C75.9795 195.385 75.9461 195.466 75.8865 195.525C75.8269 195.585 75.7462 195.618 75.6619 195.618C75.5777 195.618 75.4969 195.585 75.4373 195.525C75.3778 195.466 75.3443 195.385 75.3443 195.301V194.983H75.0267C74.9425 194.983 74.8617 194.95 74.8021 194.89C74.7425 194.831 74.7091 194.75 74.7091 194.666C74.7091 194.581 74.7425 194.501 74.8021 194.441C74.8617 194.381 74.9425 194.348 75.0267 194.348H75.3443V194.03C75.3443 193.946 75.3778 193.865 75.4373 193.806C75.4969 193.746 75.5777 193.713 75.6619 193.713C75.7462 193.713 75.8269 193.746 75.8865 193.806C75.9461 193.865 75.9795 193.946 75.9795 194.03V194.348H76.2971C76.3814 194.348 76.4622 194.381 76.5217 194.441C76.5813 194.501 76.6148 194.581 76.6148 194.666Z" fill="black"/>
</g>
<line x1="26.5" y1="40.75" x2="398.5" y2="40.75" stroke="black" stroke-width="0.5"/>
<rect x="59" y="53.75" width="312" height="18" rx="9" fill="#DEE0E0"/>
<rect x="59" y="84.75" width="312" height="18" rx="9" fill="#DEE0E0"/>
<rect x="56.25" y="122" width="322" height="58.5" rx="4.75" fill="white"/>
<rect x="56.25" y="122" width="322" height="58.5" rx="4.75" stroke="#565656" stroke-width="0.5"/>
<path d="M61.3523 148.688V147.932H65.8551V148.688H64.0398V153.75H63.1648V148.688H61.3523ZM66.8189 155.386C66.692 155.386 66.5765 155.376 66.4723 155.355C66.3681 155.336 66.2905 155.315 66.2393 155.293L66.4439 154.597C66.5992 154.638 66.7375 154.656 66.8587 154.651C66.9799 154.645 67.0869 154.599 67.1797 154.514C67.2744 154.429 67.3577 154.29 67.4297 154.097L67.5348 153.807L65.9382 149.386H66.8473L67.9524 152.773H67.9979L69.103 149.386H70.0149L68.2166 154.332C68.1333 154.56 68.0272 154.752 67.8984 154.909C67.7696 155.068 67.6162 155.188 67.4382 155.267C67.2602 155.347 67.0537 155.386 66.8189 155.386ZM70.8132 155.386V149.386H71.6428V150.094H71.7138C71.763 150.003 71.834 149.898 71.9268 149.778C72.0196 149.659 72.1484 149.555 72.3132 149.466C72.478 149.375 72.6958 149.33 72.9666 149.33C73.3189 149.33 73.6333 149.419 73.9098 149.597C74.1863 149.775 74.4032 150.031 74.5604 150.366C74.7195 150.702 74.799 151.105 74.799 151.577C74.799 152.048 74.7204 152.453 74.5632 152.79C74.406 153.125 74.1901 153.384 73.9155 153.565C73.6409 153.745 73.3274 153.835 72.9751 153.835C72.71 153.835 72.4931 153.791 72.3246 153.702C72.1579 153.613 72.0272 153.509 71.9325 153.389C71.8378 153.27 71.7649 153.164 71.7138 153.071H71.6626V155.386H70.8132ZM71.6456 151.568C71.6456 151.875 71.6901 152.144 71.7791 152.375C71.8681 152.606 71.9969 152.787 72.1655 152.918C72.334 153.046 72.5405 153.111 72.7848 153.111C73.0386 153.111 73.2507 153.044 73.4212 152.909C73.5916 152.773 73.7204 152.588 73.8075 152.355C73.8965 152.122 73.9411 151.86 73.9411 151.568C73.9411 151.28 73.8975 151.022 73.8104 150.793C73.7251 150.563 73.5964 150.383 73.424 150.25C73.2536 150.117 73.0405 150.051 72.7848 150.051C72.5386 150.051 72.3303 150.115 72.1598 150.241C71.9912 150.368 71.8634 150.545 71.7763 150.773C71.6892 151 71.6456 151.265 71.6456 151.568ZM77.6314 153.838C77.2015 153.838 76.8312 153.746 76.5206 153.562C76.2119 153.377 75.9732 153.116 75.8047 152.781C75.638 152.444 75.5547 152.049 75.5547 151.597C75.5547 151.15 75.638 150.756 75.8047 150.415C75.9732 150.074 76.2081 149.808 76.5092 149.616C76.8123 149.425 77.1664 149.33 77.5717 149.33C77.8179 149.33 78.0566 149.37 78.2876 149.452C78.5187 149.533 78.7261 149.661 78.9098 149.835C79.0935 150.009 79.2384 150.236 79.3445 150.514C79.4505 150.791 79.5036 151.127 79.5036 151.523V151.824H76.0348V151.188H78.6712C78.6712 150.964 78.6257 150.766 78.5348 150.594C78.4439 150.42 78.3161 150.282 78.1513 150.182C77.9884 150.081 77.7971 150.031 77.5774 150.031C77.3388 150.031 77.1304 150.09 76.9524 150.207C76.7763 150.323 76.6399 150.474 76.5433 150.662C76.4486 150.848 76.4013 151.049 76.4013 151.267V151.764C76.4013 152.056 76.4524 152.304 76.5547 152.509C76.6589 152.713 76.8037 152.869 76.9893 152.977C77.175 153.083 77.3918 153.136 77.6399 153.136C77.8009 153.136 77.9477 153.114 78.0803 153.068C78.2128 153.021 78.3274 152.951 78.424 152.858C78.5206 152.765 78.5945 152.651 78.6456 152.514L79.4496 152.659C79.3852 152.896 79.2696 153.103 79.103 153.281C78.9382 153.457 78.7308 153.595 78.4808 153.693C78.2327 153.79 77.9496 153.838 77.6314 153.838Z" fill="#B8B8B8"/>
<g clip-path="url(#clip3_107_2905)">
<path d="M367.25 171.875C367.847 171.874 368.418 171.637 368.84 171.215C369.262 170.793 369.499 170.222 369.5 169.625V166.625C369.5 166.028 369.263 165.456 368.841 165.034C368.419 164.612 367.847 164.375 367.25 164.375C366.653 164.375 366.081 164.612 365.659 165.034C365.237 165.456 365 166.028 365 166.625V169.625C365.001 170.222 365.238 170.793 365.66 171.215C366.082 171.637 366.653 171.874 367.25 171.875ZM365.75 166.625C365.75 166.227 365.908 165.846 366.189 165.564C366.471 165.283 366.852 165.125 367.25 165.125C367.648 165.125 368.029 165.283 368.311 165.564C368.592 165.846 368.75 166.227 368.75 166.625V169.625C368.75 170.023 368.592 170.404 368.311 170.686C368.029 170.967 367.648 171.125 367.25 171.125C366.852 171.125 366.471 170.967 366.189 170.686C365.908 170.404 365.75 170.023 365.75 169.625V166.625ZM367.625 173.356V174.875C367.625 174.974 367.585 175.07 367.515 175.14C367.445 175.21 367.349 175.25 367.25 175.25C367.151 175.25 367.055 175.21 366.985 175.14C366.915 175.07 366.875 174.974 366.875 174.875V173.356C365.95 173.262 365.094 172.829 364.47 172.139C363.847 171.45 363.501 170.554 363.5 169.625C363.5 169.526 363.54 169.43 363.61 169.36C363.68 169.29 363.776 169.25 363.875 169.25C363.974 169.25 364.07 169.29 364.14 169.36C364.21 169.43 364.25 169.526 364.25 169.625C364.25 170.421 364.566 171.184 365.129 171.746C365.691 172.309 366.454 172.625 367.25 172.625C368.046 172.625 368.809 172.309 369.371 171.746C369.934 171.184 370.25 170.421 370.25 169.625C370.25 169.526 370.29 169.43 370.36 169.36C370.43 169.29 370.526 169.25 370.625 169.25C370.724 169.25 370.82 169.29 370.89 169.36C370.96 169.43 371 169.526 371 169.625C370.999 170.554 370.653 171.45 370.03 172.139C369.406 172.829 368.55 173.262 367.625 173.356Z" fill="black"/>
</g>
<rect x="84" y="15.3181" width="112.727" height="7.51515" rx="3.75758" fill="#DEE0E0"/>
<rect x="292.076" y="9.21204" width="86.4242" height="7.51515" rx="3.75758" fill="#DEE0E0"/>
<rect x="292.076" y="21.4242" width="86.4242" height="7.51515" rx="3.75758" fill="#DEE0E0"/>
<rect x="61" y="14.75" width="11" height="8" rx="4" fill="#DEE0E0"/>
</g>
<rect y="234.875" width="453" height="98" fill="url(#paint0_linear_107_2905)"/>
<rect x="453" y="102.875" width="453" height="103" transform="rotate(180 453 102.875)" fill="url(#paint1_linear_107_2905)"/>
</g>
<defs>
<linearGradient id="paint0_linear_107_2905" x1="226.5" y1="234.875" x2="226.5" y2="332.875" gradientUnits="userSpaceOnUse">
<stop stop-color="#F2F1F0" stop-opacity="0"/>
<stop offset="0.705507" stop-color="#F2F1F0"/>
</linearGradient>
<linearGradient id="paint1_linear_107_2905" x1="679.5" y1="102.875" x2="679.5" y2="205.875" gradientUnits="userSpaceOnUse">
<stop stop-color="#F2F1F0" stop-opacity="0"/>
<stop offset="0.533546" stop-color="#F2F1F0"/>
</linearGradient>
<clipPath id="clip0_107_2905">
<rect width="435" height="333" rx="11.25" fill="white"/>
</clipPath>
<clipPath id="clip1_107_2905">
<rect x="32" y="-21" width="372" height="566.5" rx="10" fill="white"/>
</clipPath>
<clipPath id="clip2_107_2905">
<rect width="10.1636" height="10.1636" fill="white" transform="translate(66.7695 191.172)"/>
</clipPath>
<clipPath id="clip3_107_2905">
<rect width="12.5" height="11.875" fill="white" transform="translate(361 163.875)"/>
</clipPath>
</defs>
</svg>
