<svg width="435" height="333" viewBox="0 0 435 333" fill="none" xmlns="http://www.w3.org/2000/svg">
<g clip-path="url(#clip0_107_2793)">
<rect width="435" height="333" rx="11.25" fill="#F2F1F0"/>
<g clip-path="url(#clip1_107_2793)">
<rect x="32" y="58" width="372" height="269" rx="10" fill="white"/>
<rect x="65" y="94.25" width="120" height="8" rx="4" fill="#DEE0E0"/>
<rect x="286.5" y="87.75" width="92" height="8" rx="4" fill="#DEE0E0"/>
<rect x="286.5" y="100.75" width="92" height="8" rx="4" fill="#DEE0E0"/>
<line x1="26.5" y1="119.75" x2="398.5" y2="119.75" stroke="#DEE0E0" stroke-width="0.5"/>
<rect x="43" y="94" width="11" height="8" rx="4" fill="#DEE0E0"/>
<path d="M59.7191 146.25V139.705H63.8228V140.555H60.7067V142.549H63.6087V143.396H60.7067V145.4H63.8612V146.25H59.7191ZM69.2648 141.341L67.4846 146.25H66.4619L64.6785 141.341H65.7045L66.9477 145.119H66.9988L68.2389 141.341H69.2648ZM70.1629 146.25V141.341H71.1185V146.25H70.1629ZM70.6455 140.583C70.4793 140.583 70.3366 140.528 70.2172 140.417C70.1001 140.304 70.0415 140.17 70.0415 140.015C70.0415 139.857 70.1001 139.723 70.2172 139.612C70.3366 139.499 70.4793 139.442 70.6455 139.442C70.8117 139.442 70.9534 139.499 71.0706 139.612C71.1899 139.723 71.2496 139.857 71.2496 140.015C71.2496 140.17 71.1899 140.304 71.0706 140.417C70.9534 140.528 70.8117 140.583 70.6455 140.583ZM74.2418 146.346C73.8455 146.346 73.4918 146.245 73.1808 146.042C72.8718 145.838 72.6289 145.547 72.4521 145.17C72.2773 144.79 72.19 144.336 72.19 143.805C72.19 143.275 72.2784 142.821 72.4553 142.444C72.6342 142.066 72.8793 141.778 73.1903 141.577C73.5014 141.377 73.854 141.277 74.2482 141.277C74.5529 141.277 74.7979 141.328 74.9833 141.43C75.1708 141.531 75.3157 141.648 75.418 141.782C75.5224 141.916 75.6033 142.034 75.6609 142.137H75.7184V139.705H76.674V146.25H75.7408V145.486H75.6609C75.6033 145.591 75.5202 145.71 75.4116 145.844C75.305 145.978 75.158 146.096 74.9705 146.196C74.783 146.296 74.5401 146.346 74.2418 146.346ZM74.4528 145.531C74.7276 145.531 74.9599 145.458 75.1495 145.314C75.3413 145.167 75.4862 144.963 75.5842 144.703C75.6843 144.443 75.7344 144.141 75.7344 143.795C75.7344 143.455 75.6854 143.156 75.5874 142.901C75.4893 142.645 75.3455 142.446 75.1559 142.303C74.9663 142.16 74.7319 142.089 74.4528 142.089C74.1651 142.089 73.9254 142.163 73.7337 142.312C73.5419 142.462 73.397 142.665 73.299 142.923C73.2031 143.181 73.1552 143.472 73.1552 143.795C73.1552 144.124 73.2042 144.419 73.3022 144.681C73.4002 144.943 73.5451 145.151 73.7369 145.304C73.9308 145.455 74.1694 145.531 74.4528 145.531ZM80.1537 146.349C79.67 146.349 79.2535 146.246 78.904 146.039C78.5567 145.83 78.2883 145.537 78.0986 145.16C77.9111 144.781 77.8174 144.337 77.8174 143.827C77.8174 143.325 77.9111 142.881 78.0986 142.498C78.2883 142.114 78.5525 141.815 78.8912 141.6C79.2322 141.385 79.6306 141.277 80.0866 141.277C80.3635 141.277 80.632 141.323 80.892 141.414C81.1519 141.506 81.3852 141.65 81.5919 141.846C81.7986 142.042 81.9616 142.297 82.0809 142.61C82.2002 142.921 82.2599 143.299 82.2599 143.744V144.083H78.3575V143.367H81.3234C81.3234 143.116 81.2723 142.893 81.17 142.699C81.0677 142.503 80.9239 142.349 80.7385 142.236C80.5553 142.123 80.3401 142.066 80.093 142.066C79.8245 142.066 79.5901 142.132 79.3898 142.265C79.1917 142.395 79.0383 142.565 78.9296 142.776C78.8231 142.985 78.7698 143.212 78.7698 143.457V144.016C78.7698 144.344 78.8273 144.623 78.9424 144.853C79.0596 145.083 79.2226 145.259 79.4314 145.381C79.6402 145.5 79.8841 145.56 80.1633 145.56C80.3444 145.56 80.5095 145.534 80.6586 145.483C80.8078 145.43 80.9367 145.351 81.0454 145.246C81.154 145.142 81.2371 145.013 81.2947 144.86L82.1991 145.023C82.1267 145.289 81.9967 145.522 81.8092 145.723C81.6238 145.921 81.3905 146.075 81.1093 146.186C80.8302 146.295 80.5116 146.349 80.1537 146.349ZM84.2757 143.335V146.25H83.3201V141.341H84.2374V142.14H84.2981C84.411 141.88 84.5879 141.671 84.8287 141.513C85.0716 141.356 85.3773 141.277 85.7459 141.277C86.0804 141.277 86.3734 141.347 86.6248 141.488C86.8762 141.626 87.0712 141.833 87.2097 142.108C87.3482 142.383 87.4174 142.723 87.4174 143.127V146.25H86.4618V143.243C86.4618 142.887 86.3691 142.609 86.1838 142.408C85.9984 142.206 85.7438 142.105 85.4199 142.105C85.1983 142.105 85.0012 142.153 84.8287 142.249C84.6582 142.344 84.5229 142.485 84.4228 142.67C84.3248 142.854 84.2757 143.075 84.2757 143.335ZM90.7669 146.349C90.2917 146.349 89.8826 146.241 89.5396 146.026C89.1987 145.809 88.9366 145.51 88.7534 145.128C88.5701 144.747 88.4785 144.31 88.4785 143.818C88.4785 143.319 88.5723 142.879 88.7598 142.498C88.9473 142.114 89.2115 141.815 89.5524 141.6C89.8933 141.385 90.2949 141.277 90.7573 141.277C91.1301 141.277 91.4625 141.346 91.7544 141.485C92.0463 141.621 92.2818 141.813 92.4608 142.06C92.6419 142.307 92.7495 142.596 92.7836 142.926H91.8535C91.8024 142.696 91.6852 142.498 91.502 142.332C91.3208 142.165 91.0779 142.082 90.7733 142.082C90.5069 142.082 90.2736 142.153 90.0733 142.293C89.8752 142.432 89.7207 142.63 89.6099 142.888C89.4991 143.143 89.4437 143.446 89.4437 143.795C89.4437 144.153 89.498 144.462 89.6067 144.722C89.7154 144.982 89.8688 145.184 90.0669 145.326C90.2672 145.469 90.5027 145.54 90.7733 145.54C90.9544 145.54 91.1184 145.507 91.2654 145.441C91.4146 145.373 91.5392 145.276 91.6394 145.151C91.7417 145.025 91.813 144.874 91.8535 144.697H92.7836C92.7495 145.014 92.6461 145.298 92.4735 145.547C92.301 145.796 92.0698 145.992 91.78 146.135C91.4924 146.278 91.1547 146.349 90.7669 146.349ZM95.9213 146.349C95.4376 146.349 95.021 146.246 94.6716 146.039C94.3243 145.83 94.0558 145.537 93.8662 145.16C93.6787 144.781 93.585 144.337 93.585 143.827C93.585 143.325 93.6787 142.881 93.8662 142.498C94.0558 142.114 94.32 141.815 94.6588 141.6C94.9997 141.385 95.3982 141.277 95.8541 141.277C96.1311 141.277 96.3996 141.323 96.6595 141.414C96.9195 141.506 97.1528 141.65 97.3595 141.846C97.5661 142.042 97.7291 142.297 97.8485 142.61C97.9678 142.921 98.0274 143.299 98.0274 143.744V144.083H94.1251V143.367H97.091C97.091 143.116 97.0399 142.893 96.9376 142.699C96.8353 142.503 96.6915 142.349 96.5061 142.236C96.3229 142.123 96.1077 142.066 95.8605 142.066C95.5921 142.066 95.3577 142.132 95.1574 142.265C94.9593 142.395 94.8058 142.565 94.6972 142.776C94.5906 142.985 94.5374 143.212 94.5374 143.457V144.016C94.5374 144.344 94.5949 144.623 94.71 144.853C94.8271 145.083 94.9901 145.259 95.199 145.381C95.4078 145.5 95.6517 145.56 95.9308 145.56C96.1119 145.56 96.2771 145.534 96.4262 145.483C96.5754 145.43 96.7043 145.351 96.8129 145.246C96.9216 145.142 97.0047 145.013 97.0622 144.86L97.9667 145.023C97.8943 145.289 97.7643 145.522 97.5768 145.723C97.3914 145.921 97.1581 146.075 96.8769 146.186C96.5977 146.295 96.2792 146.349 95.9213 146.349ZM101.223 140.555V139.705H106.289V140.555H104.247V146.25H103.263V140.555H101.223ZM107.373 148.091C107.231 148.091 107.101 148.079 106.983 148.056C106.866 148.034 106.779 148.011 106.721 147.985L106.952 147.202C107.126 147.249 107.282 147.27 107.418 147.263C107.555 147.257 107.675 147.206 107.779 147.11C107.886 147.014 107.98 146.857 108.061 146.64L108.179 146.314L106.383 141.341H107.405L108.649 145.151H108.7L109.943 141.341H110.969L108.946 146.905C108.852 147.161 108.733 147.377 108.588 147.554C108.443 147.733 108.27 147.867 108.07 147.957C107.87 148.046 107.638 148.091 107.373 148.091ZM111.867 148.091V141.341H112.8V142.137H112.88C112.936 142.034 113.015 141.916 113.12 141.782C113.224 141.648 113.369 141.531 113.555 141.43C113.74 141.328 113.985 141.277 114.29 141.277C114.686 141.277 115.04 141.377 115.351 141.577C115.662 141.778 115.906 142.066 116.083 142.444C116.262 142.821 116.351 143.275 116.351 143.805C116.351 144.336 116.263 144.79 116.086 145.17C115.909 145.547 115.666 145.838 115.357 146.042C115.048 146.245 114.695 146.346 114.299 146.346C114.001 146.346 113.757 146.296 113.567 146.196C113.38 146.096 113.233 145.978 113.126 145.844C113.02 145.71 112.938 145.591 112.88 145.486H112.823V148.091H111.867ZM112.803 143.795C112.803 144.141 112.854 144.443 112.954 144.703C113.054 144.963 113.199 145.167 113.388 145.314C113.578 145.458 113.81 145.531 114.085 145.531C114.371 145.531 114.609 145.455 114.801 145.304C114.993 145.151 115.138 144.943 115.236 144.681C115.336 144.419 115.386 144.124 115.386 143.795C115.386 143.472 115.337 143.181 115.239 142.923C115.143 142.665 114.998 142.462 114.804 142.312C114.612 142.163 114.373 142.089 114.085 142.089C113.808 142.089 113.574 142.16 113.382 142.303C113.192 142.446 113.048 142.645 112.95 142.901C112.852 143.156 112.803 143.455 112.803 143.795ZM119.537 146.349C119.054 146.349 118.637 146.246 118.288 146.039C117.941 145.83 117.672 145.537 117.482 145.16C117.295 144.781 117.201 144.337 117.201 143.827C117.201 143.325 117.295 142.881 117.482 142.498C117.672 142.114 117.936 141.815 118.275 141.6C118.616 141.385 119.014 141.277 119.47 141.277C119.747 141.277 120.016 141.323 120.276 141.414C120.536 141.506 120.769 141.65 120.976 141.846C121.182 142.042 121.345 142.297 121.465 142.61C121.584 142.921 121.644 143.299 121.644 143.744V144.083H117.741V143.367H120.707C120.707 143.116 120.656 142.893 120.554 142.699C120.452 142.503 120.308 142.349 120.122 142.236C119.939 142.123 119.724 142.066 119.477 142.066C119.208 142.066 118.974 142.132 118.774 142.265C118.575 142.395 118.422 142.565 118.313 142.776C118.207 142.985 118.154 143.212 118.154 143.457V144.016C118.154 144.344 118.211 144.623 118.326 144.853C118.443 145.083 118.606 145.259 118.815 145.381C119.024 145.5 119.268 145.56 119.547 145.56C119.728 145.56 119.893 145.534 120.042 145.483C120.192 145.43 120.32 145.351 120.429 145.246C120.538 145.142 120.621 145.013 120.678 144.86L121.583 145.023C121.51 145.289 121.381 145.522 121.193 145.723C121.008 145.921 120.774 146.075 120.493 146.186C120.214 146.295 119.895 146.349 119.537 146.349Z" fill="black"/>
<rect x="130.25" y="135.25" width="236.5" height="15" rx="4.75" stroke="#565656" stroke-width="0.5"/>
<path d="M140.719 146.25V139.705H143.116C143.581 139.705 143.965 139.781 144.27 139.935C144.575 140.086 144.803 140.292 144.954 140.551C145.105 140.809 145.181 141.1 145.181 141.424C145.181 141.697 145.131 141.927 145.031 142.114C144.93 142.3 144.796 142.449 144.628 142.562C144.462 142.673 144.278 142.754 144.078 142.805V142.869C144.295 142.879 144.507 142.95 144.714 143.08C144.923 143.207 145.096 143.39 145.232 143.626C145.368 143.863 145.436 144.15 145.436 144.489C145.436 144.824 145.358 145.124 145.2 145.39C145.044 145.654 144.804 145.864 144.478 146.02C144.152 146.173 143.735 146.25 143.228 146.25H140.719ZM141.707 145.403H143.132C143.605 145.403 143.944 145.311 144.148 145.128C144.353 144.945 144.455 144.716 144.455 144.441C144.455 144.234 144.403 144.045 144.299 143.872C144.194 143.7 144.045 143.562 143.851 143.46C143.659 143.358 143.431 143.306 143.167 143.306H141.707V145.403ZM141.707 142.536H143.03C143.251 142.536 143.451 142.494 143.627 142.408C143.806 142.323 143.948 142.204 144.053 142.05C144.159 141.895 144.212 141.712 144.212 141.501C144.212 141.23 144.118 141.003 143.928 140.82C143.738 140.637 143.447 140.545 143.055 140.545H141.707V142.536ZM147.487 139.705V146.25H146.531V139.705H147.487ZM150.84 146.349C150.38 146.349 149.978 146.244 149.635 146.033C149.292 145.822 149.026 145.527 148.836 145.147C148.647 144.768 148.552 144.325 148.552 143.818C148.552 143.309 148.647 142.863 148.836 142.482C149.026 142.1 149.292 141.804 149.635 141.593C149.978 141.382 150.38 141.277 150.84 141.277C151.3 141.277 151.702 141.382 152.045 141.593C152.388 141.804 152.654 142.1 152.844 142.482C153.034 142.863 153.128 143.309 153.128 143.818C153.128 144.325 153.034 144.768 152.844 145.147C152.654 145.527 152.388 145.822 152.045 146.033C151.702 146.244 151.3 146.349 150.84 146.349ZM150.843 145.547C151.142 145.547 151.389 145.468 151.585 145.31C151.781 145.153 151.926 144.943 152.019 144.681C152.115 144.419 152.163 144.13 152.163 143.815C152.163 143.501 152.115 143.214 152.019 142.952C151.926 142.687 151.781 142.475 151.585 142.316C151.389 142.156 151.142 142.076 150.843 142.076C150.543 142.076 150.294 142.156 150.095 142.316C149.899 142.475 149.753 142.687 149.658 142.952C149.564 143.214 149.517 143.501 149.517 143.815C149.517 144.13 149.564 144.419 149.658 144.681C149.753 144.943 149.899 145.153 150.095 145.31C150.294 145.468 150.543 145.547 150.843 145.547ZM156.263 146.349C155.803 146.349 155.401 146.244 155.058 146.033C154.715 145.822 154.449 145.527 154.259 145.147C154.069 144.768 153.975 144.325 153.975 143.818C153.975 143.309 154.069 142.863 154.259 142.482C154.449 142.1 154.715 141.804 155.058 141.593C155.401 141.382 155.803 141.277 156.263 141.277C156.723 141.277 157.125 141.382 157.468 141.593C157.811 141.804 158.077 142.1 158.267 142.482C158.456 142.863 158.551 143.309 158.551 143.818C158.551 144.325 158.456 144.768 158.267 145.147C158.077 145.527 157.811 145.822 157.468 146.033C157.125 146.244 156.723 146.349 156.263 146.349ZM156.266 145.547C156.564 145.547 156.812 145.468 157.008 145.31C157.204 145.153 157.349 144.943 157.442 144.681C157.538 144.419 157.586 144.13 157.586 143.815C157.586 143.501 157.538 143.214 157.442 142.952C157.349 142.687 157.204 142.475 157.008 142.316C156.812 142.156 156.564 142.076 156.266 142.076C155.966 142.076 155.716 142.156 155.518 142.316C155.322 142.475 155.176 142.687 155.08 142.952C154.987 143.214 154.94 143.501 154.94 143.815C154.94 144.13 154.987 144.419 155.08 144.681C155.176 144.943 155.322 145.153 155.518 145.31C155.716 145.468 155.966 145.547 156.266 145.547ZM161.456 146.346C161.059 146.346 160.706 146.245 160.395 146.042C160.086 145.838 159.843 145.547 159.666 145.17C159.491 144.79 159.404 144.336 159.404 143.805C159.404 143.275 159.492 142.821 159.669 142.444C159.848 142.066 160.093 141.778 160.404 141.577C160.715 141.377 161.068 141.277 161.462 141.277C161.767 141.277 162.012 141.328 162.197 141.43C162.385 141.531 162.53 141.648 162.632 141.782C162.736 141.916 162.817 142.034 162.875 142.137H162.932V139.705H163.888V146.25H162.955V145.486H162.875C162.817 145.591 162.734 145.71 162.625 145.844C162.519 145.978 162.372 146.096 162.184 146.196C161.997 146.296 161.754 146.346 161.456 146.346ZM161.667 145.531C161.941 145.531 162.174 145.458 162.363 145.314C162.555 145.167 162.7 144.963 162.798 144.703C162.898 144.443 162.948 144.141 162.948 143.795C162.948 143.455 162.899 143.156 162.801 142.901C162.703 142.645 162.559 142.446 162.37 142.303C162.18 142.16 161.946 142.089 161.667 142.089C161.379 142.089 161.139 142.163 160.948 142.312C160.756 142.462 160.611 142.665 160.513 142.923C160.417 143.181 160.369 143.472 160.369 143.795C160.369 144.124 160.418 144.419 160.516 144.681C160.614 144.943 160.759 145.151 160.951 145.304C161.145 145.455 161.383 145.531 161.667 145.531ZM171.28 141.424C171.246 141.121 171.106 140.887 170.858 140.721C170.611 140.553 170.3 140.468 169.925 140.468C169.657 140.468 169.424 140.511 169.228 140.596C169.032 140.679 168.88 140.794 168.771 140.941C168.665 141.086 168.612 141.251 168.612 141.437C168.612 141.592 168.648 141.727 168.72 141.839C168.795 141.952 168.892 142.047 169.011 142.124C169.133 142.199 169.263 142.261 169.401 142.312C169.54 142.362 169.673 142.402 169.801 142.434L170.44 142.6C170.649 142.651 170.863 142.721 171.082 142.808C171.302 142.895 171.505 143.01 171.693 143.153C171.88 143.296 172.031 143.473 172.146 143.684C172.264 143.895 172.322 144.147 172.322 144.441C172.322 144.812 172.226 145.141 172.035 145.429C171.845 145.716 171.569 145.943 171.207 146.109C170.847 146.276 170.411 146.359 169.9 146.359C169.41 146.359 168.986 146.281 168.628 146.125C168.27 145.97 167.989 145.749 167.787 145.464C167.585 145.176 167.473 144.835 167.451 144.441H168.442C168.461 144.678 168.538 144.875 168.672 145.032C168.809 145.188 168.982 145.304 169.193 145.381C169.406 145.455 169.64 145.493 169.893 145.493C170.172 145.493 170.421 145.449 170.638 145.362C170.857 145.272 171.03 145.148 171.156 144.991C171.281 144.831 171.344 144.645 171.344 144.431C171.344 144.238 171.289 144.079 171.178 143.955C171.069 143.832 170.921 143.729 170.734 143.648C170.548 143.567 170.339 143.496 170.104 143.434L169.331 143.223C168.807 143.081 168.391 142.871 168.084 142.594C167.78 142.317 167.627 141.95 167.627 141.494C167.627 141.117 167.729 140.788 167.934 140.507C168.139 140.225 168.416 140.007 168.765 139.852C169.114 139.694 169.509 139.615 169.948 139.615C170.391 139.615 170.782 139.693 171.12 139.848C171.461 140.004 171.73 140.218 171.926 140.491C172.122 140.761 172.224 141.072 172.233 141.424H171.28ZM174.854 146.359C174.543 146.359 174.262 146.301 174.01 146.186C173.759 146.069 173.56 145.9 173.413 145.678C173.268 145.456 173.195 145.185 173.195 144.863C173.195 144.586 173.249 144.358 173.355 144.179C173.462 144 173.606 143.858 173.787 143.754C173.968 143.65 174.17 143.571 174.394 143.517C174.618 143.464 174.846 143.424 175.078 143.396C175.372 143.362 175.611 143.334 175.794 143.313C175.977 143.289 176.11 143.252 176.193 143.201C176.276 143.15 176.318 143.067 176.318 142.952V142.929C176.318 142.65 176.239 142.434 176.081 142.281C175.926 142.127 175.694 142.05 175.385 142.05C175.063 142.05 174.809 142.122 174.624 142.265C174.441 142.405 174.314 142.562 174.244 142.734L173.346 142.53C173.452 142.232 173.608 141.991 173.812 141.808C174.019 141.622 174.257 141.488 174.525 141.405C174.794 141.32 175.076 141.277 175.372 141.277C175.568 141.277 175.776 141.3 175.995 141.347C176.217 141.392 176.423 141.475 176.615 141.597C176.809 141.718 176.968 141.892 177.091 142.118C177.215 142.341 177.277 142.632 177.277 142.99V146.25H176.344V145.579H176.305C176.243 145.702 176.151 145.824 176.027 145.943C175.904 146.062 175.745 146.162 175.551 146.24C175.357 146.319 175.125 146.359 174.854 146.359ZM175.062 145.592C175.326 145.592 175.552 145.539 175.74 145.435C175.929 145.331 176.073 145.194 176.171 145.026C176.271 144.855 176.321 144.673 176.321 144.479V143.847C176.287 143.881 176.221 143.913 176.123 143.942C176.027 143.97 175.917 143.995 175.794 144.016C175.67 144.035 175.55 144.053 175.433 144.07C175.316 144.085 175.218 144.098 175.139 144.109C174.953 144.132 174.784 144.172 174.631 144.227C174.479 144.282 174.358 144.362 174.266 144.467C174.177 144.569 174.132 144.705 174.132 144.876C174.132 145.112 174.219 145.291 174.394 145.413C174.569 145.532 174.791 145.592 175.062 145.592ZM178.55 146.25V141.341H179.467V142.14H179.528C179.63 141.869 179.797 141.658 180.029 141.507C180.262 141.354 180.54 141.277 180.864 141.277C181.192 141.277 181.467 141.354 181.688 141.507C181.912 141.661 182.077 141.871 182.184 142.14H182.235C182.352 141.878 182.538 141.669 182.794 141.513C183.05 141.356 183.354 141.277 183.708 141.277C184.153 141.277 184.517 141.417 184.798 141.696C185.081 141.975 185.223 142.396 185.223 142.958V146.25H184.267V143.048C184.267 142.715 184.177 142.474 183.996 142.325C183.815 142.176 183.598 142.102 183.347 142.102C183.036 142.102 182.794 142.197 182.621 142.389C182.449 142.579 182.362 142.823 182.362 143.121V146.25H181.41V142.987C181.41 142.721 181.327 142.506 181.161 142.344C180.995 142.183 180.778 142.102 180.512 142.102C180.331 142.102 180.164 142.15 180.01 142.245C179.859 142.339 179.736 142.47 179.643 142.638C179.551 142.807 179.505 143.002 179.505 143.223V146.25H178.55ZM186.504 148.091V141.341H187.437V142.137H187.517C187.572 142.034 187.652 141.916 187.757 141.782C187.861 141.648 188.006 141.531 188.191 141.43C188.377 141.328 188.622 141.277 188.926 141.277C189.323 141.277 189.676 141.377 189.987 141.577C190.298 141.778 190.542 142.066 190.719 142.444C190.898 142.821 190.988 143.275 190.988 143.805C190.988 144.336 190.899 144.79 190.722 145.17C190.546 145.547 190.303 145.838 189.994 146.042C189.685 146.245 189.332 146.346 188.936 146.346C188.638 146.346 188.394 146.296 188.204 146.196C188.017 146.096 187.869 145.978 187.763 145.844C187.656 145.71 187.574 145.591 187.517 145.486H187.459V148.091H186.504ZM187.44 143.795C187.44 144.141 187.49 144.443 187.59 144.703C187.691 144.963 187.835 145.167 188.025 145.314C188.215 145.458 188.447 145.531 188.722 145.531C189.007 145.531 189.246 145.455 189.438 145.304C189.629 145.151 189.774 144.943 189.872 144.681C189.972 144.419 190.023 144.124 190.023 143.795C190.023 143.472 189.974 143.181 189.876 142.923C189.78 142.665 189.635 142.462 189.441 142.312C189.249 142.163 189.009 142.089 188.722 142.089C188.445 142.089 188.21 142.16 188.019 142.303C187.829 142.446 187.685 142.645 187.587 142.901C187.489 143.156 187.44 143.455 187.44 143.795ZM193.014 139.705V146.25H192.058V139.705H193.014ZM196.415 146.349C195.932 146.349 195.515 146.246 195.166 146.039C194.818 145.83 194.55 145.537 194.36 145.16C194.173 144.781 194.079 144.337 194.079 143.827C194.079 143.325 194.173 142.881 194.36 142.498C194.55 142.114 194.814 141.815 195.153 141.6C195.494 141.385 195.892 141.277 196.348 141.277C196.625 141.277 196.894 141.323 197.154 141.414C197.414 141.506 197.647 141.65 197.854 141.846C198.06 142.042 198.223 142.297 198.343 142.61C198.462 142.921 198.522 143.299 198.522 143.744V144.083H194.619V143.367H197.585C197.585 143.116 197.534 142.893 197.432 142.699C197.329 142.503 197.186 142.349 197 142.236C196.817 142.123 196.602 142.066 196.355 142.066C196.086 142.066 195.852 142.132 195.652 142.265C195.453 142.395 195.3 142.565 195.191 142.776C195.085 142.985 195.032 143.212 195.032 143.457V144.016C195.032 144.344 195.089 144.623 195.204 144.853C195.321 145.083 195.484 145.259 195.693 145.381C195.902 145.5 196.146 145.56 196.425 145.56C196.606 145.56 196.771 145.534 196.92 145.483C197.07 145.43 197.198 145.351 197.307 145.246C197.416 145.142 197.499 145.013 197.556 144.86L198.461 145.023C198.388 145.289 198.258 145.522 198.071 145.723C197.886 145.921 197.652 146.075 197.371 146.186C197.092 146.295 196.773 146.349 196.415 146.349Z" fill="black"/>
<mask id="mask0_107_2793" style="mask-type:alpha" maskUnits="userSpaceOnUse" x="347" y="135" width="15" height="16">
<rect x="347.104" y="135.302" width="14.8965" height="14.8965" fill="#D9D9D9"/>
</mask>
<g mask="url(#mask0_107_2793)">
<path d="M354.552 144.86L350.828 141.136L351.697 140.267L354.552 143.122L357.407 140.267L358.276 141.136L354.552 144.86Z" fill="#636363"/>
</g>
<rect x="59" y="166.5" width="312" height="18" rx="9" fill="#DEE0E0"/>
<rect x="59" y="200.5" width="67" height="8" rx="4" fill="#DEE0E0"/>
<rect x="59" y="224.5" width="67" height="77" rx="10" fill="#DEE0E0"/>
<rect x="133" y="224.5" width="67" height="77" rx="10" fill="#DEE0E0"/>
<rect x="207" y="224.5" width="67" height="77" rx="10" fill="#DEE0E0"/>
<rect x="281" y="224.5" width="67" height="77" rx="10" fill="#DEE0E0"/>
</g>
<rect y="192" width="453" height="141" fill="url(#paint0_linear_107_2793)"/>
</g>
<defs>
<linearGradient id="paint0_linear_107_2793" x1="226.5" y1="192" x2="226.5" y2="333" gradientUnits="userSpaceOnUse">
<stop stop-color="#F2F1F0" stop-opacity="0"/>
<stop offset="0.705507" stop-color="#F2F1F0"/>
</linearGradient>
<clipPath id="clip0_107_2793">
<rect width="435" height="333" rx="11.25" fill="white"/>
</clipPath>
<clipPath id="clip1_107_2793">
<rect x="32" y="58" width="372" height="269" rx="10" fill="white"/>
</clipPath>
</defs>
</svg>
