<svg width="20" height="30" viewBox="0 0 20 30" fill="none" xmlns="http://www.w3.org/2000/svg">
<g clip-path="url(#clip0_107_2729)">
<path d="M10 15C10 12.2667 12.2158 10.0509 14.9491 10.0509C17.6824 10.0509 19.8982 12.2667 19.8982 15C19.8982 17.7333 17.6824 19.9491 14.9491 19.9491C12.2158 19.9491 10 17.7333 10 15Z" fill="#1ABCFE"/>
<path d="M0.101562 24.8982C0.101562 22.1649 2.31735 19.9491 5.05066 19.9491H9.99975V24.8982C9.99975 27.6315 7.78399 29.8473 5.05066 29.8473C2.31735 29.8473 0.101562 27.6315 0.101562 24.8982Z" fill="#0ACF83"/>
<path d="M10 0.15271V10.0509H14.9491C17.6824 10.0509 19.8982 7.83511 19.8982 5.1018C19.8982 2.3685 17.6824 0.15271 14.9491 0.15271H10Z" fill="#FF7262"/>
<path d="M0.101562 5.10181C0.101562 7.83511 2.31735 10.0509 5.05066 10.0509H9.99975V0.15271H5.05066C2.31735 0.15271 0.101562 2.36849 0.101562 5.10181Z" fill="#F24E1E"/>
<path d="M0.101562 15C0.101562 17.7333 2.31735 19.9491 5.05066 19.9491H9.99975V10.0509H5.05066C2.31735 10.0509 0.101562 12.2667 0.101562 15Z" fill="#A259FF"/>
</g>
<defs>
<clipPath id="clip0_107_2729">
<rect width="20" height="30" fill="white"/>
</clipPath>
</defs>
</svg>
