<svg width="95" height="27" viewBox="0 0 95 27" fill="none" xmlns="http://www.w3.org/2000/svg">
<path d="M12.2229 18.1527C9.54409 17.8272 7.65673 15.8943 7.65673 13.3917C7.65673 12.3743 8.02203 11.2756 8.63086 10.5432C8.36702 9.87175 8.40761 8.44751 8.71203 7.85746C9.5238 7.75573 10.6197 8.18299 11.2691 8.77304C12.0403 8.52889 12.852 8.40682 13.8465 8.40682C14.8409 8.40682 15.6526 8.52889 16.3832 8.75269C17.0123 8.18299 18.1285 7.75573 18.9403 7.85746C19.2244 8.40682 19.265 9.83106 19.0012 10.5228C19.6506 11.296 19.9956 12.3337 19.9956 13.3917C19.9956 15.8943 18.1082 17.7865 15.3888 18.1324C16.0788 18.58 16.5456 19.5566 16.5456 20.6757V22.7917C16.5456 23.402 17.0529 23.7479 17.6618 23.5039C21.335 22.0999 24.2168 18.4172 24.2168 13.8596C24.2168 8.10161 19.5491 3.40161 13.8059 3.40161C8.06262 3.40161 3.43555 8.10161 3.43555 13.8596C3.43555 18.3765 6.29702 22.1203 10.1529 23.5241C10.7009 23.7275 11.2285 23.3614 11.2285 22.8121V21.1843C10.9444 21.3064 10.5791 21.3879 10.2544 21.3879C8.91497 21.3879 8.1235 20.6553 7.55526 19.2921C7.33203 18.7428 7.08849 18.4172 6.62172 18.3562C6.37819 18.3358 6.29702 18.2341 6.29702 18.112C6.29702 17.8678 6.70291 17.6847 7.10878 17.6847C7.69731 17.6847 8.20467 18.051 8.73233 18.8038C9.1382 19.3938 9.56438 19.6583 10.0717 19.6583C10.5791 19.6583 10.9038 19.4752 11.3706 19.0072C11.7156 18.6614 11.9794 18.3562 12.2229 18.1527Z" fill="black"/>
<mask id="mask0_107_2736" style="mask-type:luminance" maskUnits="userSpaceOnUse" x="28" y="5" width="64" height="17">
<path d="M91.4486 5.41968H28.2422V21.5646H91.4486V5.41968Z" fill="white"/>
</mask>
<g mask="url(#mask0_107_2736)">
<path d="M43.4575 21.0481V10.4774H46.4215V21.0481H43.4575ZM52.1684 21.0481C50.1986 21.0481 49.4293 20.2017 49.4293 18.4148V12.9602H47.5533V10.4774H49.4293V8.37072L52.3936 7.67478V10.4774H54.5886V12.9602H52.3936V17.7565C52.3936 18.3396 52.6563 18.5653 53.2378 18.5653H54.5886V21.0481H52.1684ZM72.8339 21.2362C70.5263 21.2362 69.2693 19.9572 69.2693 17.6249V10.4774H72.2524V16.8349C72.2524 18.1327 72.8339 18.8475 73.9408 18.8475C75.2165 18.8475 76.1922 17.6625 76.1922 16.0449V10.4774H79.1751V21.0481H76.1922V19.2613C75.6294 20.4086 74.2786 21.2362 72.8339 21.2362ZM87.0718 21.2362C85.6339 21.2362 84.3206 20.4086 83.6946 19.2236V21.0481H80.7305V6.30171H83.7135V12.4147C84.3206 11.1357 85.6903 10.2328 87.0718 10.2328C89.9489 10.2328 91.4687 12.2266 91.368 15.7439C91.4687 19.2236 89.8927 21.2362 87.0718 21.2362ZM86.0211 18.7346C87.5663 18.7346 88.4105 17.5872 88.31 15.7439C88.4105 13.8818 87.5663 12.7345 86.0211 12.7345C84.7897 12.7345 83.8142 13.9382 83.7135 15.5935V15.7627C83.8142 17.4744 84.7897 18.7346 86.0211 18.7346ZM64.6198 6.30171V12.283H59.029V6.30171H55.8397V21.0481H59.029V15.142H64.6198V21.0481H67.8093V6.30171H64.6198ZM35.3339 21.3304C30.9813 21.3304 28.2422 18.3396 28.2422 13.6561C28.2422 8.97261 31.0377 6.01957 35.4652 6.01957C39.0673 6.01957 41.2436 7.56191 41.9377 10.1576L38.7108 10.9288C38.3169 9.51807 37.1913 8.74689 35.4652 8.74689C32.8949 8.74689 31.5065 10.4397 31.5065 13.6561C31.5065 16.8725 32.8573 18.6029 35.3901 18.6029C37.7165 18.6029 39.1048 17.1734 39.1048 14.747V14.1828L39.9304 15.3301H35.1276V12.6216H42.3317V14.3332C42.3317 18.8287 39.724 21.3304 35.3339 21.3304ZM44.9395 9.48046C45.9338 9.48046 46.7031 8.70928 46.7031 7.71239C46.7031 6.71552 45.9338 5.94434 44.9395 5.94434C43.9452 5.94434 43.1761 6.71552 43.1761 7.71239C43.1761 8.70928 43.9452 9.48046 44.9395 9.48046Z" fill="black"/>
</g>
</svg>
