<svg width="30" height="30" viewBox="0 0 30 30" fill="none" xmlns="http://www.w3.org/2000/svg">
<g clip-path="url(#clip0_107_2746)">
<mask id="mask0_107_2746" style="mask-type:luminance" maskUnits="userSpaceOnUse" x="0" y="0" width="30" height="30">
<path d="M30 0H0V30H30V0Z" fill="white"/>
</mask>
<g mask="url(#mask0_107_2746)">
<path d="M30 0H0V30H30V0Z" fill="#B2C248"/>
<path d="M14.8821 25.7229C17.1062 25.7229 19.4372 25.2302 20.3761 24.547C20.9757 24.1194 21.2731 24.1612 21.8077 23.6499C21.9564 23.5012 22.0215 23.457 22.0633 23.4152C24.0945 21.7466 25.2704 19.5876 25.2704 16.7871C25.2704 12.2321 22.0424 9.13182 17.4246 9.13182C13.3622 9.13182 10.262 11.7184 10.262 15.0325C10.262 18.0467 12.6139 20.2057 15.9698 20.2057C16.1626 20.2057 16.2486 20.0988 16.4624 20.0988C17.2758 20.0988 17.9382 19.8641 18.3658 19.4156C18.5796 19.1809 18.9863 18.7091 19.0281 18.6882C19.221 18.5162 19.2629 18.2606 19.307 18.1536C19.3489 18.0467 19.4348 17.9817 19.479 17.8329C19.5208 17.661 19.4581 17.4472 19.4581 17.2566C19.4581 16.9149 19.6068 16.5733 19.6068 16.2526C19.6068 15.3555 18.5378 14.4561 17.5756 14.4561C17.4687 14.4561 17.4687 14.3702 17.4037 14.3702C17.3386 14.3702 17.2758 14.4352 17.2108 14.4352C17.1457 14.4352 17.062 14.3283 16.976 14.3283C16.8901 14.3283 16.8482 14.4143 16.7204 14.4143C16.4415 14.4143 16.4206 14.4561 16.2068 14.4561C16.1417 14.4561 16.0348 14.4771 15.993 14.498C15.907 14.5398 15.907 14.6049 15.821 14.6049C15.7063 14.6049 15.649 14.6266 15.649 14.67C15.649 14.9047 15.67 14.8628 15.5631 14.8628C15.4484 14.8628 15.3771 14.8698 15.3492 14.8838C15.2633 14.9256 15.3283 15.0325 15.2423 15.0976C15.1564 15.1394 15.1354 15.2045 15.1145 15.3323C15.0936 15.4601 14.9658 15.5043 14.9658 15.6321C14.9658 15.6972 14.9867 15.739 14.9867 15.7808C14.9867 15.9087 14.7311 15.8668 14.7311 15.9946C14.7311 16.0806 14.7961 16.1434 14.7961 16.2294C14.7961 16.2944 14.7543 16.3363 14.7543 16.4013C14.7543 16.4664 14.7961 16.5082 14.7961 16.5501C14.7961 16.657 14.6474 16.6779 14.6474 16.7639C14.6474 16.8499 14.7334 16.9126 14.7334 16.9777C14.7334 17.0195 14.6683 17.0428 14.6683 17.1055C14.6683 17.1682 14.6474 17.0637 14.7752 17.2542C14.8612 17.3821 14.8612 17.4472 14.7752 17.5541C14.6892 17.661 14.5196 17.726 14.3058 17.726C13.4087 17.726 13.3018 16.8057 12.8091 16.657C12.6604 16.6152 12.6371 16.5919 12.6371 16.5292C12.6371 16.4664 12.6371 16.4873 12.7231 16.4013C12.8091 16.3154 12.83 16.2526 12.83 16.1875C12.83 16.1225 12.83 16.1015 12.7882 16.0597C12.6162 15.7808 12.5325 15.4392 12.5325 15.0557C12.5325 13.0896 14.9263 11.4419 17.1945 11.4419C17.8778 11.4419 17.7709 11.6139 18.1776 11.6139C18.2845 11.6139 18.2426 11.6139 18.3914 11.593C18.7772 11.5279 19.4813 11.6789 20.0368 11.9555C21.5752 12.7248 22.5816 14.5421 22.5816 16.6593C22.5816 20.2731 19.3744 22.9016 15.0982 22.9016C12.7673 22.9016 11.1637 22.1742 9.58104 20.401C9.40907 20.2081 9.66703 20.4428 9.38815 19.9524C9.04652 19.3528 9.08836 19.7386 9.08836 19.7386C8.98146 19.6108 8.78856 19.2459 8.68166 19.1181C8.55384 18.9694 8.38187 18.9903 8.31911 18.9043C8.23312 18.7974 8.36095 18.6045 8.31911 18.4976C8.27728 18.3256 7.91241 18.07 7.87058 17.9422C7.82874 17.8143 7.67769 17.0009 7.67769 16.8522C7.67769 16.6802 7.80551 16.6593 7.80551 16.5524C7.80551 16.4037 7.61262 16.3595 7.50571 16.1457C7.39881 15.9319 7.33374 15.4392 7.33374 14.9047C7.33374 14.6258 7.33374 14.5189 7.41973 13.8775C7.44064 13.6636 7.76136 13.6636 7.76136 13.4289C7.76136 13.3429 7.71952 13.236 7.71952 13.1733C7.71952 13.0873 7.71952 13.0664 7.74044 13.0013C8.63751 9.23873 12.658 6.4383 17.1271 6.4383C18.6656 6.4383 19.8415 6.7172 21.6589 7.48645C22.2585 7.74207 23.1347 7.29353 23.1347 6.82411C23.1765 6.67537 23.0928 6.63119 23.0696 6.5452C23.0487 6.45921 22.9627 6.35231 22.8767 6.33139C22.8349 6.31047 22.8116 6.24541 22.7698 6.18268C22.7047 6.07578 22.642 6.03394 22.47 5.98976C22.384 5.96887 22.3422 5.94795 22.298 5.90377C22.233 5.81779 22.1911 5.77595 22.1051 5.7318C22.0191 5.68997 21.9564 5.7318 21.9122 5.71088C21.8704 5.68997 21.8472 5.64582 21.8053 5.6249C21.7844 5.60398 21.7403 5.60398 21.6775 5.60398C19.5208 4.44895 18.1102 4.27698 16.23 4.27698C12.1677 4.27698 8.53292 6.0316 6.28793 9.08767C6.09504 9.34332 6.20194 9.77093 5.92538 10.0289C5.39086 10.5216 4.72852 13.2151 4.72852 14.9256C4.72852 16.3572 5.07015 18.2605 5.51868 19.3087C6.39483 21.3608 6.01137 20.5055 6.13919 20.6984C6.39483 21.1051 6.60864 21.147 6.71555 21.2748C6.71555 21.2748 6.78062 21.4026 6.78062 21.5304C6.78062 21.6164 6.78062 21.6373 6.80153 21.6792C6.8666 21.807 7.16408 22.0208 7.25007 22.1068C7.44296 22.2997 7.5917 22.7064 7.91241 23.0271C8.4051 23.5198 9.10928 23.9032 11.3543 24.9514C12.1444 25.3139 11.6959 25.1233 11.7819 25.1443C11.9748 25.2093 12.2304 25.2093 12.3815 25.3162C12.4675 25.3813 12.3606 25.3581 12.5953 25.3581C12.6371 25.3581 12.6371 25.379 12.6813 25.3999C12.7231 25.4208 12.7673 25.4859 12.83 25.4859C12.8718 25.4859 12.8951 25.4441 12.9578 25.465C13.0206 25.4859 13.1716 25.5928 13.2995 25.6579C13.4064 25.7229 13.4273 25.7229 13.4714 25.6788C13.5993 25.5928 13.6852 25.6997 13.8131 25.6997C13.8549 25.6997 13.92 25.6788 14.0478 25.6788C14.2198 25.6788 14.2198 25.7206 14.8821 25.7206" fill="#1E1E1E"/>
</g>
</g>
<defs>
<clipPath id="clip0_107_2746">
<rect width="30" height="30" fill="white"/>
</clipPath>
</defs>
</svg>
