<svg width="290" height="405" viewBox="0 0 290 405" fill="none" xmlns="http://www.w3.org/2000/svg">
<g clip-path="url(#clip0_107_3007)">
<rect width="290" height="405" fill="#F2F1F0"/>
<mask id="path-1-inside-1_107_3007" fill="white">
<path d="M45.5 46C45.5 40.4771 49.9772 36 55.5 36H234.5C240.023 36 244.5 40.4772 244.5 46V359C244.5 364.523 240.023 369 234.5 369H55.5C49.9772 369 45.5 364.523 45.5 359V46Z"/>
</mask>
<path d="M45.5 46C45.5 40.4771 49.9772 36 55.5 36H234.5C240.023 36 244.5 40.4772 244.5 46V359C244.5 364.523 240.023 369 234.5 369H55.5C49.9772 369 45.5 364.523 45.5 359V46Z" fill="#E9E9E9"/>
<path d="M45.5 36H244.5H45.5M45.5 36M244.5 369H45.5H244.5M55.5 369C48.3203 369 42.5 363.18 42.5 356V49C42.5 41.8203 48.3203 36 55.5 36C51.634 36 48.5 40.4772 48.5 46V359C48.5 364.523 51.634 369 55.5 369ZM55.5 369M244.5 36V369V36" fill="#A9A9A9" mask="url(#path-1-inside-1_107_3007)"/>
<mask id="path-3-inside-2_107_3007" fill="white">
<path d="M73.5 137C73.5 131.477 77.9772 127 83.5 127H207.5C213.023 127 217.5 131.477 217.5 137V183C217.5 188.523 213.023 193 207.5 193H83.5C77.9771 193 73.5 188.523 73.5 183V137Z"/>
</mask>
<path d="M73.5 137C73.5 131.477 77.9772 127 83.5 127H207.5C213.023 127 217.5 131.477 217.5 137V183C217.5 188.523 213.023 193 207.5 193H83.5C77.9771 193 73.5 188.523 73.5 183V137Z" fill="#D3D3D3"/>
<path d="M73.5 127H217.5H73.5M73.5 127M217.5 193H73.5H217.5M83.5 193C76.3203 193 70.5 187.18 70.5 180V140C70.5 132.82 76.3203 127 83.5 127C79.634 127 76.5 131.477 76.5 137V183C76.5 188.523 79.634 193 83.5 193ZM83.5 193M217.5 127V193V127" fill="#A9A9A9" mask="url(#path-3-inside-2_107_3007)"/>
<mask id="path-5-inside-3_107_3007" fill="white">
<path d="M73.5 218C73.5 212.477 77.9772 208 83.5 208H207.5C213.023 208 217.5 212.477 217.5 218V264C217.5 269.523 213.023 274 207.5 274H83.5C77.9771 274 73.5 269.523 73.5 264V218Z"/>
</mask>
<path d="M73.5 218C73.5 212.477 77.9772 208 83.5 208H207.5C213.023 208 217.5 212.477 217.5 218V264C217.5 269.523 213.023 274 207.5 274H83.5C77.9771 274 73.5 269.523 73.5 264V218Z" fill="#D3D3D3"/>
<path d="M73.5 208H217.5H73.5M73.5 208M217.5 274H73.5H217.5M83.5 274C76.3203 274 70.5 268.18 70.5 261V221C70.5 213.82 76.3203 208 83.5 208C79.634 208 76.5 212.477 76.5 218V264C76.5 269.523 79.634 274 83.5 274ZM83.5 274M217.5 208V274V208" fill="#A9A9A9" mask="url(#path-5-inside-3_107_3007)"/>
<mask id="path-7-inside-4_107_3007" fill="white">
<path d="M73.5 298C73.5 292.477 77.9772 288 83.5 288H207.5C213.023 288 217.5 292.477 217.5 298V344C217.5 349.523 213.023 354 207.5 354H83.5C77.9771 354 73.5 349.523 73.5 344V298Z"/>
</mask>
<path d="M73.5 298C73.5 292.477 77.9772 288 83.5 288H207.5C213.023 288 217.5 292.477 217.5 298V344C217.5 349.523 213.023 354 207.5 354H83.5C77.9771 354 73.5 349.523 73.5 344V298Z" fill="#D3D3D3"/>
<path d="M73.5 288H217.5H73.5M73.5 288M217.5 354H73.5H217.5M83.5 354C76.3203 354 70.5 348.18 70.5 341V301C70.5 293.82 76.3203 288 83.5 288C79.634 288 76.5 292.477 76.5 298V344C76.5 349.523 79.634 354 83.5 354ZM83.5 354M217.5 288V354V288" fill="#A9A9A9" mask="url(#path-7-inside-4_107_3007)"/>
<rect x="73.5" y="52" width="144" height="12" rx="3" fill="#C7C7C7"/>
<rect x="73.5" y="74" width="82" height="12" rx="3" fill="#C7C7C7"/>
<rect x="73.5" y="96" width="119" height="12" rx="3" fill="#C7C7C7"/>
<rect x="-81" y="273.75" width="453" height="131" fill="url(#paint0_linear_107_3007)"/>
</g>
<defs>
<linearGradient id="paint0_linear_107_3007" x1="145.5" y1="273.75" x2="145.5" y2="404.75" gradientUnits="userSpaceOnUse">
<stop stop-color="#F2F1F0" stop-opacity="0"/>
<stop offset="0.705507" stop-color="#F2F1F0"/>
</linearGradient>
<clipPath id="clip0_107_3007">
<rect width="290" height="405" fill="white"/>
</clipPath>
</defs>
</svg>
