<svg width="30" height="30" viewBox="0 0 30 30" fill="none" xmlns="http://www.w3.org/2000/svg">
<g clip-path="url(#clip0_107_2744)">
<path d="M5.88 19.95L11.79 16.65L11.88 16.35L11.79 16.2H11.49L10.5 16.14L7.14 16.05L4.2 15.9L1.35 15.75L0.63 15.6L0 14.7L0.06 14.25L0.66 13.86L1.53 13.92L3.42 14.07L6.27 14.25L8.34 14.37L11.4 14.73H11.88L11.94 14.52L11.79 14.4L11.67 14.28L8.7 12.3L5.52 10.2L3.84 8.97L2.94 8.37L2.49 7.77L2.31 6.51L3.12 5.61L4.23 5.7L4.5 5.76L5.61 6.63L8.01 8.46L11.1 10.8L11.55 11.16L11.73 11.04L11.76 10.95L11.55 10.62L9.9 7.5L8.1 4.38L7.29 3.09L7.08 2.31C6.99 2.01 6.96 1.71 6.96 1.41L7.86 0.15L8.4 0L9.66 0.18L10.14 0.6L10.92 2.4L12.15 5.19L14.1 8.97L14.7 10.11L15 11.13L15.09 11.43H15.3V11.28L15.45 9.12L15.75 6.51L16.05 3.15L16.14 2.19L16.62 1.05L17.52 0.45L18.3 0.78L18.9 1.65L18.81 2.19L18.48 4.5L17.7 8.13L17.25 10.59H17.52L17.82 10.26L19.05 8.64L21.12 6.06L22.02 5.01L23.1 3.9L23.79 3.36H25.08L26.01 4.77L25.59 6.24L24.27 7.92L23.16 9.33L21.57 11.46L20.61 13.17L20.7 13.29H20.91L24.51 12.51L26.43 12.18L28.71 11.79L29.76 12.27L29.88 12.75L29.46 13.77L27 14.37L24.12 14.97L19.83 15.96L19.77 15.99L19.83 16.08L21.75 16.26L22.59 16.32H24.63L28.41 16.62L29.4 17.22L29.97 18.03L29.88 18.63L28.35 19.41L26.31 18.93L21.51 17.79L19.89 17.4H19.65V17.52L21.03 18.87L23.52 21.12L26.7 24.03L26.85 24.75L26.46 25.35L26.04 25.29L23.28 23.19L22.2 22.29L19.8 20.25H19.65V20.46L20.19 21.27L23.13 25.68L23.28 27.03L23.07 27.45L22.29 27.75L21.48 27.57L19.74 25.17L17.94 22.47L16.53 20.01L16.38 20.13L15.51 29.19L15.12 29.64L14.22 30L13.47 29.4L13.05 28.5L13.47 26.64L13.95 24.24L14.34 22.32L14.7 19.95L14.91 19.17V19.11H14.7L12.9 21.6L10.2 25.29L8.04 27.57L7.53 27.78L6.63 27.33L6.72 26.49L7.2 25.8L10.2 21.96L12 19.59L13.2 18.21L13.17 18.06H13.08L5.16 23.22L3.75 23.4L3.15 22.8L3.21 21.9L3.51 21.6L5.91 19.95H5.88Z" fill="#D97757"/>
</g>
<defs>
<clipPath id="clip0_107_2744">
<rect width="30" height="30" fill="white"/>
</clipPath>
</defs>
</svg>
