<svg width="358" height="300" viewBox="0 0 358 300" fill="none" xmlns="http://www.w3.org/2000/svg">
<g clip-path="url(#clip0_197_33536)">
<path d="M167.383 134.415C185.281 134.473 202.35 151.691 202.341 168.301L202.283 264.156C202.271 282.833 184.792 299.964 166.143 299.964L23.5081 299.985C11.7599 299.985 0.207945 289.556 0.198891 278.985L0.150607 225.46C0.141554 217 7.14276 209.966 15.6227 209.957L111.756 209.854C115.556 209.851 118.018 205.818 118.169 202.572C118.32 199.325 115.734 194.944 111.82 194.932L42.5622 194.693C37.1423 194.675 32.0695 193.186 27.069 191.193C18.0218 187.586 10.1484 181.099 5.30494 172.592C2.40186 167.491 0.150607 161.8 0.147589 155.809L0.0993053 68.7522C-0.869396 55.8937 5.58861 43.7704 17.2191 38.2851C20.5054 36.736 23.8219 35.6287 27.5066 35.6075L43.546 35.5228L43.5762 14.8705C43.5822 10.1839 45.8968 6.05102 49.5182 3.15256C51.5702 1.51272 54.425 0.0876881 57.2406 0.0846626L90.4118 0.0181008C93.9034 0.0120497 96.9392 1.53995 99.5888 3.55798C101.704 5.73031 103.953 8.28386 103.962 11.5393L104.043 35.5137L142.357 35.5076L142.507 14.0747C142.562 6.40501 149.026 0.556646 156.492 -0.00610352H188.193C191.468 -0.00610352 194.488 1.4522 196.894 3.38552C200.186 6.43224 202.383 10.2747 202.389 14.8674L202.413 35.4955L221.66 35.5621C226 35.5772 229.938 37.5287 232.953 40.4393C237.404 44.4723 238.988 49.8124 238.982 55.7364L238.946 103.473C238.943 108.048 238.035 112.232 235.035 115.706C232.358 118.807 228.601 121.215 224.228 121.218L103.449 121.294C99.9117 121.294 97.3587 124.41 97.2984 127.557C97.238 130.703 99.6733 134.192 103.255 134.204L167.383 134.403V134.415Z" fill="#B43A19"/>
<path d="M357.876 278.482C357.84 288.703 346.478 299.994 334.624 299.994L220.432 300C212.299 300 206.246 290.206 209.022 284.065C211.321 278.973 213.609 273.781 213.639 268.023L213.775 242.046L213.799 166.178C213.799 160.19 211.78 154.708 209.453 149.392C207.504 144.935 204.697 141.247 201.722 137.459C201.248 136.857 201.028 135.955 201.342 135.311C201.616 134.748 202.491 134.249 203.294 134.249L233.734 134.261C236.284 134.261 238.545 134.031 240.841 133.012C246.038 130.307 249.318 125.185 249.593 119.251V95.7038L269.383 95.6614L269.389 75.7564C270.367 67.9535 276.11 62.3593 283.92 61.4668L312.869 61.5515C320.555 61.5757 327.291 68.3045 327.78 75.9228L327.946 95.6463L335.493 95.7128C343.68 95.7854 351.177 100.224 355.166 107.328C356.838 110.305 357.963 113.427 357.966 116.876L358 138.866C358.003 141.423 356.657 143.371 354.919 145.135L335.282 165.07L308.342 192.403C305.216 195.574 306.369 200.106 309.043 202.868L319.324 213.488L329.129 223.648L342.971 237.883L354.098 249.153C356.038 251.119 357.967 253.688 357.954 256.635L357.879 278.479L357.876 278.482Z" fill="#EA982D"/>
</g>
<defs>
<clipPath id="clip0_197_33536">
<rect width="358" height="300" fill="white"/>
</clipPath>
</defs>
</svg>
