<svg width="186" height="41" viewBox="0 0 186 41" fill="none" xmlns="http://www.w3.org/2000/svg">
<path d="M171.18 24.1761C170.795 23.4587 170.269 22.8524 169.616 22.373C168.984 21.9093 168.246 21.515 167.421 21.201C166.617 20.8949 165.778 20.6248 164.922 20.3983C164.035 20.1795 163.21 19.9487 162.47 19.7119C161.756 19.4842 161.143 19.202 160.648 18.8739C160.177 18.5627 159.804 18.1453 159.54 17.6345C159.275 17.1219 159.141 16.4124 159.141 15.5246C159.141 14.7406 159.302 14.0696 159.623 13.5295C159.948 12.9788 160.365 12.5304 160.86 12.198C161.364 11.859 161.929 11.612 162.536 11.4634C163.16 11.3121 163.758 11.2357 164.317 11.2357C165.527 11.2357 166.569 11.4544 167.415 11.8872C168.263 12.3194 169.035 12.9967 169.713 13.8998L169.92 14.1758L171.469 13.2605L171.227 12.9093C169.691 10.674 167.367 9.54003 164.317 9.54003C163.473 9.54003 162.625 9.66545 161.8 9.91441C160.966 10.1653 160.211 10.5383 159.553 11.0252C158.886 11.5187 158.344 12.1497 157.945 12.8996C157.541 13.6561 157.337 14.5553 157.337 15.5728C157.337 16.584 157.5 17.4452 157.818 18.1304C158.137 18.8167 158.581 19.4007 159.138 19.8671C159.683 20.323 160.325 20.6981 161.044 20.9812C161.738 21.2559 162.49 21.5091 163.284 21.7356C163.998 21.9266 164.767 22.1402 165.59 22.3788C166.385 22.6086 167.12 22.9108 167.777 23.2769C168.409 23.6292 168.94 24.1058 169.356 24.6918C169.758 25.2579 169.961 26.0163 169.961 26.9457C169.961 27.7343 169.796 28.4426 169.471 29.051C169.139 29.6679 168.704 30.1887 168.173 30.598C167.636 31.0143 167.03 31.3314 166.375 31.5391C165.716 31.7488 165.055 31.8554 164.41 31.8554C161.587 31.8554 159.487 30.8159 157.994 28.6766L157.776 28.3646L156.291 29.3759L156.519 29.7059C157.397 30.9672 158.524 31.9346 159.873 32.5817C161.212 33.225 162.723 33.5522 164.363 33.5522C165.368 33.5522 166.322 33.3998 167.199 33.1015C168.083 32.8005 168.873 32.3579 169.545 31.788C170.223 31.2122 170.768 30.5016 171.164 29.6749C171.563 28.8431 171.765 27.8927 171.765 26.85C171.765 25.8015 171.568 24.9028 171.18 24.1761Z" fill="#6EC739"/>
<path d="M149.272 12.6704C148.647 11.73 147.799 10.9653 146.752 10.3954C145.702 9.82666 144.384 9.53858 142.834 9.53858C141.863 9.53858 140.912 9.68909 140.007 9.98691C139.1 10.284 138.247 10.7285 137.468 11.3086C136.694 11.8864 135.992 12.5958 135.38 13.4166C135.087 13.8114 134.825 14.2354 134.596 14.6851C134.584 14.2457 134.571 13.7941 134.558 13.3284C134.542 12.7738 134.526 12.2568 134.511 11.7801C134.495 11.2985 134.471 10.8893 134.44 10.562L134.356 9.53968H132.551L132.642 10.6384C132.672 10.9535 132.703 11.3467 132.735 11.8182C132.765 12.2921 132.788 12.7887 132.803 13.3085L132.851 14.8599C132.866 15.3643 132.873 15.79 132.873 16.1361V33.5476H134.675V21.5765C134.675 19.9413 134.895 18.4671 135.331 17.1956C135.763 15.9283 136.353 14.8375 137.082 13.9556C137.805 13.0815 138.671 12.4023 139.658 11.9347C140.645 11.4694 141.714 11.2323 142.834 11.2323C144.091 11.2323 145.137 11.4933 145.944 12.0071C146.762 12.5308 147.421 13.1882 147.9 13.9607C148.385 14.7415 148.721 15.6265 148.898 16.5896C149.08 17.5809 149.171 18.5193 149.171 19.3823V33.5476H150.972V19.2859C150.972 18.1179 150.844 16.949 150.589 15.81C150.331 14.6541 149.887 13.5986 149.272 12.6704Z" fill="#6EC739"/>
<path d="M126.576 9.53954H126.156C124.492 9.53954 122.924 10.0702 121.494 11.1168C120.454 11.8776 119.614 12.9956 118.986 14.4524C118.975 14.0872 118.964 13.7148 118.954 13.3338C118.938 12.7776 118.923 12.259 118.907 11.7812C118.892 11.3007 118.867 10.8903 118.836 10.563L118.752 9.53954H116.947L117.038 10.6394C117.069 10.9546 117.1 11.3489 117.13 11.8204C117.161 12.2932 117.184 12.7897 117.2 13.3095L117.246 14.8609C117.262 15.3658 117.27 15.791 117.27 16.1371V33.5479H119.07V21.1966C119.07 20.0235 119.216 18.8264 119.503 17.6391C119.788 16.4613 120.235 15.3767 120.832 14.4152C121.421 13.4671 122.182 12.6894 123.093 12.1034C123.991 11.5264 125.099 11.2332 126.389 11.2332H126.647C126.721 11.2332 126.808 11.2454 126.903 11.2698L127.383 11.3901V9.65714L127.071 9.59482C126.886 9.5576 126.724 9.53954 126.576 9.53954Z" fill="#6EC739"/>
<path d="M108.175 12.8981C107.149 11.8508 105.908 11.021 104.486 10.4331C103.065 9.84589 101.489 9.54797 99.8021 9.54797C98.1152 9.54797 96.5461 9.84589 95.1413 10.4338C93.7348 11.0218 92.5019 11.8508 91.4772 12.8981C90.4504 13.9478 89.6459 15.2174 89.0869 16.6712C88.5292 18.1211 88.2461 19.7457 88.2461 21.4998C88.2461 23.2538 88.5292 24.8864 89.0862 26.3511C89.6451 27.8223 90.4492 29.1067 91.474 30.1713C92.5 31.2351 93.7335 32.0731 95.1413 32.6618C96.5461 33.249 98.1152 33.5469 99.8021 33.5469C101.489 33.5469 103.065 33.2498 104.486 32.663C105.909 32.0739 107.151 31.2359 108.177 30.1713C109.202 29.1079 110.005 27.8234 110.566 26.3511C111.123 24.8832 111.406 23.2507 111.406 21.4998C111.406 19.749 111.123 18.1242 110.565 16.6712C110.004 15.2163 109.2 13.947 108.175 12.8981ZM109.611 21.4998C109.611 22.9376 109.383 24.3012 108.936 25.5527C108.49 26.7957 107.836 27.8955 106.99 28.821C106.147 29.744 105.108 30.4895 103.904 31.0363C102.704 31.5823 101.323 31.8591 99.8021 31.8591C98.2823 31.8591 96.9097 31.5823 95.7255 31.0375C94.536 30.4903 93.5054 29.7448 92.6614 28.8198C91.8154 27.8967 91.1618 26.7969 90.7161 25.5527C90.2684 24.3012 90.0411 22.9376 90.0411 21.4998C90.0411 20.0938 90.2684 18.7474 90.7161 17.4959C91.1618 16.2506 91.8154 15.1519 92.6614 14.2269C93.5054 13.3038 94.5349 12.5661 95.7215 12.0354C96.9089 11.5055 98.2811 11.2365 99.8021 11.2365C101.323 11.2365 102.705 11.5055 103.908 12.0362C105.11 12.5673 106.147 13.3046 106.99 14.2269C107.836 15.1519 108.49 16.2518 108.936 17.4959C109.383 18.7462 109.611 20.0938 109.611 21.4998Z" fill="#6EC739"/>
<path d="M82.1888 29.5056C81.3946 30.2872 80.4476 30.8814 79.3734 31.2726C78.2878 31.6669 77.1664 31.8676 76.0374 31.8676C74.5811 31.8676 73.2583 31.5916 72.1064 31.0476C70.949 30.502 69.9507 29.7573 69.1371 28.8361C68.3215 27.9118 67.682 26.8112 67.2364 25.5651C66.7887 24.3147 66.5613 22.9841 66.5613 21.6106C66.5613 20.2368 66.7887 18.906 67.2364 17.6561C67.6833 16.4088 68.3239 15.2988 69.1403 14.3589C69.9539 13.4217 70.9533 12.6609 72.1104 12.1C73.2623 11.5411 74.5831 11.258 76.0374 11.258C77.1573 11.258 78.2484 11.4877 79.2803 11.9392C80.3129 12.3908 81.2248 13.0333 81.9926 13.8469L82.2492 14.1198L83.6166 12.8855L83.3387 12.5915C82.4375 11.6363 81.3357 10.8868 80.0666 10.3612C78.7994 9.83633 77.4443 9.57142 76.0374 9.57142C74.4102 9.57142 72.8943 9.87757 71.5333 10.4835C70.1761 11.0875 68.9765 11.9322 67.969 12.9952C66.9597 14.0598 66.165 15.3431 65.6073 16.8102C65.0506 18.2742 64.7676 19.8887 64.7676 21.6106C64.7676 23.3314 65.0506 24.947 65.6073 26.411C66.1662 27.8801 66.9616 29.1563 67.9711 30.2041C68.9784 31.2514 70.1792 32.0804 71.5372 32.6672C72.8967 33.2563 74.4114 33.5542 76.0374 33.5542C77.3751 33.5542 78.7083 33.3316 79.9979 32.8922C81.3045 32.4477 82.4584 31.7202 83.4275 30.7285L83.7073 30.4428L82.4524 29.2457L82.1888 29.5056Z" fill="#6EC739"/>
<path d="M60.1048 33.5471C60.0128 32.9494 59.7756 31.0699 59.6998 30.1539C59.624 29.2375 59.5845 28.3595 59.5845 27.545V17.9289C59.5845 15.0652 58.8286 12.9247 57.3372 11.5672C55.8576 10.2216 53.8203 9.53921 51.2805 9.53921C50.0328 9.53921 48.7423 9.77913 47.4475 10.2527C46.15 10.7273 44.9728 11.4336 43.9473 12.3508L43.6875 12.5825L44.6949 14.0425L45.0181 13.7466C45.8519 12.9858 46.8112 12.3689 47.869 11.9114C48.9179 11.4587 50.0659 11.229 51.2805 11.229C53.2239 11.229 54.8155 11.7648 56.0112 12.8223C57.1904 13.8669 57.7888 15.5688 57.7888 17.8818V19.2506H54.448C53.321 19.2506 52.0597 19.3317 50.7006 19.4912C49.3163 19.6539 48.0025 20.009 46.795 20.5436C45.5669 21.0897 44.524 21.8705 43.6973 22.8649C42.8487 23.8852 42.418 25.2359 42.418 26.8786C42.418 28.0185 42.6453 29.0259 43.093 29.8728C43.5379 30.7156 44.132 31.416 44.8587 31.9558C45.5732 32.4877 46.3896 32.8922 47.284 33.1579C48.1691 33.4209 49.0759 33.5542 49.9771 33.5542C51.7799 33.5542 53.4946 33.0454 55.0725 32.0432C56.2678 31.2816 57.2065 30.208 57.8736 28.8392C57.8918 29.2007 57.9183 29.5687 57.9533 29.9391C57.9999 30.4275 58.0375 30.9002 58.0686 31.3557C58.0999 31.8323 58.2902 33.2163 58.3556 33.5471H60.1048ZM57.7888 22.6419C57.7888 23.6865 57.6664 24.7714 57.4248 25.8642C57.1883 26.9359 56.762 27.931 56.1565 28.8213C55.5565 29.7043 54.746 30.4408 53.7466 31.0107C52.7553 31.5775 51.4857 31.8656 49.9771 31.8656C49.3604 31.8656 48.6957 31.7731 48.0005 31.5916C47.3165 31.4129 46.6816 31.1271 46.1156 30.7407C45.5629 30.3644 45.1011 29.8556 44.7454 29.2284C44.3929 28.6103 44.2148 27.8197 44.2148 26.8786C44.2148 25.5852 44.5362 24.5503 45.169 23.8021C45.8235 23.0295 46.6746 22.4251 47.6982 22.0068C48.7493 21.5773 49.9214 21.2904 51.1826 21.152C52.466 21.0113 53.705 20.9404 54.8672 20.9404H57.7888V22.6419Z" fill="#6EC739"/>
<path d="M31.2757 19.1487L1.30546 19.1514C-1.3374 18.9418 -1.25134 5.84697 14.0827 4.72313C14.2296 4.65419 14.2608 4.63884 14.3457 4.35507C14.4881 3.83027 14.5691 3.31952 14.5833 2.83587C14.5995 2.24355 14.5213 1.71674 14.3477 1.22406C14.1909 0.787868 13.9537 0.371141 13.6434 -2.67029e-05C14.1164 0.00197983 14.5833 0.0976067 15.0357 0.286854C15.618 0.522861 16.2073 0.930153 16.7379 1.46829C17.2309 1.96178 17.6857 2.56695 18.0926 3.26424C18.2868 3.59938 18.4625 3.93764 18.6283 4.30299C18.7072 4.47939 18.783 4.66322 18.8557 4.85568C33.823 6.17027 33.8969 18.9397 31.2757 19.1487Z" fill="#6EC739"/>
<path d="M30.5697 20.5296C30.5697 20.5296 32.9393 35.5329 18.4268 38.3664C17.7687 38.9375 16.6765 40.247 16.2781 40.2419C15.8802 40.247 14.7867 38.9375 14.1279 38.3664C-0.465635 35.8217 1.98498 20.5296 1.98498 20.5296H30.5697Z" fill="#6EC739"/>
<path d="M182.461 14.293C182.618 14.1155 182.699 13.8846 182.699 13.6075C182.699 13.4018 182.659 13.2254 182.58 13.0827C182.5 12.9423 182.393 12.8267 182.263 12.7385C182.134 12.6511 181.986 12.5872 181.823 12.5468C181.664 12.5088 181.499 12.4907 181.33 12.4907H180.027V16.1863H180.819V14.7132H181.132L181.943 16.1863H182.901L181.948 14.6109C182.156 14.5467 182.327 14.4404 182.461 14.293ZM181.717 13.9348C181.564 13.9991 181.402 14.032 181.235 14.032H180.819V13.1983H181.303C181.452 13.1983 181.598 13.2281 181.736 13.2877C181.853 13.3386 181.909 13.4358 181.909 13.5934C181.909 13.7721 181.847 13.8803 181.717 13.9348Z" fill="#6EC739"/>
<path d="M185.624 12.4787C185.373 11.8928 185.03 11.3788 184.601 10.9493C184.171 10.5181 183.661 10.1716 183.089 9.91993C182.516 9.66717 181.894 9.53862 181.24 9.53862C180.587 9.53862 179.966 9.66717 179.392 9.91993C178.82 10.1716 178.312 10.5181 177.881 10.9493C177.451 11.3808 177.106 11.8959 176.858 12.4787C176.609 13.0616 176.482 13.6938 176.482 14.3582C176.482 15.0245 176.609 15.6544 176.858 16.2286C177.106 16.8045 177.451 17.3163 177.881 17.7467C178.312 18.1771 178.82 18.5204 179.394 18.767C179.971 19.0131 180.591 19.1375 181.24 19.1375C181.89 19.1375 182.511 19.0131 183.088 18.767C183.661 18.5212 184.171 18.1783 184.601 17.7467C185.03 17.3183 185.373 16.8076 185.624 16.2286C185.874 15.6505 186 15.0203 186 14.3582C186 13.6977 185.874 13.0655 185.624 12.4787ZM184.721 15.8371C184.524 16.3016 184.253 16.7163 183.914 17.0683C183.574 17.4206 183.169 17.6997 182.715 17.8992C181.806 18.2955 180.675 18.2955 179.767 17.8992C179.309 17.6985 178.905 17.4195 178.568 17.0683C178.229 16.7171 177.957 16.3028 177.76 15.8371C177.565 15.3715 177.466 14.874 177.466 14.3582C177.466 13.8294 177.565 13.3246 177.76 12.8582C177.957 12.3933 178.229 11.9829 178.567 11.6379C178.906 11.2938 179.309 11.0179 179.767 10.818C180.222 10.6192 180.717 10.5181 181.24 10.5181C181.763 10.5181 182.259 10.6192 182.715 10.818C183.168 11.0155 183.574 11.2914 183.915 11.6379C184.254 11.9841 184.524 12.3945 184.721 12.8582C184.917 13.3246 185.017 13.8294 185.017 14.3582C185.017 14.874 184.917 15.3715 184.721 15.8371Z" fill="#6EC739"/>
</svg>
